<svg width="98" height="99" viewBox="0 0 98 99" fill="none" xmlns="http://www.w3.org/2000/svg">
<path d="M48.8587 0.952881C21.9156 0.952881 0.0742188 22.8053 0.0742188 49.7621C0.0742188 76.7188 21.9156 98.5713 48.8587 98.5713C75.8018 98.5713 97.6433 76.7188 97.6433 49.7621C97.6433 22.8053 75.8018 0.952881 48.8587 0.952881ZM48.8587 10.2256C70.647 10.2256 88.3752 27.9627 88.3752 49.7621C88.3752 71.5614 70.647 89.2959 48.8587 89.2959C27.0704 89.2959 9.34218 71.5614 9.34218 49.7621C9.34218 27.9627 27.0704 10.2256 48.8587 10.2256Z" fill="#FEFEFE"/>
<path d="M48.8582 0.952881C48.4331 0.952881 48.0133 0.971489 47.5908 0.984781V10.2575C48.0133 10.2442 48.4331 10.2256 48.8582 10.2256C70.6465 10.2256 88.3747 27.9628 88.3747 49.7621H97.6428C97.6428 22.8054 75.8013 0.952881 48.8582 0.952881Z" fill="#E31E24"/>
</svg>
