<svg width="99" height="99" viewBox="0 0 99 99" fill="none" xmlns="http://www.w3.org/2000/svg">
<path d="M49.2396 0.984741C22.2965 0.984741 0.455078 22.8372 0.455078 49.7939C0.455078 76.7506 22.2965 98.6031 49.2396 98.6031C76.1827 98.6031 98.0241 76.7506 98.0241 49.7939C98.0241 22.8372 76.1827 0.984741 49.2396 0.984741ZM49.2396 10.2574C71.0279 10.2574 88.7535 27.9946 88.7535 49.7939C88.7535 71.5932 71.0279 89.3304 49.2396 89.3304C27.4513 89.3304 9.72304 71.5932 9.72304 49.7939C9.72304 27.9946 27.4513 10.2574 49.2396 10.2574Z" fill="#FEFEFE"/>
<path d="M81.0905 26.3863C83.6546 24.6477 86.2213 22.909 88.7854 21.1704C79.916 8.92559 65.5119 0.952881 49.2397 0.952881V10.2309C62.2941 10.2309 73.887 16.5979 81.0905 26.3863Z" fill="#E31E24"/>
</svg>
