<svg width="94" height="82" viewBox="0 0 94 82" fill="none" xmlns="http://www.w3.org/2000/svg">
<g id="Group">
<g id="Group_2">
<path id="Vector" fill-rule="evenodd" clip-rule="evenodd" d="M55.8203 19.6454C56.0839 23.9675 55.9097 36.3226 55.856 41.807C55.8292 44.3135 54.4309 45.2937 53.0191 46.2646C40.2148 55.0583 3.62922 52.043 3.5488 41.807C3.49966 34.9877 3.40585 26.1613 3.56669 19.6314C4.26364 19.9021 6.17134 21.3723 8.94128 22.5206C10.8311 23.3 12.9532 23.9489 15.1111 24.425C24.3368 26.4647 35.2155 26.488 44.4189 24.3923C46.6259 23.8882 48.6229 23.2768 50.5887 22.4739C53.4167 21.3257 54.6721 20.1588 55.8203 19.6454ZM23.9705 4.41512C43.3377 2.31472 67.2217 11.4071 49.6951 18.8985C45.4866 20.7002 40.5186 21.6291 35.5997 22.1239C16.1565 24.0843 -7.85259 15.3045 9.68293 7.62636C14.0344 5.72199 18.8729 4.9659 23.9705 4.41512ZM0.0953182 42.9365C0.819077 49.8865 10.4156 52.7338 17.4074 54.0454C25.3777 55.5483 35.1395 55.3803 43.0383 53.8494C46.7688 53.1259 50.6557 51.9824 53.5909 50.274C56.5172 48.5751 59.3318 46.4699 59.3408 41.7977C59.3452 36.9294 59.3408 32.0611 59.3363 27.1975C59.3318 22.7633 59.6401 17.0642 59.314 12.7841C58.7913 5.96939 48.8463 2.72078 42.0331 1.60056C33.9511 0.274972 24.2921 0.0975768 16.228 1.80591C10.0314 3.12217 0.0908833 5.72665 0.0730127 13.9229L0.0774847 35.7298C0.0730171 37.8069 -0.105726 40.9901 0.0953182 42.9365Z" fill="#FEFEFE"/>
<path id="Vector_2" fill-rule="evenodd" clip-rule="evenodd" d="M10.7913 27.8838C12.6543 27.305 16.0542 28.374 18.0825 28.696C25.7222 29.9143 33.898 29.9003 41.4394 28.6774C43.499 28.3413 46.8095 27.2677 48.7976 27.9165C50.598 28.5046 52.193 30.3623 52.3538 32.6914C52.7782 38.8899 51.6703 42.834 47.5734 44.9438C44.8348 46.3487 37.2487 47.5296 33.6701 47.749C28.4475 48.0711 23.1756 47.7304 18.2567 46.7268C13.0251 45.658 9.56271 44.7945 7.75778 40.4349C6.93126 38.4419 6.85976 34.9692 7.06527 32.5654C7.27525 30.1616 8.89258 28.4812 10.7913 27.8838ZM55.8207 19.6455C54.6725 20.159 53.4171 21.3259 50.5891 22.4741C48.6233 23.2769 46.6263 23.8883 44.4193 24.3924C35.216 26.4882 24.3372 26.4649 15.1115 24.4251C12.9536 23.949 10.8315 23.3002 8.94172 22.5207C6.17177 21.3725 4.26408 19.9023 3.56712 19.6315C3.40629 26.1615 3.50009 34.9879 3.54924 41.8072C3.62965 52.0432 40.2153 55.0584 53.0195 46.2647C54.4313 45.2939 55.8297 44.3137 55.8565 41.8072C55.9101 36.3228 56.0843 23.9677 55.8207 19.6455Z" fill="#1C3456"/>
<path id="Vector_3" fill-rule="evenodd" clip-rule="evenodd" d="M11.2065 39.5012C12.5467 42.1103 15.4909 42.4604 18.3592 43.0392C26.5305 44.6915 33.9334 44.6074 42.1002 42.8244C46.0675 41.9563 48.8777 41.0554 48.8866 36.3038C48.8956 30.5627 48.6498 30.9641 44.1464 31.8883C43.0831 32.1077 42.5381 32.1824 41.3765 32.3644C33.6609 33.5733 27.5089 33.4706 19.8826 32.6071C19.3465 32.5465 18.8372 32.4998 18.3011 32.4298C18.2341 32.4205 18.0509 32.3971 17.9839 32.3878C12.2653 31.4869 9.683 29.0178 10.5497 37.4381L11.2065 39.5012Z" fill="#1C3456"/>
<path id="Vector_4" fill-rule="evenodd" clip-rule="evenodd" d="M8.68647 13.7315C8.24864 11.7385 10.6746 11.0383 12.0998 10.5108C13.7126 9.91337 15.4058 9.41865 17.1929 9.03591C24.4573 7.47694 33.9734 7.36962 41.2601 8.8399C43.1991 9.22731 50.3205 10.7583 50.7226 12.826C51.1113 14.8331 48.7657 15.4585 47.2825 16.0046C38.6912 19.1785 27.0217 19.3466 18.1266 17.6569C15.7677 17.2088 9.11984 15.7106 8.68647 13.7315ZM23.9703 4.41505C18.8727 4.96583 14.0343 5.72192 9.68281 7.62629C-7.85271 15.3044 16.1564 24.0842 35.5996 22.1238C40.5185 21.629 45.4865 20.7001 49.695 18.8984C67.2216 11.407 43.3376 2.31464 23.9703 4.41505Z" fill="#1C3456"/>
<path id="Vector_5" fill-rule="evenodd" clip-rule="evenodd" d="M10.5494 37.4385C9.68263 29.0182 12.2649 31.4873 17.9835 32.3881C18.0505 32.3975 18.2337 32.4208 18.3007 32.4302C18.8368 32.5002 19.3462 32.5468 19.8823 32.6075C27.5086 33.471 33.6605 33.5737 41.3761 32.3648C42.5377 32.1827 43.0827 32.108 44.146 31.8887C48.6494 30.9645 48.8952 30.5631 48.8863 36.3042C48.8773 41.0558 46.0671 41.9566 42.0999 42.8248C33.933 44.6078 26.5301 44.6919 18.3588 43.0396C15.4906 42.4608 12.5464 42.1107 11.2061 39.5015L10.5494 37.4385ZM10.7906 27.8839C8.89188 28.4813 7.27455 30.1616 7.06457 32.5654C6.85906 34.9692 6.93056 38.442 7.75708 40.435C9.56201 44.7945 13.0244 45.658 18.256 46.7269C23.1749 47.7304 28.4467 48.0711 33.6694 47.7491C37.248 47.5297 44.8341 46.3488 47.5727 44.9439C51.6696 42.8341 52.7775 38.89 52.3531 32.6915C52.1923 30.3624 50.5973 28.5047 48.7969 27.9166C46.8088 27.2678 43.4983 28.3414 41.4387 28.6774C33.8973 29.9003 25.7215 29.9144 18.0818 28.6961C16.0535 28.3741 12.6536 27.3051 10.7906 27.8839Z" fill="#FEFEFE"/>
<path id="Vector_6" fill-rule="evenodd" clip-rule="evenodd" d="M15.6787 13.3396C17.7294 12.0094 26.6468 11.4446 29.6848 11.4446C34.5858 11.4446 39.2992 12.0421 43.7936 13.2416C41.256 14.4179 33.0891 15.0713 29.868 15.0806C24.9536 15.0946 20.1508 14.3525 15.6787 13.3396ZM8.68684 13.7317C9.12021 15.7108 15.7681 17.209 18.127 17.6571C27.0221 19.3468 38.6916 19.1787 47.2828 16.0048C48.7661 15.4587 51.1117 14.8333 50.723 12.8263C50.3209 10.7585 43.1994 9.22754 41.2605 8.84013C33.9737 7.36985 24.4577 7.47716 17.1933 9.03613C15.4062 9.41887 13.713 9.9136 12.1001 10.511C10.675 11.0385 8.24902 11.7387 8.68684 13.7317Z" fill="#FEFEFE"/>
<path id="Vector_7" fill-rule="evenodd" clip-rule="evenodd" d="M15.6787 13.3395C20.1508 14.3524 24.9536 15.0945 29.868 15.0805C33.0891 15.0712 41.256 14.4177 43.7936 13.2415C39.2992 12.0419 34.5858 11.4444 29.6848 11.4444C26.6468 11.4444 17.7294 12.0092 15.6787 13.3395Z" fill="#1C3456"/>
</g>
<g id="Group_3">
<path id="Vector_8" fill-rule="evenodd" clip-rule="evenodd" d="M90.3014 45.7278C90.565 50.0453 90.3907 62.405 90.3371 67.8894C90.3103 70.3959 88.9164 71.376 87.5002 72.3422C74.7004 81.1406 38.1103 78.1207 38.0344 67.8847C37.9808 61.0654 37.887 52.239 38.0523 45.7138C38.7448 45.9845 40.6569 47.4547 43.4224 48.5983C45.3166 49.3824 47.4343 50.0266 49.5922 50.5027C58.8179 52.5424 69.6966 52.5704 78.9 50.4747C81.107 49.9706 83.104 49.3544 85.0698 48.5562C87.8978 47.4034 89.1577 46.2365 90.3014 45.7278ZM58.456 30.4974C77.8188 28.397 101.703 37.4895 84.1763 44.9809C79.9722 46.7779 74.9997 47.7114 70.0808 48.2062C50.6376 50.1619 26.6285 41.3823 44.1685 33.7041C48.5155 31.8044 53.3539 31.0482 58.456 30.4974ZM34.5809 69.0143C35.3047 75.9643 44.8967 78.8115 51.8886 80.1278C59.8633 81.6261 69.6207 81.4626 77.5195 79.9317C81.25 79.2082 85.1413 78.0647 88.0765 76.3563C90.9984 74.6573 93.8174 72.5523 93.8219 67.8754C93.8308 63.0118 93.8219 58.1435 93.8174 53.2752C93.813 48.841 94.1212 43.1418 93.7951 38.8664C93.2768 32.0517 83.3274 28.8031 76.5142 27.6829C68.4323 26.3526 58.7732 26.1752 50.7091 27.8882C44.517 29.1998 34.572 31.8044 34.5541 40.0007L34.5586 61.8075C34.5586 63.8846 34.3754 67.0679 34.5809 69.0143Z" fill="#FEFEFE"/>
<path id="Vector_9" fill-rule="evenodd" clip-rule="evenodd" d="M45.277 53.9659C47.1355 53.3825 50.5399 54.4513 52.5637 54.7734C60.2034 55.9963 68.3791 55.9776 75.9205 54.7547C77.9801 54.4233 81.2907 53.3452 83.2788 53.9986C85.0793 54.5867 86.6742 56.4398 86.835 58.7735C87.2594 64.9721 86.156 68.9162 82.0547 71.0213C79.3205 72.4309 71.7299 73.6118 68.1513 73.8312C62.9331 74.1485 57.6613 73.8124 52.738 72.8089C47.5063 71.74 44.0439 70.8718 42.239 66.517C41.4169 64.5193 41.341 61.0513 41.551 58.6428C41.7565 56.2437 43.3737 54.5587 45.277 53.9659ZM90.3019 45.7277C89.1582 46.2365 87.8983 47.4033 85.0703 48.5562C83.1046 49.3543 81.1075 49.9705 78.9005 50.4746C69.6971 52.5703 58.8184 52.5424 49.5927 50.5026C47.4348 50.0265 45.3172 49.3824 43.4229 48.5982C40.6574 47.4547 38.7453 45.9844 38.0528 45.7137C37.8875 52.239 37.9813 61.0653 38.0349 67.8847C38.1109 78.1207 74.7009 81.1405 87.5007 72.3421C88.9169 71.3759 90.3108 70.3958 90.3376 67.8893C90.3913 62.4049 90.5655 50.0452 90.3019 45.7277Z" fill="#1C3456"/>
<path id="Vector_10" fill-rule="evenodd" clip-rule="evenodd" d="M45.6874 65.5836C47.0277 68.1928 49.9764 68.5429 52.8446 69.1216C61.0159 70.774 68.4188 70.69 76.5812 68.9023C80.5529 68.0341 83.3586 67.1333 83.3675 62.3864C83.3765 56.6452 83.1307 57.042 78.6318 57.9709C77.5685 58.1902 77.0235 58.2649 75.8574 58.447C68.1418 59.6559 61.9943 59.5485 54.3635 58.685C53.8274 58.6243 53.3181 58.5823 52.7865 58.5122C52.7195 58.5029 52.5318 58.4749 52.4693 58.4655C46.7462 57.5694 44.1639 55.1002 45.0307 63.5159L45.6874 65.5836Z" fill="#1C3456"/>
<path id="Vector_11" fill-rule="evenodd" clip-rule="evenodd" d="M43.1675 39.8141C42.7297 37.8164 45.1556 37.121 46.5808 36.5889C48.1936 35.9914 49.8913 35.5014 51.6784 35.114C58.9428 33.555 68.4544 33.4522 75.7456 34.9178C77.6801 35.3099 84.8015 36.8409 85.2036 38.9086C85.5923 40.9157 83.2512 41.5412 81.768 42.0873C73.1767 45.2566 61.5027 45.4246 52.6076 43.7396C50.2487 43.2915 43.6053 41.7932 43.1675 39.8141ZM58.4558 30.4977C53.3537 31.0484 48.5153 31.8046 44.1682 33.7043C26.6283 41.3825 50.6374 50.1621 70.0806 48.2064C74.9995 47.7117 79.972 46.7782 84.176 44.9812C101.703 37.4897 77.8186 28.3973 58.4558 30.4977Z" fill="#1C3456"/>
<path id="Vector_12" fill-rule="evenodd" clip-rule="evenodd" d="M45.0309 63.516C44.1641 55.1003 46.7464 57.5695 52.4694 58.4656C52.532 58.475 52.7197 58.503 52.7867 58.5123C53.3183 58.5824 53.8276 58.6244 54.3637 58.6851C61.9945 59.5486 68.142 59.656 75.8576 58.4471C77.0237 58.265 77.5687 58.1903 78.632 57.9709C83.1309 57.0421 83.3766 56.6453 83.3677 62.3865C83.3588 67.1334 80.5531 68.0342 76.5814 68.9024C68.419 70.6901 61.0161 70.7741 52.8448 69.1217C49.9765 68.543 47.0279 68.1929 45.6876 65.5837L45.0309 63.516ZM45.2765 53.9661C43.3733 54.5589 41.7561 56.2439 41.5505 58.6431C41.3406 61.0515 41.4165 64.5195 42.2386 66.5172C44.0435 70.872 47.5059 71.7402 52.7375 72.8091C57.6609 73.8126 62.9327 74.1488 68.1509 73.8314C71.7295 73.612 79.32 72.4311 82.0542 71.0215C86.1555 68.9164 87.259 64.9723 86.8346 58.7738C86.6738 56.44 85.0788 54.587 83.2784 53.9988C81.2903 53.3454 77.9797 54.4235 75.9201 54.7549C68.3787 55.9778 60.203 55.9965 52.5633 54.7736C50.5395 54.4516 47.1351 53.3827 45.2765 53.9661Z" fill="#FEFEFE"/>
<path id="Vector_13" fill-rule="evenodd" clip-rule="evenodd" d="M50.1597 39.422C52.2103 38.087 61.1277 37.5269 64.1702 37.5269C69.0712 37.5222 73.7801 38.1243 78.2746 39.3238C75.7369 40.4954 67.5701 41.1536 64.3489 41.1583C59.4345 41.1723 54.6318 40.4302 50.1597 39.422ZM43.1678 39.814C43.6056 41.793 50.249 43.2914 52.6079 43.7395C61.503 45.4245 73.177 45.2564 81.7683 42.0871C83.2515 41.541 85.5926 40.9155 85.2039 38.9085C84.8018 36.8407 77.6804 35.3098 75.7459 34.9177C68.4547 33.4521 58.9431 33.5548 51.6787 35.1138C49.8916 35.5012 48.1939 35.9913 46.5811 36.5887C45.1559 37.1208 42.73 37.8162 43.1678 39.814Z" fill="#FEFEFE"/>
<path id="Vector_14" fill-rule="evenodd" clip-rule="evenodd" d="M50.1592 39.4219C54.6313 40.4301 59.434 41.1722 64.3484 41.1582C67.5696 41.1536 75.7364 40.4954 78.2741 39.3238C73.7796 38.1242 69.0707 37.5222 64.1697 37.5269C61.1272 37.5269 52.2098 38.087 50.1592 39.4219Z" fill="#1C3456"/>
</g>
</g>
</svg>
