<svg width="96" height="86" viewBox="0 0 96 86" fill="none" xmlns="http://www.w3.org/2000/svg">
<g id="Group">
<path id="Vector" fill-rule="evenodd" clip-rule="evenodd" d="M16.0036 72.1303L43.9086 72.0929L43.9309 80.812C41.773 81.3068 32.8422 80.924 30.0276 80.9193C25.6091 80.9147 20.373 81.1947 16.0617 80.882L16.0036 72.1303ZM16.0572 60.8068C16.4816 60.3447 15.4452 60.5687 16.8569 60.4147C18.5993 60.2233 43.5333 60.5033 43.9041 60.5313L43.9666 67.3274C43.9934 69.6145 44.0381 68.9843 43.6003 69.2224L16.0662 69.1991L16.0572 60.8068ZM13.2382 80.8353C3.66399 81.4001 4.9283 78.5809 4.93276 69.1991C4.93276 65.8011 4.92388 62.3984 4.92835 59.0004C4.93281 55.6304 4.33857 52.1297 6.282 50.2254L23.6299 37.7489C29.9338 33.3334 29.3127 32.1945 37.9174 38.9018C38.3955 39.2752 38.6859 39.4153 39.356 39.9007C39.91 40.3021 40.33 40.6195 40.7678 40.9275C41.3039 41.3056 41.7328 41.5903 42.184 41.9311C45.5705 44.5169 50.1454 47.4435 53.4291 49.9733C55.654 51.691 55.0062 55.8218 55.0151 59.2058C55.0196 62.6084 55.0151 66.0111 55.0107 69.4091C55.0107 71.9389 55.5066 77.1853 54.2958 78.945C53.6302 79.9158 52.7277 80.672 51.3338 80.826C50.3732 80.9334 47.572 80.9567 46.683 80.77C46.3524 74.4268 46.607 66.898 46.6606 60.4567C46.6785 58.0156 46.5847 57.5955 44.3866 57.6001L29.8265 57.6095C26.5741 57.6142 23.3171 57.6095 20.0647 57.6095C13.5196 57.6048 13.256 56.9327 13.2784 60.662C13.3007 64.3961 13.4481 78.0814 13.2382 80.8353ZM2.24329 77.7361C2.84195 81.3815 5.6476 83.7666 9.69529 83.7759H49.3591C53.1521 83.7806 56.4984 82.6837 57.5661 78.4222C58.1201 76.2238 57.794 67.7194 57.7895 64.8302C57.7895 61.8943 58.1157 53.5393 57.5036 51.3176C56.6235 48.1063 53.6346 46.5987 50.8245 44.5683L35.076 33.3241C31.4974 30.8596 29.1296 30.2108 25.2919 33.0254L9.55682 44.2742C6.93878 46.1039 3.64164 47.9616 2.61408 50.7762C1.7965 53.0213 2.14496 60.9935 2.14496 63.9947C2.14496 67.3834 1.76078 74.8142 2.24329 77.7361Z" fill="#FEFEFE" stroke="#FEFEFE" stroke-width="3.12985" stroke-miterlimit="22.9256" stroke-linejoin="round"/>
<path id="Vector_2" fill-rule="evenodd" clip-rule="evenodd" d="M90.3987 53.6091C91.6451 55.2848 91.252 60.6152 91.176 63.3597C88.3569 63.7238 75.8162 63.4204 71.2771 63.4251C69.5168 63.4297 66.2421 62.7996 66.1617 64.8673C66.117 66.0576 66.9257 66.3049 68.0828 66.333C74.5385 66.4963 86.0025 65.9128 91.1492 66.3656C91.2967 67.9852 91.1939 70.0343 91.1939 71.7007C91.1939 78.8187 88.3346 77.9412 81.6421 77.9506C78.1886 77.9599 74.7306 77.9459 71.2771 77.9506C70.0708 77.9552 67.2964 77.6052 66.5414 78.4173C66.2868 78.688 65.2279 80.8491 68.2793 80.8725C71.7284 80.9005 75.1997 80.8584 78.6532 80.8631C84.4031 80.8724 92.1946 82.4828 93.7941 75.2294C94.1559 73.6051 94.147 55.9009 93.7315 54.2766C91.9355 47.2426 84.4209 48.8762 78.2556 48.8809C74.8736 48.8856 71.4603 48.8342 68.0873 48.8715C65.9204 48.8995 65.6881 50.8459 66.6933 51.5087C67.6137 52.1155 80.2124 51.7888 81.8386 51.7934C85.6674 51.7981 88.558 51.14 90.3987 53.6091Z" fill="#FEFEFE" stroke="#FEFEFE" stroke-width="3.12985" stroke-miterlimit="22.9256" stroke-linejoin="round"/>
<path id="Vector_3" fill-rule="evenodd" clip-rule="evenodd" d="M45.946 4.77236C48.0681 4.31027 50.2394 6.21932 51.5752 6.94746L66.8546 15.9419C68.6417 17.0294 70.1428 17.8929 71.9388 18.9665C73.775 20.068 75.8614 20.9735 76.6656 22.3691C77.8986 24.4976 77.1257 35.0976 77.2687 38.4209C77.3178 39.6811 78.189 40.7173 79.4757 39.8912C80.3469 39.3264 80.0654 37.5014 80.0654 36.3065C80.0654 33.5293 80.0654 30.7521 80.0654 27.9749C80.061 20.8475 79.3774 19.9093 74.4943 17.1274C67.5918 13.1926 60.9797 9.12252 54.1129 5.10374C50.4494 2.95665 47.4114 0.142111 42.6534 3.06868L22.2854 15.1017C18.4521 17.3468 14.6278 18.8265 13.5556 22.6539C13.216 23.8581 13.283 25.2116 13.2786 26.5186C13.2741 28.0309 13.0463 29.4778 14.1364 29.8559C17.0806 30.8688 15.7715 25.6271 16.1691 23.676C16.6338 21.3749 18.4655 20.7168 20.2481 19.6386L35.5275 10.6162C37.2162 9.5893 38.9452 8.55774 40.6206 7.61022C42.01 6.82607 44.4627 5.09442 45.946 4.77236Z" fill="#FEFEFE" stroke="#FEFEFE" stroke-width="3.12985" stroke-miterlimit="22.9256" stroke-linejoin="round"/>
<path id="Vector_4" fill-rule="evenodd" clip-rule="evenodd" d="M25.5058 46.0617C24.5944 46.3745 23.9912 47.322 24.7016 48.3209C25.2645 49.1144 26.6004 48.8903 27.6324 48.8856C28.8699 48.881 33.7575 49.0444 34.5751 48.7876C35.4821 48.4983 35.8528 47.2007 35.1469 46.4025C34.3606 45.5157 25.6443 46.0104 25.5058 46.0617Z" fill="#FEFEFE" stroke="#FEFEFE" stroke-width="3.12985" stroke-miterlimit="22.9256" stroke-linejoin="round"/>
<path id="Vector_5" fill-rule="evenodd" clip-rule="evenodd" d="M16.2357 72.2888C24.2239 72.1067 35.317 72.2328 43.5777 72.2981V80.6484L16.2223 80.6531L16.209 73.5723L16.2357 72.2888ZM16.0615 80.8818C20.3728 81.1945 25.6089 80.9144 30.0274 80.9191C32.842 80.9238 41.7728 81.3065 43.9307 80.8118L43.9084 72.0927L16.0034 72.1301L16.0615 80.8818Z" fill="#FEFEFE" stroke="#FEFEFE" stroke-width="3.12985" stroke-miterlimit="22.9256" stroke-linejoin="round"/>
<path id="Vector_6" fill-rule="evenodd" clip-rule="evenodd" d="M43.6002 69.2221C44.038 68.9841 43.9933 69.6143 43.9665 67.3271L43.904 60.5311C43.5332 60.5031 18.5992 60.2231 16.8569 60.4144C15.4451 60.5685 16.4816 60.3445 16.0571 60.8066C18.2329 60.2931 26.9626 60.6291 29.8398 60.6478C34.0707 60.6758 39.8518 60.3305 43.7163 60.6899L43.6002 69.2221Z" fill="#FEFEFE" stroke="#FEFEFE" stroke-width="3.12985" stroke-miterlimit="22.9256" stroke-linejoin="round"/>
</g>
</svg>
