<svg width="84" height="89" viewBox="0 0 84 89" fill="none" xmlns="http://www.w3.org/2000/svg">
<g id="Group">
<path id="Vector" fill-rule="evenodd" clip-rule="evenodd" d="M28.9573 74.3177C27.4204 73.7809 26.4153 72.572 25.8255 71.1531C25.0482 69.3 25.3788 55.3301 25.3788 52.6835C25.3833 48.9682 28.582 47.4745 31.5307 46.3263C36.9544 44.2072 43.0215 43.9644 48.6373 45.3647C48.8741 45.4207 49.4147 45.5421 49.8436 45.6682L54.2174 47.3951C54.6329 47.6052 54.8161 47.7312 55.169 47.9692C56.8265 49.0848 57.9792 49.9857 57.9926 52.8842C58.0105 57.0757 58.006 61.2952 57.9837 65.4913C57.9658 68.4739 58.5108 72.9314 54.3604 74.3177L54.3515 55.8015L50.7416 55.7874V87.9516L54.3515 88.003L54.4274 78.2898C55.5085 77.6877 56.0402 77.6924 57.0857 76.9503C59.4044 75.2933 61.4505 72.6468 61.6024 69.2675C61.8392 63.9604 61.589 58.0699 61.6069 52.6882C61.6248 47.8619 58.4617 45.5421 54.4408 43.6144C46.2739 39.6983 36.9008 39.7403 28.667 43.717C25.1911 45.3974 21.7823 47.7406 21.7689 52.8889C21.7555 58.0419 21.4517 64.4551 21.7868 69.4635C22.0772 73.7856 25.4502 77.0809 29.0109 78.2292L29.0199 87.9563L32.6521 87.8443L32.6431 55.9741C31.9953 55.666 30.1055 55.652 29.0199 55.8714L28.9573 74.3177Z" fill="#FEFEFE"/>
<path id="Vector_2" fill-rule="evenodd" clip-rule="evenodd" d="M72.468 87.9562L76.0734 87.8909L76.1315 82.0892C78.3295 81.5571 79.9692 80.7029 81.2603 79.3633C82.8553 77.7063 83.3333 76.6935 83.3154 73.5662C83.2886 68.3012 83.4718 62.84 83.3154 57.6077C83.1859 53.2388 79.509 50.5597 76.2029 49.024C71.9899 47.0637 68.7821 46.3775 63.4165 46.3308L63.4657 50.107C68.2059 50.1256 71.914 50.8023 75.707 52.702C77.5566 53.6262 79.5581 55.2272 79.6832 57.6217C79.8887 61.4724 79.6966 65.9114 79.7011 69.8275C79.7056 73.6549 80.5991 77.6783 76.0823 78.2478L76.0734 61.4818L72.4635 61.5051L72.468 87.9562Z" fill="#FEFEFE"/>
<path id="Vector_3" fill-rule="evenodd" clip-rule="evenodd" d="M3.67477 59.7781C3.67477 56.8608 3.51393 56.3008 5.12228 54.5644C8.406 51.0311 15.3175 50.1489 19.9594 50.1069L20.0175 46.3401C13.9593 46.2467 5.17589 48.2585 1.60178 53.2481C-0.0646561 55.5773 0.0604598 56.7721 0.0604598 60.1747L0.0559878 68.6418C0.0559878 72.8053 -0.480147 76.7633 1.82516 79.0737C3.41564 80.6701 4.56386 81.3936 7.28019 82.0798L7.29803 87.9189L10.9079 88.0216L10.9124 61.5097C9.85356 61.4444 8.30774 61.239 7.32039 61.6404C7.27571 65.1224 7.43653 75.8486 7.24889 78.2477C2.94654 77.7296 3.68371 73.7622 3.67477 71.6011V59.7781Z" fill="#FEFEFE"/>
<path id="Vector_4" fill-rule="evenodd" clip-rule="evenodd" d="M61.6025 32.6035C61.6025 29.9897 62.706 28.3047 64.9622 27.6979C65.5564 27.5392 66.575 27.3992 67.4194 27.4412C71.1365 27.6185 72.4098 29.4903 72.4544 33.1963C72.5036 36.963 72.5527 40.6598 67.0396 40.6644C61.1379 40.6644 61.607 36.4123 61.6025 32.6035ZM75.9883 36.935C76.4217 34.4099 76.1938 30.3817 74.9876 28.2393C70.7969 20.7665 59.2123 23.021 58.0775 31.1053C57.0991 38.0739 59.324 42.5174 64.5154 44.1091C70.1581 45.8407 75.1529 41.7707 75.9883 36.935Z" fill="#FEFEFE"/>
<path id="Vector_5" fill-rule="evenodd" clip-rule="evenodd" d="M36.3242 31.0303C36.1589 30.0688 36.2124 25.9473 36.4537 25.0792C36.8781 23.5529 37.937 22.5494 39.4202 22.0639C41.0777 21.5178 43.2177 21.7139 44.5357 22.2833C45.7821 22.8247 46.8142 23.973 47.0509 25.728C47.2118 26.9089 47.1805 30.6383 46.908 31.6605C45.6749 36.2814 37.2266 36.356 36.3242 31.0303ZM32.7813 31.6185C34.5594 41.9198 53.3191 42.0925 50.6162 25.2005C49.879 20.603 44.5446 16.5096 38.9377 18.3813C33.1477 20.309 31.785 25.8353 32.7813 31.6185Z" fill="#FEFEFE"/>
<path id="Vector_6" fill-rule="evenodd" clip-rule="evenodd" d="M21.67 36.7391C20.8748 41.7054 12.4846 42.2982 11.1219 37.2853C10.8405 36.2444 10.7913 32.5103 10.9879 31.3341C11.2693 29.6631 12.1718 28.5055 13.5613 27.9361C15.871 26.9932 20.5889 27.0118 21.6075 30.8812C21.8845 31.9175 21.8443 35.6609 21.67 36.7391ZM7.37357 36.9352C8.60664 47.0778 27.5718 48.422 25.3157 31.278C24.9538 28.5055 23.3052 26.3444 21.5137 25.2242C19.3513 23.8753 16.7869 23.1098 13.7712 24.0106C7.81138 25.7936 6.66768 31.1567 7.37357 36.9352Z" fill="#FEFEFE"/>
<path id="Vector_7" fill-rule="evenodd" clip-rule="evenodd" d="M52.5418 9.9564C52.5418 5.86294 55.3564 4.42063 58.9439 4.79871C60.5791 4.96674 61.9238 5.63892 62.6923 6.82915C63.559 8.16874 63.416 9.97509 63.416 11.7301C63.416 15.4315 62.5404 17.9566 57.9923 17.9426C52.0995 17.9286 52.5418 13.7885 52.5418 9.9564ZM56.5984 1.08801C53.7123 1.5361 51.7644 3.04831 50.5448 4.74264C48.7443 7.24446 48.8202 9.44298 48.9275 13.1164C49.1866 21.9007 60.5433 24.7806 65.422 17.9193C67.2046 15.4175 67.1599 13.2237 67.0349 9.56896C66.8517 4.28526 62.1338 0.21984 56.5984 1.08801Z" fill="#FEFEFE"/>
<path id="Vector_8" fill-rule="evenodd" clip-rule="evenodd" d="M20.0045 13.8958C19.5622 9.83969 19.7409 6.05431 23.1319 5.05079C26.5273 4.04726 30.4007 5.24218 30.7805 8.81288C31.2317 13.009 30.9771 16.5844 27.6621 17.6579C26.1207 18.1527 23.7126 17.9799 22.4304 17.3825C21.099 16.7617 20.1698 15.3988 20.0045 13.8958ZM24.1505 1.05999C21.2287 1.50807 19.3165 2.91764 18.0253 4.63998C16.1266 7.17447 16.3053 9.24687 16.3365 12.9203C16.3812 18.2366 21.2063 22.4982 26.7685 21.6347C29.6457 21.1866 31.5802 19.6836 32.7685 18.0639C34.6584 15.4734 34.4931 13.4851 34.4529 9.75574C34.3948 4.45804 29.6278 0.22449 24.1505 1.05999Z" fill="#FEFEFE"/>
</g>
</svg>
