<svg width="24" height="24" viewBox="0 0 24 24" fill="none" xmlns="http://www.w3.org/2000/svg">
<g id="carbon:fish-multiple">
<path id="Vector" d="M22.5 10.5C22.5035 9.21201 22.2515 7.93612 21.7586 6.74619C21.2656 5.55626 20.5416 4.47594 19.6283 3.56775L18.3105 2.25L17.25 3.3105L18.5678 4.62825C19.3388 5.39928 19.9504 6.31464 20.3677 7.32205C20.785 8.32946 20.9998 9.40921 20.9998 10.4996C20.9998 11.59 20.785 12.6698 20.3677 13.6772C19.9504 14.6846 19.3388 15.6 18.5678 16.371L16.5 18.4395L17.5605 19.5L19.6283 17.4323C20.5416 16.5241 21.2656 15.4437 21.7586 14.2538C22.2515 13.0639 22.5035 11.788 22.5 10.5Z" fill="#FEFEFE"/>
<path id="Vector_2" d="M12.75 9C13.1642 9 13.5 8.66421 13.5 8.25C13.5 7.83579 13.1642 7.5 12.75 7.5C12.3358 7.5 12 7.83579 12 8.25C12 8.66421 12.3358 9 12.75 9Z" fill="#FEFEFE"/>
<path id="Vector_3" d="M16.5 10.5C16.5035 9.21201 16.2515 7.93612 15.7586 6.74619C15.2656 5.55626 14.5416 4.47594 13.6283 3.56775L12.3105 2.25L11.25 3.3105L12.5678 4.62825C13.3388 5.39928 13.9504 6.31464 14.3677 7.32205C14.785 8.32946 14.9998 9.40921 14.9998 10.4996C14.9998 11.59 14.785 12.6698 14.3677 13.6772C13.9504 14.6846 13.3388 15.6 12.5678 16.371L10.5 18.4395L11.5605 19.5L13.6283 17.4323C14.5416 16.5241 15.2656 15.4437 15.7586 14.2538C16.2515 13.0639 16.5035 11.788 16.5 10.5Z" fill="#FEFEFE"/>
<path id="Vector_4" d="M18.75 9C19.1642 9 19.5 8.66421 19.5 8.25C19.5 7.83579 19.1642 7.5 18.75 7.5C18.3358 7.5 18 7.83579 18 8.25C18 8.66421 18.3358 9 18.75 9Z" fill="#FEFEFE"/>
<path id="Vector_5" d="M6.75 9C7.16421 9 7.5 8.66421 7.5 8.25C7.5 7.83579 7.16421 7.5 6.75 7.5C6.33579 7.5 6 7.83579 6 8.25C6 8.66421 6.33579 9 6.75 9Z" fill="#FEFEFE"/>
<path id="Vector_6" d="M7.06034 18L7.62809 17.4323C8.53859 16.522 9.26085 15.4413 9.75362 14.2518C10.2464 13.0624 10.5 11.7875 10.5 10.5C10.5 9.21253 10.2464 7.93766 9.75362 6.74821C9.26085 5.55877 8.53859 4.47804 7.62809 3.56776L5.99984 1.93951L4.37159 3.56776C3.46121 4.47803 2.73904 5.5587 2.24634 6.74808C1.75364 7.93746 1.50004 9.21225 1.50004 10.4996C1.50004 11.787 1.75364 13.0618 2.24634 14.2512C2.73904 15.4406 3.46121 16.5212 4.37159 17.4315L4.93934 18L1.71959 21.2198C1.61473 21.3246 1.54333 21.4583 1.5144 21.6037C1.48548 21.7492 1.50033 21.9 1.55708 22.037C1.61383 22.174 1.70994 22.2912 1.83325 22.3736C1.95655 22.456 2.10153 22.5 2.24984 22.5H9.74984C9.89815 22.5 10.0431 22.456 10.1664 22.3736C10.2897 22.2912 10.3858 22.174 10.4426 22.037C10.4994 21.9 10.5142 21.7492 10.4853 21.6037C10.4564 21.4583 10.3849 21.3246 10.2801 21.2198L7.06034 18ZM2.99984 10.5C2.99686 9.40908 3.21029 8.32839 3.62779 7.3205C4.04529 6.31261 4.65855 5.39754 5.43209 4.62826L5.99984 4.06051L6.56759 4.62826C7.33865 5.3993 7.95028 6.31465 8.36758 7.32206C8.78487 8.32948 8.99965 9.40922 8.99965 10.4996C8.99965 11.5901 8.78487 12.6698 8.36758 13.6772C7.95028 14.6846 7.33865 15.6 6.56759 16.371L5.99984 16.9395L5.43209 16.371C4.65864 15.6018 4.04543 14.6869 3.62793 13.6791C3.21044 12.6714 2.99696 11.5908 2.99984 10.5ZM4.06034 21L5.99984 19.0605L7.93934 21H4.06034Z" fill="#FEFEFE"/>
</g>
</svg>
