<svg width="91" height="92" viewBox="0 0 91 92" fill="none" xmlns="http://www.w3.org/2000/svg">
<g id="Group">
<path id="Vector" d="M0.0288451 58.7824C0.0288451 48.5978 0.0512117 38.4131 0.00206758 28.2285C-0.00686771 26.7769 0.506929 25.9508 1.69532 25.2647C15.4959 17.3111 29.283 9.33419 43.0434 1.30596C43.7671 0.88121 44.4149 0.64785 45.0717 0.624512H45.2727C45.8669 0.643182 46.4745 0.839247 47.1536 1.23599C61.1552 9.34824 75.2015 17.3904 89.2433 25.4373C90.1994 25.9881 90.6372 26.7256 90.6372 27.8924C90.6149 48.4905 90.6193 69.0885 90.6148 89.6865C90.6148 91.1848 89.9537 91.9969 88.7965 91.9829C87.6484 91.9736 87.014 91.1661 87.014 89.6492C87.0095 69.8446 87.0005 50.0448 87.0363 30.2403C87.0407 29.0267 86.7101 28.3592 85.6692 27.7664C72.9185 20.4897 60.1634 13.2177 47.4976 5.7822C45.5988 4.66665 44.3345 4.95132 42.619 5.95952C30.0113 13.3483 17.3544 20.6484 4.6931 27.9392C3.87105 28.4153 3.62085 28.966 3.62085 29.9089C3.64319 49.5967 3.63874 69.2846 3.63874 88.9724C3.63427 89.4298 3.66105 89.8872 3.61191 90.3353C3.50468 91.3248 2.77647 91.9783 1.84274 91.9829C0.908998 91.9876 0.176304 91.3388 0.0556772 90.3586C0.0110007 89.9852 0.0288451 89.6025 0.0288451 89.2244C0.0288451 79.0771 0.0288451 68.9297 0.0288451 58.7824Z" fill="#FEFEFE"/>
<path id="Vector_2" d="M26.1819 61.0975C21.7277 61.0975 17.2689 61.1022 12.8147 61.0975C11.0276 61.0929 10.4692 60.5188 10.4692 58.6611C10.4647 51.1276 10.4647 43.5941 10.4692 36.0653C10.4692 34.3336 11.05 33.7175 12.6673 33.7035C14.2265 33.6941 15.7812 33.6848 17.3404 33.7128C18.5288 33.7315 19.2571 34.441 19.2839 35.5332C19.3062 36.6814 18.5691 37.4235 17.3315 37.4655C16.6435 37.4889 15.951 37.5309 15.2719 37.4562C14.2801 37.3535 14.0522 37.8063 14.0567 38.7678C14.0924 44.5229 14.0924 50.2734 14.0567 56.0285C14.0522 56.99 14.2801 57.3541 15.2675 57.3495C22.5497 57.3075 29.832 57.3121 37.1097 57.3401C37.9809 57.3448 38.3205 57.1114 38.316 56.1358C38.2803 50.3107 38.2848 44.4809 38.3116 38.6511C38.316 37.7876 38.0837 37.3955 37.2036 37.4609C36.4128 37.5169 35.6086 37.4982 34.8178 37.4515C33.7948 37.3955 33.1157 36.6488 33.0933 35.6406C33.0665 34.5764 33.7545 33.7501 34.8223 33.7221C36.6004 33.6755 38.3741 33.6708 40.1478 33.7221C41.3406 33.7548 41.9036 34.511 41.9036 35.9626C41.9125 42.9266 41.908 49.8906 41.908 56.8547C41.9125 57.5361 41.917 58.2175 41.9036 58.899C41.8768 60.4486 41.2736 61.0882 39.768 61.0929C35.2378 61.1069 30.7121 61.0975 26.1819 61.0975Z" fill="#FEFEFE"/>
<path id="Vector_3" d="M64.3764 61.0977C59.9579 61.1024 55.5395 61.1024 51.121 61.0977C49.2848 61.0977 48.7397 60.5235 48.7397 58.5771C48.7352 51.0857 48.7352 43.5896 48.7397 36.0981C48.7397 34.3151 49.3205 33.7129 51.0226 33.6989C52.4344 33.6943 53.8462 33.6943 55.258 33.6989C56.777 33.7083 57.5767 34.3804 57.5543 35.6174C57.5409 36.8123 56.7591 37.461 55.3116 37.4704C54.6951 37.4797 54.0741 37.517 53.462 37.461C52.6132 37.3863 52.3227 37.7271 52.3317 38.6279C52.3719 42.1846 52.3496 45.7414 52.3496 49.298C52.3496 51.6085 52.3764 53.9189 52.3362 56.2247C52.3228 57.0648 52.5953 57.3449 53.4039 57.3403C60.7577 57.3169 68.1114 57.3169 75.4652 57.3403C76.3185 57.3449 76.591 57.0509 76.5866 56.164C76.5553 50.2969 76.5597 44.4298 76.5821 38.5673C76.5866 37.7178 76.3051 37.405 75.5098 37.461C74.7861 37.5124 74.0579 37.489 73.3341 37.4657C72.0966 37.433 71.3504 36.7003 71.3638 35.5567C71.3773 34.4225 72.1234 33.7223 73.3922 33.7083C74.9469 33.6896 76.5061 33.6896 78.0653 33.7083C79.5575 33.7223 80.174 34.3617 80.1785 35.93C80.1874 41.5685 80.183 47.2069 80.183 52.8453C80.183 54.8151 80.1919 56.7802 80.1785 58.7499C80.1696 60.4722 79.5933 61.093 77.9626 61.093C73.4324 61.1024 68.9066 61.0977 64.3764 61.0977Z" fill="#FEFEFE"/>
<path id="Vector_4" d="M26.1958 91.9971C21.7416 91.9971 17.2873 92.0017 12.8286 91.9971C11.0371 91.9924 10.4697 91.4136 10.4653 89.5699C10.4608 82.0411 10.4608 74.5076 10.4653 66.9788C10.4697 65.2051 11.055 64.6077 12.7661 64.5984C14.2895 64.5937 15.8086 64.5798 17.332 64.6078C18.5651 64.6311 19.3112 65.3918 19.2844 66.5307C19.2576 67.6183 18.5249 68.3277 17.3454 68.3651C16.5502 68.3884 15.7505 68.3931 14.9552 68.3651C14.2895 68.3371 14.0662 68.6451 14.0706 69.3126C14.084 75.2918 14.084 81.2756 14.0662 87.2547C14.0662 88.0015 14.3521 88.235 15.0357 88.235C22.4654 88.2163 29.8906 88.2163 37.3158 88.235C38.0887 88.2396 38.3121 87.9222 38.3076 87.1567C38.2897 81.2522 38.2853 75.3478 38.3121 69.4433C38.3166 68.5751 37.9949 68.3137 37.2175 68.3604C36.4223 68.4071 35.6225 68.3977 34.8273 68.351C33.764 68.2904 33.0715 67.4969 33.0939 66.4374C33.1117 65.4245 33.7864 64.645 34.8095 64.6217C36.5831 64.575 38.3612 64.5703 40.1349 64.617C41.3277 64.6497 41.9041 65.4058 41.9041 66.8434C41.913 72.6359 41.9086 78.4238 41.9086 84.2162C41.9086 86.0693 41.922 87.9223 41.9041 89.78C41.8907 91.3389 41.2786 91.9877 39.782 91.9924C35.2518 92.0017 30.726 91.9971 26.1958 91.9971Z" fill="#FEFEFE"/>
<path id="Vector_5" d="M64.4211 91.9969C60.0026 91.9969 55.5841 92.0016 51.1656 91.9969C49.2937 91.9969 48.7397 91.4321 48.7397 89.5231C48.7352 82.069 48.7352 74.6102 48.7397 67.1561C48.7397 65.1444 49.2624 64.6076 51.1924 64.5983C52.6444 64.5936 54.0919 64.5843 55.5394 64.603C56.7993 64.6216 57.5454 65.3311 57.5543 66.47C57.5677 67.6135 56.8261 68.3323 55.5752 68.3649C54.7755 68.3836 53.9803 68.3883 53.185 68.3649C52.5774 68.3509 52.3451 68.6264 52.3451 69.2472C52.354 75.2683 52.3585 81.2848 52.3406 87.3013C52.3406 87.9921 52.6042 88.2302 53.2475 88.2302C60.7085 88.2208 68.174 88.2162 75.6349 88.2348C76.3453 88.2348 76.5821 87.9502 76.5821 87.2267C76.5642 81.2849 76.5597 75.3429 76.5821 69.4011C76.5866 68.5983 76.2961 68.3183 75.559 68.3603C74.8352 68.4023 74.107 68.3836 73.3832 68.3649C72.1234 68.3323 71.3728 67.6321 71.3638 66.5026C71.3549 65.3637 72.0966 64.6216 73.343 64.603C74.938 64.5796 76.5329 64.5843 78.1279 64.603C79.5396 64.6216 80.174 65.2844 80.1785 66.778C80.1919 71.2822 80.183 75.7864 80.183 80.2906C80.183 83.4319 80.1919 86.5731 80.1785 89.7144C80.1696 91.3527 79.5709 91.9876 78.0072 91.9923C73.4815 92.0063 68.9513 91.9969 64.4211 91.9969Z" fill="#FEFEFE"/>
<path id="Vector_6" d="M27.8621 41.0316C27.8621 40.6162 27.8666 40.2007 27.8577 39.7853C27.8175 37.2041 28.2732 37.5122 25.5881 37.4608C24.8063 37.4468 24.4667 37.6989 24.5025 38.5578C24.5516 39.762 24.4935 40.9709 24.5203 42.1798C24.574 44.8917 23.9485 44.5836 27.0043 44.6116C27.6879 44.6163 27.8845 44.2801 27.8666 43.636C27.8398 42.7679 27.8577 41.8998 27.8621 41.0316ZM20.906 40.9662C20.906 39.2672 20.8926 37.5636 20.9105 35.8646C20.9284 34.3803 21.5494 33.7221 22.9701 33.7081C25.1056 33.6894 27.2411 33.6847 29.3767 33.7034C30.851 33.7174 31.463 34.3756 31.4675 35.9485C31.4809 39.3512 31.4809 42.7539 31.4675 46.1566C31.4586 47.7156 30.842 48.3597 29.3498 48.369C27.2501 48.3877 25.1503 48.3877 23.0549 48.3737C21.5091 48.3597 20.915 47.7155 20.906 46.0725C20.8971 44.3688 20.9016 42.6699 20.906 40.9662Z" fill="#FEFEFE"/>
<path id="Vector_7" d="M66.1368 41.1157C66.1323 41.1157 66.1323 41.1157 66.1323 41.1157C66.1323 40.1682 66.1323 39.2253 66.1278 38.2825C66.1278 37.9324 66.0965 37.5357 65.6721 37.5171C64.8769 37.475 64.0816 37.4797 63.2909 37.5077C62.8664 37.5217 62.795 37.881 62.795 38.2451C62.7905 40.0935 62.7905 41.9466 62.7905 43.7949C62.7905 44.2103 62.8843 44.495 63.3578 44.5977C65.5649 45.0832 66.1368 44.635 66.1368 42.3619C66.1368 41.9465 66.1368 41.5311 66.1368 41.1157ZM59.1806 40.985C59.1806 39.244 59.1583 37.5031 59.1851 35.7667C59.2029 34.4131 59.8418 33.7269 61.1196 33.7129C63.3624 33.6849 65.6096 33.6802 67.8523 33.7129C69.063 33.7269 69.7242 34.4224 69.7332 35.706C69.7555 39.258 69.7555 42.8147 69.7332 46.3668C69.7242 47.655 69.072 48.3458 67.8523 48.3645C65.5738 48.3972 63.2953 48.3972 61.0168 48.3598C59.8597 48.3411 59.2119 47.6409 59.1895 46.4274C59.1583 44.6117 59.1806 42.796 59.1806 40.985Z" fill="#FEFEFE"/>
<path id="Vector_8" d="M24.5157 71.8702C24.5157 72.7757 24.5113 73.6813 24.5202 74.5868C24.5247 74.9228 24.4755 75.3896 24.8821 75.427C25.7443 75.497 26.6111 75.483 27.4733 75.4363C27.8263 75.4176 27.8531 75.0302 27.8531 74.7221C27.8575 72.8691 27.8575 71.0207 27.8575 69.1677C27.8575 68.8129 27.8129 68.4302 27.3885 68.4116C26.5262 68.3602 25.5701 68.1082 24.824 68.5143C24.1583 68.883 24.5962 69.8259 24.5247 70.512C24.4755 70.9601 24.5157 71.4175 24.5157 71.8702ZM31.4718 71.9962C31.4718 73.6952 31.4852 75.399 31.4674 77.098C31.4495 78.5963 30.8285 79.2544 29.4123 79.2684C27.241 79.287 25.0697 79.2917 22.8985 79.2637C21.5537 79.2497 20.9193 78.5729 20.9104 77.1493C20.8925 73.6719 20.8925 70.1945 20.9104 66.7172C20.9193 65.2936 21.5582 64.6216 22.9074 64.6076C25.1144 64.5842 27.3214 64.5795 29.5284 64.6076C30.8017 64.6216 31.4451 65.3123 31.463 66.6659C31.4898 68.4396 31.4718 70.2179 31.4718 71.9962Z" fill="#FEFEFE"/>
<path id="Vector_9" d="M66.1365 71.9824C66.1365 71.567 66.1409 71.1516 66.132 70.7362C66.0873 68.0617 66.5564 68.421 63.7999 68.3603C63.0672 68.3463 62.7455 68.5892 62.7768 69.3966C62.817 70.6429 62.7679 71.889 62.7902 73.1353C62.8349 75.7864 62.3032 75.4738 65.2295 75.5064C65.8684 75.5158 66.1633 75.2824 66.1409 74.5869C66.1097 73.7188 66.132 72.8506 66.1365 71.9824ZM69.7418 71.9964C69.7463 73.6954 69.7597 75.3991 69.7418 77.0981C69.724 78.5871 69.0985 79.2545 67.6867 79.2685C65.5155 79.2872 63.3442 79.2919 61.1729 79.2639C59.8237 79.2498 59.1893 78.5824 59.1848 77.1494C59.1669 73.6721 59.1669 70.1947 59.1848 66.7174C59.1893 65.2891 59.8236 64.6217 61.1773 64.6077C63.3844 64.5844 65.5914 64.5844 67.7984 64.6077C69.0762 64.6264 69.715 65.3125 69.7374 66.6614C69.7597 68.4397 69.7418 70.2181 69.7418 71.9964Z" fill="#FEFEFE"/>
</g>
</svg>
