<svg width="102" height="72" viewBox="0 0 102 72" fill="none" xmlns="http://www.w3.org/2000/svg">
<g id="Group">
<path id="Vector" fill-rule="evenodd" clip-rule="evenodd" d="M97.6829 59.9811C96.9948 64.196 94.2025 66.5997 91.0216 67.3139C89.793 67.5893 88.5018 67.6127 87.2598 67.3933C86.0133 67.1693 84.8071 66.7025 83.7438 65.993C81.0408 64.196 79.2582 60.8773 80.0535 56.1724C80.7415 52.0836 83.5517 49.7405 86.7371 49.045C87.9613 48.779 89.2435 48.7557 90.481 48.9751C91.723 49.1944 92.9248 49.6565 93.9836 50.3473C96.6642 52.107 98.4334 55.3556 97.6829 59.9811ZM3.36637 59.253C2.94194 54.6134 4.97917 51.4908 7.81612 49.9365C8.9241 49.3297 10.1527 48.9657 11.4037 48.8444C12.6501 48.7277 13.9234 48.8489 15.1207 49.2224C18.2213 50.1839 20.817 52.7978 21.1967 57.1059C21.6033 61.7408 19.5705 64.8588 16.738 66.4131C15.6345 67.0152 14.4059 67.3793 13.1594 67.5006C11.9129 67.6173 10.6442 67.4959 9.44683 67.1225C6.35075 66.161 3.75505 63.5518 3.36637 59.253ZM21.715 48.8397L80.2367 48.821L79.8257 49.5538C79.5085 50.1186 79.1823 50.6273 78.8562 51.1268C77.7169 52.8771 76.5956 54.6041 76.5687 58.0488C76.5464 61.6428 77.641 63.3418 78.7981 65.1435C79.1332 65.6616 79.4682 66.189 79.7899 66.7631L80.1831 67.4679L79.4012 67.4913C70.5061 67.7293 60.1501 67.6687 50.1917 67.608C45.398 67.58 40.6891 67.5519 36.2884 67.5566L20.9733 67.524L21.3531 66.8099C21.6301 66.2777 21.9339 65.8343 22.2377 65.3815C22.6532 64.7654 23.091 64.1167 23.502 63.2065C24.2079 61.6289 24.5698 59.9532 24.5787 58.2775C24.5877 56.5879 24.2481 54.8842 23.5646 53.2692C23.1446 52.2797 22.6621 51.5936 22.2064 50.9494C21.8892 50.5014 21.5854 50.0673 21.3129 49.5585L20.9287 48.8397H21.715ZM25.441 4.78706C25.7448 8.03103 25.6107 10.9109 25.5035 13.2914C25.3159 17.2961 25.2042 19.7841 27.438 19.9147C28.6622 19.9848 30.0427 19.9613 31.3785 19.938C32.071 19.924 32.7545 19.9101 33.4068 19.9101L35.4887 19.9194C36.7173 19.9241 37.9504 19.9334 39.1701 19.9241C41.3324 19.9054 41.7256 18.6684 41.7077 16.1946C41.7032 15.4851 41.663 14.6497 41.6184 13.7209C41.5067 11.3824 41.3681 8.42316 41.6541 4.8478L41.6854 4.45101L42.0696 4.40896C42.981 4.30627 44.2319 4.26434 45.5409 4.25501C47.3235 4.24101 49.2134 4.29232 50.4956 4.34366C53.3504 4.46502 53.2967 6.24334 53.1985 9.3286C53.1761 9.93539 53.1583 10.6028 53.1583 11.303C53.1627 13.7441 53.1851 16.4887 53.2074 19.3639C53.2655 27.1074 53.3325 35.8217 53.1672 42.3377C53.1449 43.2992 53.0108 43.9807 52.64 44.4708C52.2469 44.9842 51.6482 45.2269 50.71 45.2736C47.0331 45.4556 43.0257 45.3904 39.1075 45.3343C37.2445 45.3063 35.3994 45.2736 33.6302 45.2736C31.718 45.2736 29.7657 45.2923 27.8133 45.3157C24.0382 45.353 20.2273 45.395 16.5549 45.2783C13.7447 45.1849 13.7983 43.4159 13.9011 40.2887C13.9189 39.7006 13.9412 39.0564 13.9412 38.3796V11.5364C13.9412 10.7942 13.9279 10.1268 13.9189 9.52939C13.8698 6.84087 13.8475 5.5339 14.9822 4.81509C15.9517 4.19897 17.6852 4.2316 21.0538 4.29694C22.1707 4.31561 23.4708 4.34367 24.9808 4.34834H25.3963L25.441 4.78706ZM29.3189 4.35768L38.2721 4.37637L38.2766 16.428L28.8185 16.3159L28.8543 4.35768H29.3189ZM56.1918 44.7696C56.2812 43.8874 56.3526 43.5606 56.4018 43.3273C56.4733 42.9912 56.4911 42.8979 56.4911 40.6948L56.4866 10.3788L56.4956 9.36598C56.5179 6.78948 56.5314 5.16055 55.124 3.3542C54.5656 2.63539 53.891 2.01458 53.0376 1.57582C52.1754 1.13707 51.121 0.871016 49.7986 0.871016L41.4932 0.866344L33.1834 0.875689C31.3428 0.880356 29.453 0.852305 27.5497 0.828967C23.8639 0.777624 20.12 0.726331 16.5951 0.880361C15.4916 0.927036 14.5667 1.23977 13.7983 1.70186C12.8646 2.26197 12.1408 3.05543 11.5913 3.89092C10.5146 5.53391 10.5548 7.44764 10.6039 9.63674C10.6129 10.0988 10.6218 10.5748 10.6218 11.0743L10.6263 11.6904C10.6263 17.2682 10.6308 22.8506 10.6218 28.4284L10.6173 41.3903C10.6173 42.2491 10.7156 42.9118 10.805 43.5233C10.8764 44.0087 10.948 44.4615 10.9614 44.9562L10.9703 45.3624L10.586 45.4464C7.00746 46.1932 4.23305 48.1395 2.42812 50.66C1.40056 52.0929 0.681266 53.7172 0.305983 55.4116C-0.0692989 57.1059 -0.105005 58.8796 0.230068 60.6113C0.784057 63.5145 2.38349 66.3197 5.1579 68.4901C6.68136 69.6803 8.08867 70.3152 9.67915 70.6466C11.2964 70.9873 13.1282 71.02 15.4647 71.02C27.3397 71.006 39.2147 71.0107 51.0853 71.0153L67.7407 71.02C68.7995 71.02 70.4079 71.0526 72.2619 71.0853C79.2493 71.2253 89.8689 71.4353 92.9472 70.2218L93.3671 70.0444C95.8645 68.9382 98.2994 66.7584 99.7782 63.9392C101.248 61.1293 101.762 57.6754 100.435 53.9974L100.234 53.4839C99.6263 51.9856 98.7863 50.6694 97.7767 49.5492C96.7134 48.3636 95.4669 47.402 94.1177 46.6785C91.2628 45.1522 88.3321 45.2129 84.8786 45.2829C84.1414 45.3016 83.3774 45.3157 82.5822 45.3157L75.4831 45.3437C69.1971 45.367 62.8978 45.395 56.6475 45.3063L56.1337 45.3016L56.1918 44.7696Z" fill="#FEFEFE"/>
<path id="Vector_2" fill-rule="evenodd" clip-rule="evenodd" d="M70.1934 13.2259L99.0409 13.2166L98.9695 9.75797L70.2023 9.7533L70.1934 13.2259Z" fill="#FEFEFE"/>
<path id="Vector_3" fill-rule="evenodd" clip-rule="evenodd" d="M70.2913 24.3768C72.5251 24.4235 74.8081 24.4048 77.0688 24.3908L80.3659 24.3675C80.9243 24.3675 81.724 24.3489 82.631 24.3302C85.2356 24.2742 88.7517 24.1995 90.5253 24.4375L90.4717 20.8808L70.2109 20.8855L70.2913 24.3768Z" fill="#FEFEFE"/>
<path id="Vector_4" fill-rule="evenodd" clip-rule="evenodd" d="M11.2787 54.4267C9.44237 55.0988 8.66049 56.4245 8.59794 57.7875C8.57114 58.3383 8.66051 58.8984 8.83922 59.4212C9.02241 59.9487 9.29939 60.4482 9.64788 60.8683C10.5146 61.9138 11.8371 62.4879 13.2668 61.9418C15.1121 61.2416 15.9029 59.9067 15.9744 58.5437C16.0012 57.9976 15.9163 57.442 15.7376 56.9192C15.5544 56.4011 15.2819 55.9111 14.9334 55.4956C14.0666 54.4594 12.7352 53.8899 11.2787 54.4267Z" fill="#FEFEFE"/>
<path id="Vector_5" fill-rule="evenodd" clip-rule="evenodd" d="M87.8051 54.4827C86.0447 55.1642 85.2628 56.3918 85.1556 57.6615C85.1109 58.2169 85.1869 58.7864 85.3656 59.3232C85.5488 59.86 85.8303 60.3688 86.1922 60.8029C87.0589 61.8345 88.368 62.432 89.7665 61.9885L89.8111 61.9745C90.5751 61.7224 91.4106 61.0783 91.9735 60.2101C92.5276 59.3652 92.809 58.3056 92.4874 57.1947L92.4248 57.0033C92.1389 56.2005 91.5134 55.3836 90.7047 54.8514C89.9139 54.3333 88.9488 54.0953 87.948 54.4267L87.8051 54.4827Z" fill="#FEFEFE"/>
<path id="Vector_6" fill-rule="evenodd" clip-rule="evenodd" d="M70.2967 35.4669L82.0064 35.4156L81.9751 31.9896H70.2163L70.2967 35.4669Z" fill="#FEFEFE"/>
<path id="Vector_7" fill-rule="evenodd" clip-rule="evenodd" d="M65.9312 59.9113L69.3535 59.916L69.2687 56.4571L65.9312 56.4479V59.9113Z" fill="#FEFEFE"/>
<path id="Vector_8" fill-rule="evenodd" clip-rule="evenodd" d="M31.8877 59.9067L35.1984 59.916L35.2207 56.4524L31.8877 56.4479V59.9067Z" fill="#FEFEFE"/>
<path id="Vector_9" fill-rule="evenodd" clip-rule="evenodd" d="M57.4206 59.8506L60.7134 59.9207L60.7402 59.1925L60.7268 56.4479H58.2159L57.4116 56.4665L57.4206 59.8506Z" fill="#FEFEFE"/>
<path id="Vector_10" fill-rule="evenodd" clip-rule="evenodd" d="M40.4297 59.9113L43.7225 59.902L43.7359 56.5085L40.4297 56.4479V59.9113Z" fill="#FEFEFE"/>
<path id="Vector_11" fill-rule="evenodd" clip-rule="evenodd" d="M48.9229 59.8786L52.2157 59.9113L52.2336 56.4851L48.9185 56.4524L48.9229 59.8786Z" fill="#FEFEFE"/>
<path id="Vector_12" fill-rule="evenodd" clip-rule="evenodd" d="M61.7093 13.2308L64.9797 13.2214L64.9709 9.77197L61.6602 9.8326L61.7093 13.2308Z" fill="#FEFEFE"/>
<path id="Vector_13" fill-rule="evenodd" clip-rule="evenodd" d="M44.8303 39.7705L47.864 39.7613V36.5638L44.8169 36.5591L44.8303 39.7705Z" fill="#FEFEFE"/>
<path id="Vector_14" fill-rule="evenodd" clip-rule="evenodd" d="M61.8433 24.1482L64.8412 24.1763L64.8724 21.0162H61.8477L61.8433 24.1482Z" fill="#FEFEFE"/>
<path id="Vector_15" fill-rule="evenodd" clip-rule="evenodd" d="M61.8389 35.2665L64.877 35.2992L64.8725 32.1671H61.8522L61.8389 35.2665Z" fill="#FEFEFE"/>
<path id="Vector_16" fill-rule="evenodd" clip-rule="evenodd" d="M36.2661 37.4553V39.2945L36.2795 39.7286L39.2998 39.7379L39.3042 36.6384L36.2705 36.5965L36.2661 37.4553Z" fill="#FEFEFE"/>
<path id="Vector_17" fill-rule="evenodd" clip-rule="evenodd" d="M44.8303 30.7715L47.864 30.7575V27.56H44.8169L44.8303 30.7715Z" fill="#FEFEFE"/>
</g>
</svg>
