<svg width="178" height="20" viewBox="0 0 178 20" fill="none" xmlns="http://www.w3.org/2000/svg">
<path d="M160.788 11.6313H0.29834V8.2918H160.788V11.6313ZM160.075 15.1443L161.568 18.1288L159.151 16.6366V9.96023H162.49V16.6366L160.075 15.1443ZM159.151 16.6366L161.568 18.1288L159.151 19.3355V16.6366ZM173.431 11.4551L174.927 8.46797V11.4551L161.568 18.1288L160.075 15.1443L173.431 8.46797V11.4551ZM174.927 11.4551V8.46797L177.914 9.96023L174.927 11.4551ZM162.49 3.28652H159.151L161.568 1.79426L174.927 8.46797L173.431 11.4551L160.075 4.77876L162.49 3.28652ZM161.568 1.79426L159.151 3.28652V0.587646L161.568 1.79426ZM160.82 9.96023H159.151V3.28652H162.49V9.96023H160.82Z" fill="#E31E24"/>
</svg>
