<svg width="182" height="340" viewBox="0 0 182 340" fill="none" xmlns="http://www.w3.org/2000/svg">
<path fill-rule="evenodd" clip-rule="evenodd" d="M0.0703125 0H181.056V339.34H175.4C175.4 336.217 172.866 333.683 169.743 333.683C166.62 333.683 164.087 336.217 164.087 339.34H152.776C152.776 336.217 150.245 333.683 147.12 333.683C143.997 333.683 141.466 336.217 141.466 339.34H130.153C130.153 336.217 127.622 333.683 124.499 333.683C121.373 333.683 118.842 336.217 118.842 339.34H107.529C107.529 336.217 104.998 333.683 101.875 333.683C98.7497 333.683 96.2186 336.217 96.2186 339.34H84.9081C84.9081 336.217 82.3743 333.683 79.2515 333.683C76.1286 333.683 73.595 336.217 73.595 339.34H62.2845C62.2845 336.217 59.7508 333.683 56.6279 333.683C53.5051 333.683 50.974 336.217 50.974 339.34H39.6608C39.6608 336.217 37.1299 333.683 34.0044 333.683C30.8815 333.683 28.3505 336.217 28.3505 339.34H17.0373C17.0373 336.217 14.5062 333.683 11.3834 333.683C8.25788 333.683 5.72678 336.217 5.72678 339.34H0.0703125V0Z" fill="#E31E24"/>
<path fill-rule="evenodd" clip-rule="evenodd" d="M90.5624 67.8733L94.3961 99.6026L104.753 69.3633L101.889 101.193L118.319 73.7621L108.887 104.3L130.676 80.8794L115.086 108.796L141.279 90.4061L120.214 114.477L149.664 101.925L125.825 119.766L126.552 120.606L155.466 114.931L126.412 128.37L158.433 128.856L127.213 135.974L151.419 141.493L148.124 142.75L143.942 143.313L126.412 143.577L132.079 146.198L126.111 148.338L58.5517 164.834L54.1898 165.154L60.9138 157.471L31.4632 170.023L57.0829 150.85L25.6613 157.016L54.7156 143.577L22.6943 143.091L53.915 135.974L22.6943 128.856L54.7156 128.37L25.6613 114.931L57.0829 121.1L31.4632 101.925L60.9138 114.477L39.849 90.4061L66.0419 108.796L50.4514 80.8794L72.2374 104.3L62.8054 73.7621L79.2388 101.193L76.3749 69.3633L86.7315 99.6026L90.5624 67.8733Z" fill="#FEFEFE"/>
<path fill-rule="evenodd" clip-rule="evenodd" d="M77.9049 132.381C78.037 132.484 78.1242 132.666 78.0476 132.917L70.0714 142.293C67.1097 146.071 64.6262 148.153 63.4214 153.056C62.6394 156.242 63.4849 160.356 64.8561 162.741L106.315 152.641L121.969 148.861C123.657 144.016 125.308 139.87 126.951 134.853L130.33 124.024C130.452 123.62 130.875 122.458 130.819 122.119C130.766 121.81 130.177 120.817 129.966 120.622C129.963 120.622 126.896 120.225 126.338 120.883C126.032 121.314 125.432 123.374 125.21 123.993L124.119 127.158C123.897 127.628 123.279 127.699 122.774 127.884C119.216 129.194 112.69 132.262 109.485 133.995C108.986 134.267 107.015 135.424 106.613 135.49C105.968 133.76 105.295 132.045 104.584 130.27C104.18 129.255 102.603 125.718 102.531 124.854C103.636 123.971 106.5 118.569 106.555 116.669L101.472 111.702C98.975 109.375 99.7387 110.355 99.0359 106.572C98.4573 103.441 98.3199 104.564 100.579 101.225C101.279 100.192 101.976 99.1587 102.642 98.2076C104.507 95.534 103.821 95.8906 105.009 93.0057C105.202 92.5354 105.134 92.0361 105.044 91.5024C104.922 90.7838 104.906 90.7521 103.916 90.0573C102.589 89.1247 100.402 87.6215 100.13 87.5316C98.761 87.0957 99.5405 87.4312 98.2433 86.7153C97.8708 86.5092 97.7677 86.4405 97.2551 86.3533C96.5708 86.2397 96.5656 86.4458 96.1297 86.5198C94.9434 86.7153 91.8231 83.7669 90.2167 85.7695C89.2128 85.8223 89.2022 86.1473 88.8165 86.7734C87.8046 87.1697 88.2854 86.9715 87.7464 87.7615C87.0489 87.5369 86.23 86.7153 85.4638 86.5383C85.1468 86.6492 84.9538 86.8395 84.6738 86.9848C84.436 87.1089 83.8997 87.2648 83.6805 87.3361C81.44 88.0706 79.6514 88.4193 77.3713 89.0164L77.2128 90.4007L78.1956 90.8736C78.3356 91.7058 78.082 93.0347 78.0687 93.896C78.0423 95.8219 78.6341 98.5722 77.6777 99.6976C76.5707 101.003 77.403 100.733 77.4717 101.882C76.2432 103.217 74.8032 104.067 73.1704 104.937C72.1718 105.468 72.3356 105.187 72.1322 106.4C71.979 107.306 72.3963 107.409 72.3937 108.416L72.428 115.885C72.4544 121.005 72.3937 119.559 74.9432 123.192C75.5641 124.077 75.5589 123.678 75.2577 124.891C74.8826 126.402 73.7967 129.702 73.6963 130.88C74.9908 131.451 76.4835 132 77.9049 132.381Z" fill="#E31E24"/>
<path fill-rule="evenodd" clip-rule="evenodd" d="M126.338 120.88C126.032 121.316 125.432 123.374 125.21 123.993L124.119 127.158C123.897 127.628 123.279 127.699 122.774 127.884C119.216 129.195 112.69 132.262 109.485 133.998C108.986 134.267 107.015 135.424 106.613 135.49C105.968 133.76 105.295 132.045 104.584 130.27C104.18 129.255 102.603 125.718 102.531 124.854C103.636 123.971 106.5 118.569 106.555 116.669L101.472 111.702C98.9751 109.375 99.7387 110.355 99.0359 106.572C98.4573 103.441 98.3199 104.564 100.579 101.225C101.279 100.192 101.976 99.1587 102.642 98.2076C104.507 95.534 103.821 95.8907 105.009 93.0057C105.202 92.5355 105.134 92.0361 105.044 91.5025C104.922 90.7839 104.906 90.7522 103.916 90.0574C102.589 89.1248 100.402 87.6215 100.13 87.5317C98.761 87.0958 99.5405 87.4313 98.2433 86.7153C97.8708 86.5093 97.7677 86.4406 97.2551 86.356C96.5708 86.2398 96.5656 86.4459 96.1297 86.5198C94.9434 86.7153 91.8231 83.767 90.2168 85.7695C89.2128 85.8224 89.2023 86.1473 88.8165 86.7735C87.8046 87.1697 88.2854 86.9716 87.7464 87.7615C87.049 87.537 86.23 86.7153 85.4638 86.5383C85.1468 86.6493 84.9539 86.8395 84.6738 86.9848C84.436 87.109 83.8998 87.2649 83.6805 87.3362C81.44 88.0706 79.6514 88.4194 77.3714 89.0164L77.2128 90.4008L78.1956 90.8737C78.3356 91.7059 78.082 93.0348 78.0688 93.896C78.0424 95.822 78.6342 98.5722 77.6778 99.6977C76.5708 101.003 77.403 100.733 77.4717 101.883C76.2432 103.217 74.8032 104.067 73.1705 104.937C72.1718 105.468 72.3357 105.188 72.1322 106.4C71.979 107.306 72.3964 107.409 72.3937 108.416L72.428 115.885C72.4545 121.005 72.3937 119.56 74.9432 123.192C75.5641 124.077 75.5589 123.678 75.2578 124.891C74.8826 126.402 73.7967 129.702 73.6963 130.88C74.9909 131.451 76.4835 132 77.9049 132.381C78.037 132.484 78.1242 132.666 78.0476 132.917L70.0714 142.293C67.1097 146.071 64.6262 148.153 63.4214 153.056C62.6394 156.242 63.4849 160.356 64.8561 162.741L106.315 152.641L121.969 148.861C123.657 144.016 125.308 139.87 126.951 134.854L130.331 124.024C130.452 123.62 130.875 122.458 130.819 122.12C130.766 121.81 130.177 120.817 129.966 120.622C129.963 120.622 126.896 120.225 126.338 120.88ZM68.8429 141.255L75.5747 133.345L75.2947 133.245C74.5073 132.965 73.7438 132.661 73.0489 132.354L71.9948 131.889L72.0899 130.748C72.1692 129.834 72.6897 128.043 73.152 126.463C73.366 125.723 73.5668 125.036 73.6963 124.508L73.7543 124.291L73.6275 124.117C73.078 123.332 72.6897 122.833 72.3859 122.444C71.7676 121.655 71.411 121.197 71.1573 120.46C70.8429 119.546 70.8376 118.556 70.8244 116.204C70.8112 113.607 70.7874 111.008 70.7874 108.411C70.7874 108.207 70.7398 108.057 70.6976 107.922C70.5391 107.436 70.3991 107.005 70.547 106.136L70.6051 105.787C70.6975 105.195 70.7424 104.908 71.041 104.487C71.3501 104.052 71.5985 103.93 72.0793 103.69L72.4149 103.521V103.515C73.2154 103.087 73.9525 102.678 74.5734 102.258C74.9353 102.009 75.2868 101.742 75.6223 101.447C75.2657 100.691 75.2233 100.105 76.4518 98.6594C76.716 98.3477 76.6263 97.0293 76.5417 95.7691C76.4968 95.1404 76.4545 94.5222 76.4651 93.8775C76.4704 93.4839 76.51 93.085 76.5496 92.6676C76.5734 92.4086 76.5998 92.1418 76.6157 91.8961L75.4822 91.3519L75.8997 87.7404L76.9698 87.4604C77.699 87.2701 78.3832 87.1037 79.049 86.9399C80.4069 86.6097 81.6831 86.2979 83.1838 85.8065C83.2049 85.796 83.3529 85.7484 83.3661 85.7484C83.5748 85.685 83.8865 85.5872 83.9314 85.5635C83.9684 85.5423 84.0265 85.5053 84.0846 85.4657L84.0821 85.4631C84.3146 85.3098 84.5444 85.1593 84.9354 85.0219L85.3739 84.866L85.8231 84.9717C86.4044 85.1064 86.8853 85.3812 87.3397 85.6744C87.4454 85.6057 87.5616 85.5503 87.7043 85.4869C88.0979 84.8105 88.4229 84.3984 89.4612 84.232C91.2208 82.6547 93.3185 83.6587 95.049 84.4856C95.5114 84.7075 95.7677 84.9294 95.8602 84.9347V84.9321L95.8655 84.9294C95.8628 84.9294 95.8602 84.9268 95.8655 84.9241V84.9294C96.2697 84.763 96.629 84.6203 97.5193 84.7683C98.2723 84.8951 98.4573 84.9955 98.9646 85.2781L99.0173 85.3072V85.3046C99.4374 85.5371 99.5986 85.6295 99.7043 85.6929V85.6982C99.7835 85.7458 99.7704 85.7458 99.7968 85.759H99.8046C99.8284 85.7669 99.8231 85.759 99.9103 85.7854C100.008 85.8144 100.159 85.8594 100.613 86.0047C100.891 86.0919 101.48 86.4485 102.172 86.9108C103.009 87.4656 104.074 88.2027 104.84 88.7417C105.464 89.1802 105.789 89.4206 106.077 89.7905C106.46 90.2872 106.523 90.6148 106.629 91.2383C106.684 91.558 106.732 91.875 106.737 92.2528C106.745 92.7045 106.682 93.1563 106.494 93.616C106.122 94.5195 105.942 95.1192 105.797 95.5948C105.482 96.6357 105.316 97.1799 103.958 99.1244C103.757 99.415 103.398 99.9381 102.951 100.591L101.91 102.12L101.913 102.123C101.472 102.775 101.115 103.27 100.832 103.658C100.476 104.152 100.283 104.416 100.267 104.469C100.267 104.477 100.322 104.76 100.444 105.367V105.372C100.47 105.513 100.497 105.645 100.616 106.284C100.782 107.172 100.867 107.798 100.933 108.271C100.996 108.738 101.033 109 101.075 109.087C101.123 109.193 101.395 109.444 102.011 110.012C104.109 111.956 106.135 114.012 108.182 116.011L108.161 116.714C108.127 117.845 107.419 119.737 106.55 121.507C105.844 122.939 104.996 124.362 104.291 125.282C104.579 126.122 105.218 127.633 105.659 128.677C105.855 129.142 106.019 129.53 106.077 129.673C106.41 130.505 106.75 131.369 107.12 132.317L107.493 133.276L108.724 132.579C110.423 131.662 113.076 130.357 115.747 129.128C118.143 128.027 120.529 126.996 122.222 126.373C122.41 126.304 122.534 126.267 122.658 126.23H122.666C122.936 126.148 123.496 124.043 123.699 123.451C123.736 123.351 123.829 123.06 123.939 122.722C124.246 121.765 124.666 120.463 125.023 119.956L125.118 119.842C125.636 119.235 126.497 118.984 127.414 118.918C128.69 118.828 130.523 119.118 130.526 119.118L130.832 119.235L131.06 119.446C131.282 119.652 131.622 120.135 131.879 120.587C132.124 121.02 132.346 121.515 132.405 121.861C132.51 122.511 132.188 123.507 131.971 124.17C130.777 127.882 129.699 131.652 128.481 135.35C127.482 138.396 126.494 141.091 125.498 143.807C124.806 145.699 124.106 147.603 123.485 149.389L123.197 150.216L106.692 154.203L64.0582 164.588L63.4585 163.539C62.6447 162.123 61.9975 160.187 61.6963 158.163C61.4268 156.332 61.4373 154.401 61.8627 152.673C62.9089 148.412 64.7821 146.169 67.0832 143.411C67.6671 142.711 68.2827 141.976 68.8058 141.308L68.8429 141.255ZM95.8707 84.9347C95.9024 84.9294 95.8786 84.9294 95.8681 84.9294L95.8707 84.9347Z" fill="#FEFEFE"/>
<path fill-rule="evenodd" clip-rule="evenodd" d="M94.9596 116.926C95.8314 117.129 97.2581 117.132 98.3836 117.351L100.975 121.293C101.224 121.668 101.612 122.376 101.958 122.622C102.738 122.088 104.827 117.903 104.666 117.301C104.64 117.203 95.0547 107.28 94.6399 107.074C94.5052 107.941 94.2462 111.325 94.3069 112.112L94.9596 116.926Z" fill="#FEFEFE"/>
<path fill-rule="evenodd" clip-rule="evenodd" d="M94.854 130.331C95.8923 130.793 95.5145 129.879 96.4392 130.151C96.6241 130.206 96.8804 130.299 97.2529 130.444C98.6981 131.007 96.9596 132.101 99.0838 133.165C99.2 133.223 99.1921 133.194 99.2872 133.266C100.014 133.815 100.014 137.805 100.426 139.202C101.02 139.03 103.171 137.63 103.816 137.247C104.481 136.853 105.06 136.756 105.1 135.802C105.126 135.181 104.965 134.74 104.608 134.473C103.979 134.003 103.824 134.544 104.03 133.337C104.112 132.869 104.172 132.434 103.726 131.958C103.237 131.438 102.666 131.35 102.201 130.822C102.024 129.934 102.41 129.144 102.249 128.354C102.093 127.599 101.435 127.398 101.028 126.983C100.907 126.048 101.131 126.096 100.738 125.232C97.9821 125.314 95.1841 127.398 94.5157 129.361C94.2726 130.074 94.2727 130.069 94.854 130.331Z" fill="#FEFEFE"/>
<path fill-rule="evenodd" clip-rule="evenodd" d="M89.2652 99.4653C89.3339 100.34 90.9033 102.99 91.2679 104.06C91.2547 104.268 89.2838 106.54 89.2178 106.757C89.2627 108.136 89.9734 108.892 89.696 110.469C89.4107 112.091 89.3287 112.762 89.5347 114.508C89.6985 115.887 90.0632 121.863 90.412 122.553C90.6788 122.764 91.1332 122.936 91.577 122.965C91.6563 121.176 91.865 119.219 92.0711 117.412C92.2877 115.507 92.3379 113.673 92.5731 111.771L93.3472 103.436C93.4212 102.606 93.6009 101.352 93.5481 100.543C92.1082 100.171 90.7553 98.8233 89.2652 99.4653Z" fill="#FEFEFE"/>
<path fill-rule="evenodd" clip-rule="evenodd" d="M80.8955 104.371C81.1359 104.873 82.1478 105.462 82.5415 106.03C82.6234 107.251 82.5758 107.074 82.9774 107.998L85.2944 113.047C85.5903 113.684 85.8705 114.006 85.8757 114.846C85.8837 115.782 85.984 119.943 86.1715 120.677C86.3036 121.195 86.2483 121.308 86.531 121.61C86.7053 121.071 87.2812 114.82 87.1068 113.821C86.9721 113.052 86.8031 112.228 86.6419 111.496C85.9523 108.363 85.453 105.158 84.7582 102.067C84.3804 102.057 83.6564 102.062 83.2998 102.133C82.671 102.26 81.1941 103.864 80.8955 104.371Z" fill="#FEFEFE"/>
<path fill-rule="evenodd" clip-rule="evenodd" d="M86.058 132.378C85.8361 131.871 85.519 131.72 85.5428 131.028C85.6141 129.123 87.7806 130.88 87.8414 129.784C87.8731 129.247 86.729 126.981 85.3948 126.431C84.2059 125.942 83.8651 126.312 83.2918 126.782C82.7423 127.232 80.9694 128.624 80.8928 129.158C80.7686 130 81.3182 131.651 81.7673 132.132C81.9179 132.293 82.1135 132.378 82.3196 132.513C82.8216 132.84 83.3341 133.482 84.0236 133.702C85.239 134.087 86.0713 133.81 86.058 132.378Z" fill="#FEFEFE"/>
<path fill-rule="evenodd" clip-rule="evenodd" d="M106.687 140.201C107.073 140.726 107.306 140.557 108.104 140.135C110.732 138.745 116.666 135.276 122.463 134.526L122.524 131.662C120.389 131.847 112.241 135.99 109.977 137.287C109.446 137.591 107.911 138.518 106.954 139.152C106.22 139.638 106.352 139.741 106.687 140.201Z" fill="#FEFEFE"/>
<path fill-rule="evenodd" clip-rule="evenodd" d="M124.685 129.551C124.949 129.884 125.205 130.151 125.409 130.486C125.792 131.895 123.29 137.448 122.867 139.273C123.298 139.334 123.76 139.123 124.077 138.938C124.444 138.637 127.765 128.296 128.368 126.418C128.598 125.702 128.836 125.031 129.063 124.32C129.39 123.306 129.559 123.227 129.303 122.051L127.454 121.982C126.88 122.751 124.73 129.036 124.685 129.551Z" fill="#FEFEFE"/>
<path fill-rule="evenodd" clip-rule="evenodd" d="M82.6374 88.5831C82.6506 89.5448 83.2846 90.3876 83.5858 91.3201C84.0931 92.9 83.6757 92.9951 83.0152 94.0334C82.4498 94.9158 80.5503 97.9777 80.9386 99.3542C81.4142 99.3595 81.7365 98.736 81.9426 98.4639C82.8858 97.2327 87.5462 90.8446 87.8183 89.9543L85.8871 87.9993L82.6374 88.5831Z" fill="#FEFEFE"/>
<path fill-rule="evenodd" clip-rule="evenodd" d="M108.766 143.741C108.983 144.029 109.218 144.208 109.498 144.037C114.175 141.395 116.954 140.198 121.165 139.17L121.29 136.576C118.357 136.983 112.227 140.473 108.98 142.827C108.33 143.3 108.444 143.318 108.766 143.741Z" fill="#FEFEFE"/>
<path fill-rule="evenodd" clip-rule="evenodd" d="M77.5137 123.25C78.2349 124.156 78.0263 123.047 79.1016 124.289L78.7026 125.107L78.8823 125.477C79.7409 125.652 80.2218 125.464 80.3222 126.465C79.955 127.189 79.3605 127.49 79.8625 128.394C80.4305 128.389 81.6696 127.308 81.9867 127.033C82.235 126.817 82.6736 126.373 82.8559 126.14C83.1227 125.794 83.4001 125.48 83.4186 124.851C82.9404 124.362 81.5164 121.507 80.7952 120.59C80.3328 120.648 79.3447 121.372 78.8797 121.641C78.3856 121.927 77.6616 122.709 77.5137 123.25Z" fill="#FEFEFE"/>
<path fill-rule="evenodd" clip-rule="evenodd" d="M76.4439 115.256C76.4281 115.655 76.4862 115.99 76.3673 116.334C76.2273 116.749 76.0054 116.754 76.1692 117.293C76.3039 117.734 76.9328 118.321 77.1573 118.791C77.1864 119.121 76.3885 119.742 76.5972 120.389C76.6025 120.405 76.7028 120.63 76.7213 120.68C76.8878 121.042 76.8587 121.005 77.2973 120.91C78.2379 120.704 79.5192 120.056 80.288 119.826C80.3224 118.677 80.193 115.475 79.4083 114.677C79.1706 114.434 79.049 114.516 78.7716 114.281C78.3409 113.919 78.3621 113.605 77.8126 114.02C77.3449 114.371 76.7874 115.002 76.4439 115.256Z" fill="#FEFEFE"/>
<path fill-rule="evenodd" clip-rule="evenodd" d="M99.9948 91.4126C101.707 92.0599 100.946 92.0916 100.201 94.4138C100.037 94.929 100.182 95.2222 99.6883 95.4679C99.2576 95.6819 98.9036 95.6 98.5442 95.9699C98.4253 97.1799 99.8256 96.382 100.354 96.1257C100.967 95.8299 101.561 95.4943 102.248 95.0188C104.153 93.7058 103.937 93.4046 103.712 90.7732C103.049 90.4589 100.441 88.5593 99.9419 88.5593C99.6935 89.307 99.9393 90.6306 99.9948 91.4126Z" fill="#FEFEFE"/>
<path fill-rule="evenodd" clip-rule="evenodd" d="M120.135 141.503C117.828 142.021 112.753 144.668 111.21 146.227C111.355 146.473 111.826 146.811 112.148 146.811C112.32 146.813 112.97 146.475 113.215 146.362C115.26 145.426 117.675 144.581 120.011 144.098L120.135 141.503Z" fill="#FEFEFE"/>
<path fill-rule="evenodd" clip-rule="evenodd" d="M74.0264 106.342L75.5773 108.036C75.9129 108.403 76.8375 109.423 77.2709 109.687L78.666 107.019C78.9038 106.538 79.2868 106.086 79.0649 105.489C78.8773 104.984 78.7214 104.427 78.4096 104.067C77.757 104.279 76.8085 104.826 76.1744 105.148C75.675 105.402 74.2853 105.975 74.0264 106.342Z" fill="#FEFEFE"/>
<path fill-rule="evenodd" clip-rule="evenodd" d="M88.428 92.6017C87.1994 92.8421 87.3658 92.3824 86.7555 93.4233C86.4305 93.9755 86.0448 94.5515 85.873 95.0376C86.058 95.3837 86.4332 95.7166 86.8242 96.0601C87.601 96.7417 88.6658 96.422 89.6698 96.3111C90.0371 96.2688 90.1243 96.2688 90.2247 95.8249C90.3515 95.2754 90.1296 95.2701 89.7227 95.0561L89.7676 94.4854C89.7914 94.1843 89.7941 94.171 89.5246 93.9887C89.3026 93.8381 89.144 93.6928 89.4611 93.4973C89.646 93.3837 90.938 93.3124 90.0952 92.5013C89.7728 92.1922 89.6064 91.9227 89.292 91.6188C88.5865 90.9346 88.6816 92.1842 88.428 92.6017Z" fill="#FEFEFE"/>
<path fill-rule="evenodd" clip-rule="evenodd" d="M91.6698 92.8579C91.7041 93.7007 91.2867 94.1234 91.2709 94.9556C91.8759 95.4259 91.7253 95.9675 91.6566 96.842C92.5311 96.5963 92.6103 95.8777 94.0926 95.3704C94.2247 95.3255 94.1984 95.3546 94.3199 95.2832C94.6343 95.1009 94.4018 94.9821 94.9091 93.8962C94.563 93.3836 93.8601 93.0111 93.3766 92.4431L93.3899 91.4708C92.8139 91.4655 92.3963 91.5369 91.8573 91.4629C91.395 91.3995 90.9564 91.2832 90.502 91.3651C90.642 91.4655 91.4425 92.5197 91.6698 92.8579Z" fill="#FEFEFE"/>
<path fill-rule="evenodd" clip-rule="evenodd" d="M90.6498 86.5067C89.3024 86.578 90.058 86.4618 89.3975 87.2464C89.1068 87.5899 88.9325 87.4181 88.6815 87.6691C88.3644 87.9862 88.1901 88.9452 88.4067 89.3943L89.0117 89.4603L89.4794 88.7787C90.3856 89.3679 90.6974 88.8976 90.8982 88.0258L91.6855 88.1024L92.1347 87.3917C93.0435 87.3891 94.9564 88.6281 94.9907 87.0271C94.3329 86.3772 92.2852 85.7987 91.5824 85.8092C90.9087 85.8198 90.9114 86.121 90.6498 86.5067Z" fill="#FEFEFE"/>
<path fill-rule="evenodd" clip-rule="evenodd" d="M96.4417 87.1274C96.5738 87.735 96.9966 87.8328 96.8433 88.4537C96.3994 90.2635 95.5777 90.5779 94.2672 91.167L94.2646 91.7509C94.7799 91.7298 95.9133 91.3942 96.2039 91.1485C96.912 90.5462 98.2965 88.8605 97.9556 87.8407C97.6359 86.8817 96.8433 86.8526 96.4417 87.1274Z" fill="#FEFEFE"/>
<path fill-rule="evenodd" clip-rule="evenodd" d="M84.0264 97.8325L84.8427 100.559C85.1942 100.324 86.5072 99.1958 86.893 98.8735C86.6341 98.5987 85.3553 97.4019 85.0488 97.2407L84.0264 97.8325Z" fill="#FEFEFE"/>
<path fill-rule="evenodd" clip-rule="evenodd" d="M92.3382 88.562L92.3567 89.4708C91.9736 89.4735 90.5416 89.4365 90.4781 89.9834C90.4332 90.3691 90.7106 90.3427 91.8996 90.459C92.3038 90.4986 92.9036 90.4246 93.2577 90.2687C93.9526 89.9623 94.4228 89.1221 93.7728 88.3083L92.3382 88.562Z" fill="#FEFEFE"/>
<path fill-rule="evenodd" clip-rule="evenodd" d="M71.7942 161.056L68.8061 161.777C68.8167 160.665 68.5789 159.563 68.526 158.409C68.4732 157.228 68.4548 156.11 68.468 154.887C68.497 152.623 68.9092 150.57 69.5248 148.679L70.3174 148.76L70.2276 152.591C70.793 152.567 72.6529 151.363 73.2817 150.98C73.781 150.676 73.8735 150.723 73.9422 150.01C74.1192 148.166 74.4257 146.182 74.8431 144.457L75.4984 144.499L75.5327 149.394C76.1615 149.265 77.8762 147.754 78.4918 147.273C78.9938 146.879 79.0625 146.974 79.155 146.177C79.2844 145.049 79.8286 140.98 80.2434 140.32C80.8854 140.285 80.8643 140.489 80.8088 141.086C80.7137 142.071 80.6001 144.454 80.7692 145.292L82.3411 143.754C82.6899 143.403 82.7718 143.289 83.0994 142.961C83.4323 142.629 83.6543 142.494 83.7521 141.947C83.9687 140.726 84.3544 137.361 84.8616 136.528L85.4006 136.515C85.3848 137.715 85.0624 139.125 85.2025 140.438C85.7864 139.884 88.394 136.28 88.5763 135.49C85.929 131.216 91.4878 132.209 91.6199 134.867C91.7045 136.563 90.0004 136.071 89.8023 136.288C89.4667 137.21 89.5063 139.804 89.6014 140.967C89.7361 142.623 90.0136 143.778 90.3307 145.268L92.0982 142.726C94.1986 139.162 93.5434 140.243 92.978 139.096C92.2514 137.625 93.5513 136.576 95.0916 137.297C96.55 137.981 97.5407 140.534 94.9436 140.578C95.1444 142.671 96.0506 144.599 96.55 146.583C97.1392 146.013 98.2752 144.1 98.4733 143.374C98.2118 142.906 97.4271 142.124 97.9661 141.228C98.7323 139.952 101.327 140.935 101.53 142.56C101.662 143.622 100.952 143.942 100.037 144.029C100.317 145.043 101.837 147.321 102.568 148.258C102.883 147.841 103.461 146.819 103.665 146.359C101.881 145.244 102.946 142.74 105.232 143.857C106.193 144.327 106.759 145.553 106.257 146.367C105.95 146.861 105.031 146.93 104.355 146.747C104.096 147.218 103.462 148.996 103.462 149.389C103.472 149.421 105.847 152.327 106.333 152.641L103.255 153.408C103.089 153.006 102.621 152.38 102.267 152.166L101.485 153.841L97.6438 154.787C97.3136 154.171 96.5261 152.818 96.1563 151.524C96.0929 151.149 95.8895 151.22 95.7231 151.503L93.9211 153.954L94.7957 155.487L85.9 157.674L85.0123 155.312C84.6266 155.603 83.4878 156.771 83.2976 157.17L83.7811 158.155L74.7718 160.335C74.46 158.181 73.9026 156.966 73.7414 154.602C72.9145 155.038 71.7044 155.828 70.8405 156.324C70.8062 157.228 71.5644 160.057 71.7942 161.056ZM92.7481 151.891L95.4086 148.768C94.8115 146.166 94.4893 143.862 93.9503 141.477C93.8869 142.142 91.929 145.656 91.5433 146.319C90.9198 147.392 90.8934 147.543 91.4535 148.811C91.8604 149.73 92.2725 151.135 92.7481 151.891ZM87.1761 152.702C87.3214 153.534 88.4918 155.983 88.9066 156.451C89.1893 156.295 90.4971 154.707 90.756 154.369C90.7401 153.962 90.1959 152.663 90.0269 152.205C89.8393 151.701 89.5222 150.343 89.2184 150.031L87.1761 152.702ZM99.0413 152.821C99.5565 152.586 101.068 150.684 101.327 150.324C101.176 149.727 100.045 147.669 99.5566 145.986C99.4271 145.543 99.2792 144.798 99.0969 144.433C98.8539 145.104 98.5209 145.912 98.2356 146.581C97.2739 148.84 96.5314 148.264 99.0413 152.821ZM80.9885 148.404C80.9885 149.408 81.2553 150.647 81.4535 151.566L82.1167 154.105C82.1986 154.256 82.2011 154.219 82.2698 154.29C82.5314 154.129 83.9529 152.821 84.2091 152.501C84.0031 151.733 83.3029 147.281 83.472 145.685L80.9885 148.404ZM75.9185 153.019C75.9317 154.676 76.6952 157.053 77.1972 158.414L79.9951 156.184C79.6463 154.816 79.1311 152.301 78.999 150.478C78.0611 151.32 76.1669 152.744 75.9185 153.019ZM86.3729 150.264C86.5288 150.066 88.6266 147.923 88.7507 147.556C88.1959 145.226 88.1087 141.273 88.357 138.903C87.6252 140.14 85.8234 142.277 85.3267 143.418C84.9119 144.37 86.0665 149.297 86.3729 150.264Z" fill="#FEFEFE"/>
<path d="M22.7686 172.818L158.423 139.738V141.897L22.7686 174.979V172.818Z" fill="#FEFEFE"/>
<path fill-rule="evenodd" clip-rule="evenodd" d="M89.3738 190.746C89.498 188.603 89.6169 186.46 89.7384 184.318L91.4267 183.906L93.7569 171.708L91.4082 172.284L91.4241 168.733C96.333 167.536 101.247 166.337 106.153 165.14L106.137 168.683L104.116 169.177L104.056 180.825C104.885 180.622 105.715 180.421 106.547 180.218L106.513 186.563L102.798 187.472L102.811 184.669L93.1044 187.036L93.0912 189.839C91.8521 190.141 90.6129 190.442 89.3738 190.746ZM44.7925 190.798L45.7172 183.409L46.9114 183.116L48.1558 189.974L44.7925 190.798ZM52.3962 193.364L49.0197 179.082L43.5217 180.455C42.5864 185.731 41.6511 191.01 40.7158 196.286L39.4556 196.603L39.5534 200.219L43.7463 199.168L44.3803 194.096L48.7132 193.033L49.564 197.715L53.807 196.648L53.704 193.033L52.3962 193.364ZM146.589 155.278L150.177 165.143L153.95 153.484L158.423 152.393L158.404 155.925L156.349 156.425L149.617 176.051L145.791 176.987L148.317 169.787L144.064 159.431L141.493 160.063L141.435 171.711L143.453 171.217L143.437 174.759L137.699 176.16L137.739 168.422L132.544 169.687L132.502 177.425L126.766 178.825L126.785 175.283L128.806 174.788L128.867 163.14L126.843 163.634L126.861 160.089L132.6 158.691L132.56 166.144L137.757 164.879L137.797 157.423L146.589 155.278ZM124.835 179.296L119.096 180.696L119.155 169.497L113.974 181.945L108.164 183.361L108.182 179.819C108.856 179.655 109.532 179.488 110.203 179.327L110.262 167.679L108.24 168.171L108.259 164.628L113.997 163.228L113.939 174.347L119.12 161.978L124.93 160.562L124.912 164.105L122.89 164.599L122.832 176.247L124.851 175.755L124.835 179.296ZM100.399 170.086L97.2946 170.844L95.0357 183.026L100.341 181.731L100.399 170.086ZM33.1808 196.814C33.7647 195.67 33.9681 194.307 33.6008 193.089C33.3023 192.093 32.5678 191.467 31.5189 191.295C30.441 191.121 29.4026 191.417 28.367 191.673C28.3538 191.676 27.9892 191.765 27.9892 191.765C27.9708 191.691 27.976 191.356 27.976 191.303L27.9787 188.804C27.9787 188.767 27.9998 188.304 28.0104 188.289C28.1055 188.27 28.2613 188.228 28.3723 188.201L29.2152 187.99C30.8664 187.581 32.2428 186.762 32.935 185.155C33.2151 184.505 33.3551 183.774 33.3578 182.955C33.3578 181.774 32.9774 180.593 31.7435 180.233C30.6075 179.903 28.7976 180.463 27.7725 181.082C27.466 181.266 27.1992 181.465 26.9139 181.679C26.9112 182.918 26.9113 184.159 26.9087 185.398L23.2125 186.318L23.223 180.413C23.223 180.413 23.6299 179.887 24.6973 179.153C26.6101 177.843 29.2547 176.741 31.5137 176.477C32.8901 176.316 34.1689 176.376 35.3604 177.153C36.0579 177.607 36.5705 178.202 36.869 178.979C37.0143 179.362 37.1227 179.761 37.194 180.178C37.3763 181.222 37.3261 182.387 37.083 183.412C36.7951 184.619 36.2164 185.747 35.3789 186.667C34.6735 187.443 33.902 187.913 33.0434 188.479C33.9258 188.474 34.5732 188.415 35.4239 188.73C36.5124 189.131 37.2152 190.191 37.5666 191.248C37.7779 191.884 37.8836 192.635 37.8809 193.501C37.8809 194.677 37.6933 195.765 37.3208 196.761C36.7158 198.397 35.799 199.733 34.4436 200.827C33.0381 201.963 31.3921 202.666 29.6484 203.099C28.1979 203.461 26.5863 203.709 25.0803 203.564C24.5044 203.509 23.0645 203.284 22.7686 202.816L22.7766 197.033L26.4727 196.114C26.47 197.353 26.4674 198.592 26.4674 199.828C29.0592 200.267 31.939 199.247 33.1808 196.814ZM84.0978 170.437C84.7054 170.289 85.2233 170.223 85.6671 170.226C88.1744 170.239 88.2695 172.442 88.259 174.345L88.2166 182.735C88.2008 185.832 88.008 188.402 84.037 189.369L79.6011 190.452C78.9194 190.616 78.3197 190.709 77.7965 190.706C76.0132 190.698 75.136 189.588 75.1518 186.532L75.1994 177.37C75.2153 173.906 76.4121 172.313 79.6961 171.51L84.0978 170.437ZM78.9933 175.222L78.9326 187.076L84.4175 185.737L84.4782 173.885L78.9933 175.222ZM64.3672 172.403L64.3248 180.794L66.8322 180.181C67.0171 180.136 67.2021 180.091 67.387 180.038C69.0356 179.56 69.5032 178.841 69.5164 176.273L69.5297 173.909C69.5376 172.223 69.2629 171.584 68.2457 171.579C67.9022 171.576 67.4715 171.647 66.9404 171.774L64.3672 172.403ZM66.959 167.785L67.6512 167.616C68.5891 167.386 69.3791 167.283 70.0422 167.285C72.9299 167.301 73.4424 169.349 73.4292 172.062L73.4108 175.851C73.3843 181.105 71.3923 182.973 67.712 183.871L64.3037 184.704L64.2747 190.283L69.4503 189.023L69.4319 192.809L58.2298 195.541L58.2509 191.755L60.3063 191.253L60.3988 173.166L58.3434 173.668L58.3619 169.88L59.453 169.613L66.959 167.785Z" fill="#FEFEFE"/>
<path d="M30.2504 228.749H25.7061V244.009H22.9082V226.229H30.2504V228.749ZM42.2583 244.009H39.3362L38.6123 240.487H34.4908L33.7932 244.009H30.8448L35.2173 226.229H37.9387L42.2583 244.009ZM38.0892 237.964L36.5648 230.525L35.0403 237.964H38.0892ZM54.2425 231.648C54.2425 233.513 53.8805 234.876 53.1566 235.743C52.43 236.609 51.2702 237.042 49.6718 237.042H47.9994V244.009H45.2015V226.229H49.6718C51.2702 226.229 52.43 226.662 53.1566 227.526C53.8805 228.393 54.2425 229.767 54.2425 231.648ZM51.0457 233.806C51.3125 233.333 51.4446 232.612 51.4446 231.648C51.4446 230.683 51.3125 229.957 51.0457 229.476C50.7788 228.993 50.2874 228.749 49.5714 228.749H47.9994V234.519H49.5714C50.2874 234.519 50.7788 234.282 51.0457 233.806ZM66.7234 244.009H63.8013L63.0774 240.487H58.9559L58.2583 244.009H55.3125L59.6824 226.229H62.4036L66.7234 244.009ZM62.5543 237.964L61.0299 230.525L59.508 237.964H62.5543ZM78.7314 244.009H75.9361V236.242H72.4645V244.009H69.6666V226.229H72.4645V233.722H75.9361V226.229H78.7314V244.009ZM90.8159 228.749H87.8172V244.009H85.022V228.749H82.0498V226.229H90.8159V228.749ZM107.667 238.913C107.667 239.964 107.585 240.778 107.418 241.362C107.252 241.943 106.953 242.453 106.52 242.884C105.77 243.634 104.605 244.009 103.022 244.009H98.602V226.229H103.049C104.628 226.229 105.778 226.594 106.494 227.328C106.911 227.743 107.202 228.218 107.368 228.749C107.535 229.283 107.619 230.023 107.619 230.974C107.619 232.337 107.276 233.37 106.594 234.07C106.311 234.353 106.002 234.562 105.669 234.694C106.068 234.876 106.393 235.093 106.644 235.344C107.326 236.044 107.667 237.233 107.667 238.913ZM104.871 238.715C104.871 237.732 104.705 237.024 104.372 236.591C104.039 236.16 103.498 235.943 102.747 235.943H101.4V241.486H102.747C103.513 241.486 104.06 241.277 104.383 240.863C104.708 240.445 104.871 239.729 104.871 238.715ZM104.821 231.148C104.821 230.282 104.668 229.666 104.359 229.302C104.05 228.934 103.529 228.749 102.797 228.749H101.4V233.571H102.797C103.513 233.571 104.029 233.378 104.346 232.995C104.663 232.612 104.821 231.996 104.821 231.148ZM121.923 244.009H118.827L114.507 234.744L118.502 226.229H121.447L117.379 234.62L121.923 244.009ZM114.457 244.009H111.659V226.229H114.457V244.009ZM133.831 226.229L129.136 240.987C128.737 242.218 128.222 243.032 127.588 243.423C126.956 243.814 125.915 244.009 124.467 244.009V241.513C125.233 241.513 125.791 241.383 126.14 241.124C126.488 240.865 126.763 240.387 126.964 239.687L127.363 238.239L123.469 226.229H126.515L128.663 234.445L130.784 226.229H133.831ZM145.289 239.288C145.239 240.971 144.75 242.236 143.817 243.084C143.017 243.835 141.994 244.21 140.745 244.21C139.297 244.21 138.148 243.7 137.3 242.686C136.75 242.02 136.396 241.166 136.237 240.126C136.079 239.085 136 237.415 136 235.119C136 232.821 136.079 231.151 136.237 230.113C136.396 229.072 136.75 228.218 137.3 227.553C138.148 226.536 139.297 226.028 140.745 226.028C142.01 226.028 143.051 226.411 143.865 227.178C144.766 227.994 145.239 229.241 145.289 230.924H142.494C142.459 230.123 142.319 229.55 142.068 229.201C141.802 228.768 141.36 228.551 140.745 228.551C140.145 228.551 139.704 228.776 139.421 229.225C139.173 229.624 139.006 230.261 138.922 231.135C138.84 232.01 138.798 233.338 138.798 235.119C138.798 236.9 138.84 238.229 138.922 239.1C139.006 239.975 139.173 240.612 139.421 241.013C139.704 241.462 140.145 241.687 140.745 241.687C141.36 241.687 141.802 241.47 142.068 241.037C142.319 240.654 142.459 240.073 142.494 239.288H145.289ZM158.697 244.009H155.775L155.051 240.487H150.93L150.23 244.009H147.284L151.654 226.229H154.375L158.697 244.009ZM154.526 237.964L153.004 230.525L151.479 237.964H154.526Z" fill="#FEFEFE"/>
<path d="M34.5119 310.709C34.4458 312.9 33.8064 314.548 32.5937 315.652C31.5527 316.627 30.2186 317.116 28.5938 317.116C26.7074 317.116 25.2119 316.456 24.1049 315.132C23.3889 314.265 22.9292 313.153 22.7232 311.798C22.5171 310.445 22.4141 308.271 22.4141 305.278C22.4141 302.287 22.5171 300.113 22.7232 298.757C22.9292 297.402 23.3889 296.293 24.1049 295.423C25.2119 294.102 26.7074 293.442 28.5938 293.442C30.2398 293.442 31.5951 293.939 32.6572 294.937C33.8276 295.999 34.4458 297.624 34.5119 299.814H30.8685C30.8262 298.773 30.6413 298.026 30.3164 297.571C29.9703 297.008 29.3943 296.726 28.5938 296.726C27.8117 296.726 27.2383 297.019 26.8685 297.603C26.5435 298.123 26.3269 298.953 26.2185 300.092C26.1102 301.23 26.0547 302.958 26.0547 305.278C26.0547 307.597 26.1102 309.328 26.2185 310.466C26.3269 311.605 26.5435 312.435 26.8685 312.952C27.2383 313.539 27.8117 313.832 28.5938 313.832C29.3943 313.832 29.9703 313.549 30.3164 312.987C30.6413 312.487 30.8262 311.729 30.8685 310.709H34.5119ZM50.6097 316.857H47.1618V297.735L43.6823 300.401V296.499L47.1618 293.701H50.6097V316.857ZM66.1896 300.726C66.1896 302.763 65.8753 304.585 65.2465 306.189L61.1804 316.857H57.6031L61.4075 307.489C61.0614 307.75 60.5938 307.88 60.0099 307.88C58.7074 307.88 57.6797 307.402 56.9188 306.451C56.4855 305.885 56.1817 305.209 56.01 304.416C55.8356 303.626 55.7484 302.395 55.7484 300.726C55.7484 299.251 55.8356 298.129 56.01 297.36C56.1817 296.591 56.4749 295.902 56.8871 295.294C57.7537 294.06 59.1197 293.442 60.9849 293.442C62.829 293.442 64.1817 294.06 65.0509 295.294C65.4842 295.944 65.7828 296.66 65.944 297.442C66.1078 298.221 66.1896 299.317 66.1896 300.726ZM62.2213 304.467C62.5674 304.031 62.7418 302.807 62.7418 300.792C62.7418 298.773 62.5674 297.55 62.2213 297.117C61.9175 296.726 61.5054 296.53 60.9849 296.53C60.4433 296.53 60.0205 296.726 59.7167 297.117C59.3706 297.55 59.1963 298.773 59.1963 300.792C59.1963 302.807 59.3706 304.031 59.7167 304.467C60.0205 304.855 60.4433 305.05 60.9849 305.05C61.5054 305.05 61.9175 304.855 62.2213 304.467ZM79.7511 313.246H78.1553V316.857H74.7101V313.246H68.2689V310.157L74.2213 293.701H77.5714L71.8145 310.157H74.7101V306.025H78.1553V310.157H79.7511V313.246ZM92.4011 296.562L86.3191 316.857H82.8713L88.9533 296.789H84.9215V299.88H81.6031V293.701H92.4011V296.562ZM110.906 296.987H104.988V316.857H101.344V293.701H110.906V296.987ZM125.019 298.726C125.215 300.081 125.313 302.266 125.313 305.278C125.313 308.292 125.215 310.477 125.019 311.832C124.824 313.187 124.359 314.287 123.622 315.132C122.515 316.456 121.019 317.116 119.133 317.116C117.247 317.116 115.751 316.456 114.647 315.132C113.931 314.265 113.469 313.153 113.265 311.798C113.059 310.445 112.953 308.271 112.953 305.278C112.953 302.287 113.059 300.113 113.265 298.757C113.469 297.402 113.931 296.293 114.647 295.423C115.751 294.102 117.247 293.442 119.133 293.442C121.019 293.442 122.515 294.102 123.622 295.423C124.359 296.271 124.824 297.37 125.019 298.726ZM121.524 310.466C121.622 309.328 121.669 307.597 121.669 305.278C121.669 302.958 121.622 301.23 121.524 300.092C121.426 298.953 121.215 298.123 120.89 297.603C120.523 297.019 119.936 296.726 119.133 296.726C118.354 296.726 117.778 297.019 117.41 297.603C116.869 298.472 116.597 301.029 116.597 305.278C116.597 309.528 116.869 312.086 117.41 312.952C117.778 313.539 118.354 313.832 119.133 313.832C119.936 313.832 120.523 313.539 120.89 312.952C121.215 312.435 121.426 311.605 121.524 310.466ZM142.842 321.245H139.395V316.857H130.029V321.245H126.581V313.571H128.076C129.358 310.318 129.997 306.58 129.997 302.35V293.701H140.924V313.571H142.842V321.245ZM137.281 313.571V296.953H133.477V303.262C133.477 307.101 132.911 310.535 131.786 313.571H137.281ZM158.713 316.857H154.909L153.965 312.271H148.599L147.688 316.857H143.849L149.543 293.701H153.086L158.713 316.857ZM153.281 308.987L151.297 299.294L149.313 308.987H153.281Z" fill="#FEFEFE"/>
<path d="M25.3811 277.714H22.9082V259.934H25.7061V270.822L29.6771 259.934H32.1737V277.714H29.3759V266.827L25.3811 277.714ZM48.6071 259.934L43.9122 274.692C43.5106 275.926 42.9955 276.737 42.364 277.128C41.73 277.519 40.6889 277.714 39.2411 277.714V275.218C40.0073 275.218 40.5648 275.088 40.9135 274.829C41.2649 274.573 41.5397 274.095 41.7379 273.395L42.1367 271.947L38.2425 259.934H41.2887L43.4366 268.151L45.5582 259.934H48.6071ZM59.2702 272.621C59.2702 273.67 59.1856 274.486 59.0192 275.067C58.8528 275.651 58.5542 276.158 58.1209 276.592C57.3706 277.339 56.2055 277.714 54.6256 277.714H50.2055V259.934H54.6494C56.232 259.934 57.3785 260.302 58.0945 261.033C58.5119 261.448 58.8026 261.924 58.969 262.457C59.1355 262.988 59.2201 263.731 59.2201 264.679C59.2201 266.045 58.8793 267.075 58.195 267.776C57.9123 268.058 57.6031 268.267 57.2729 268.399C57.6718 268.584 57.9968 268.801 58.2452 269.049C58.9295 269.749 59.2702 270.938 59.2702 272.621ZM56.4724 272.42C56.4724 271.437 56.3059 270.732 55.973 270.299C55.6401 269.865 55.0985 269.649 54.3508 269.649H53.0007V275.191H54.3508C55.1143 275.191 55.6612 274.985 55.9862 274.568C56.3111 274.153 56.4724 273.435 56.4724 272.42ZM56.4222 264.854C56.4222 263.987 56.269 263.372 55.9599 263.007C55.6534 262.64 55.1329 262.457 54.3984 262.457H53.0007V267.276H54.3984C55.1144 267.276 55.6322 267.086 55.9466 266.7C56.2636 266.32 56.4222 265.702 56.4222 264.854ZM69.4579 277.714H61.9915V259.934H69.4579V262.457H64.7895V267.501H68.8105V270.024H64.7895V275.191H69.4579V277.714ZM80.9216 265.353C80.9216 267.218 80.5596 268.584 79.8357 269.448C79.1117 270.314 77.9493 270.748 76.3509 270.748H74.6784V277.714H71.8806V259.934H76.3509C77.9493 259.934 79.1117 260.368 79.8357 261.232C80.5596 262.098 80.9216 263.472 80.9216 265.353ZM77.7248 267.514C77.9916 267.039 78.1236 266.32 78.1236 265.353C78.1236 264.389 77.9916 263.662 77.7248 263.181C77.4579 262.698 76.9665 262.457 76.2505 262.457H74.6784V268.225H76.2505C76.9665 268.225 77.4579 267.987 77.7248 267.514ZM90.6601 277.714H83.1936V259.934H90.6601V262.457H85.9916V267.501H90.0127V270.024H85.9916V275.191H90.6601V277.714ZM102.148 277.714H99.3523V269.947H95.8806V277.714H93.0828V259.934H95.8806V267.427H99.3523V259.934H102.148V277.714ZM114.211 277.714H111.413V269.947H107.942V277.714H105.146V259.934H107.942V267.427H111.413V259.934H114.211V277.714ZM125.997 263.792C126.148 264.833 126.224 266.51 126.224 268.824C126.224 271.139 126.148 272.816 125.997 273.857C125.849 274.896 125.49 275.741 124.924 276.391C124.076 277.405 122.927 277.915 121.479 277.915C120.029 277.915 118.882 277.405 118.031 276.391C117.482 275.725 117.128 274.872 116.969 273.831C116.813 272.79 116.734 271.123 116.734 268.824C116.734 266.526 116.813 264.859 116.969 263.818C117.128 262.777 117.482 261.924 118.031 261.258C118.882 260.244 120.029 259.734 121.479 259.734C122.927 259.734 124.076 260.244 124.924 261.258C125.49 261.908 125.849 262.753 125.997 263.792ZM123.313 272.808C123.389 271.934 123.426 270.605 123.426 268.824C123.426 267.044 123.389 265.715 123.313 264.84C123.239 263.969 123.075 263.329 122.827 262.93C122.544 262.481 122.095 262.257 121.479 262.257C120.879 262.257 120.438 262.481 120.156 262.93C119.738 263.596 119.529 265.562 119.529 268.824C119.529 272.087 119.738 274.053 120.156 274.719C120.438 275.168 120.879 275.392 121.479 275.392C122.095 275.392 122.544 275.168 122.827 274.719C123.075 274.32 123.239 273.68 123.313 272.808ZM137.561 272.996C137.511 274.676 137.02 275.942 136.087 276.79C135.289 277.54 134.264 277.915 133.017 277.915C131.566 277.915 130.42 277.405 129.569 276.391C129.02 275.725 128.665 274.872 128.507 273.831C128.351 272.79 128.272 271.123 128.272 268.824C128.272 266.526 128.351 264.859 128.507 263.818C128.665 262.777 129.02 261.924 129.569 261.258C130.42 260.244 131.566 259.734 133.017 259.734C134.28 259.734 135.321 260.117 136.137 260.883C137.035 261.699 137.511 262.949 137.561 264.629H134.763C134.732 263.831 134.589 263.255 134.341 262.907C134.074 262.473 133.632 262.257 133.017 262.257C132.417 262.257 131.976 262.481 131.693 262.93C131.442 263.329 131.276 263.969 131.194 264.84C131.109 265.715 131.067 267.044 131.067 268.824C131.067 270.605 131.109 271.934 131.194 272.808C131.276 273.68 131.442 274.32 131.693 274.719C131.976 275.168 132.417 275.392 133.017 275.392C133.632 275.392 134.074 275.176 134.341 274.742C134.589 274.359 134.732 273.778 134.763 272.996H137.561ZM147.426 262.457H144.428V277.714H141.633V262.457H138.66V259.934H147.426V262.457ZM151.921 277.714H149.448V259.934H152.245V270.822L156.216 259.934H158.713V277.714H155.915V266.827L151.921 277.714Z" fill="#FEFEFE"/>
</svg>
