<svg width="230" height="163" viewBox="0 0 230 163" fill="none" xmlns="http://www.w3.org/2000/svg">
<g id="Group">
<g id="Group_2">
<path id="Vector" d="M229.941 39.8608C227.511 41.4027 225.232 43.2371 223.12 45.1724L222.886 45.3957L222.835 45.4409L222.705 45.5579L222.181 46.0231L221.136 46.9536L220.091 47.8814L219.078 48.6098C218.386 49.083 217.769 49.612 217.03 50.0507L214.812 51.356C211.769 52.8926 208.653 54.2537 205.44 54.9555C202.241 55.6015 199.06 56.1093 196.02 55.9711C194.494 56.0455 193.036 55.7371 191.595 55.668C190.183 55.4234 188.789 55.2453 187.491 54.913C184.89 54.2431 182.529 53.4402 180.51 52.5257C179.521 52.0339 178.553 51.6271 177.712 51.1539C176.872 50.6648 176.104 50.2155 175.407 49.8088C174.042 48.9474 173.021 48.1685 172.29 47.6793C171.559 47.1849 171.202 46.8765 171.202 46.8765C171.202 46.8765 171.484 47.2567 172.088 47.8973C172.705 48.5194 173.513 49.5615 174.75 50.6728C175.383 51.2151 176.085 51.8186 176.845 52.4725C177.614 53.1345 178.561 53.6795 179.518 54.3574C181.476 55.6441 183.843 56.8829 186.576 57.9064C187.938 58.4301 189.414 58.8103 190.933 59.2596C192.486 59.5228 194.087 59.9534 195.773 60.0332C199.132 60.4665 202.738 60.2645 206.4 59.6636C210.057 59.0123 213.756 57.7921 217.259 56.0136C218.112 55.5324 218.971 55.0459 219.833 54.5594C220.692 54.0676 221.516 53.4136 222.359 52.8394L223.617 51.9435L224.678 51.0317L225.739 50.1198L226.269 49.6652L226.633 49.3435L226.886 49.1016C227.88 48.1658 228.894 47.2673 229.941 46.4246V39.8608Z" fill="#DAE2F3"/>
<path id="Vector_2" d="M201.669 75.6994C203.028 76.2258 204.506 76.6059 206.025 77.0525C207.575 77.3157 209.179 77.7464 210.865 77.8288C214.221 78.2595 217.83 78.0601 221.49 77.4566C224.319 76.9542 227.176 76.1088 229.941 74.9284V69.125L229.901 69.1489C226.859 70.6855 223.745 72.0493 220.53 72.7512C217.33 73.3945 214.152 73.9023 211.112 73.764C209.583 73.8411 208.126 73.5301 206.684 73.4636C205.275 73.219 203.881 73.0383 202.581 72.706C199.983 72.0387 197.621 71.2358 195.603 70.3187C194.611 69.8269 193.642 69.4228 192.802 68.9469L191.448 68.1574L190.496 67.6044C189.132 66.7404 188.111 65.9641 187.38 65.475C186.648 64.9805 186.294 64.6721 186.294 64.6721C186.294 64.6721 186.574 65.0523 187.177 65.6903C187.736 66.2566 188.457 67.1657 189.507 68.1574C189.613 68.261 189.725 68.3621 189.84 68.4657C190.472 69.0107 191.175 69.6115 191.938 70.2682C192.704 70.9275 193.65 71.4751 194.608 72.153C196.568 73.437 198.935 74.6785 201.669 75.6994Z" fill="#DAE2F3"/>
<path id="Vector_3" d="M198.493 68.1575C200.041 68.4233 201.637 68.8513 203.317 68.9311C206.676 69.3644 210.283 69.1624 213.945 68.5589C214.594 68.4446 215.248 68.309 215.899 68.1575C218.913 67.4583 221.926 66.3736 224.803 64.9115C225.657 64.4276 226.516 63.9438 227.378 63.4573C228.237 62.9628 229.061 62.3115 229.904 61.7373L229.941 61.7107V54.7296L229.726 54.921L228.681 55.8515L227.638 56.7793L226.622 57.505C225.931 57.9782 225.314 58.5099 224.575 58.9486L222.357 60.2512C219.314 61.7905 216.2 63.1543 212.985 63.8534C209.785 64.4968 206.605 65.0045 203.565 64.8663C202.038 64.9434 200.581 64.6323 199.139 64.5659C197.73 64.3213 196.334 64.1405 195.036 63.8082C192.438 63.141 190.073 62.3381 188.058 61.4209C187.066 60.9318 186.098 60.525 185.257 60.0492C184.417 59.56 183.648 59.1134 182.951 58.7067C181.587 57.8453 180.566 57.0664 179.835 56.5772C179.103 56.0828 178.75 55.7744 178.75 55.7744C178.75 55.7744 179.029 56.1545 179.632 56.7952C180.249 57.4173 181.058 58.4594 182.295 59.568C182.928 60.113 183.63 60.7165 184.39 61.3704C185.159 62.0324 186.106 62.5774 187.063 63.2553C189.02 64.5393 191.387 65.7808 194.124 66.8016C195.483 67.328 196.959 67.7082 198.48 68.1548L198.496 68.1575H198.493Z" fill="#DAE2F3"/>
<path id="Vector_4" d="M229.942 100.194C229.734 100.178 229.527 100.163 229.322 100.155C227.91 99.9073 226.516 99.7292 225.218 99.3942C222.617 98.7269 220.256 97.9241 218.237 97.0096C217.248 96.5178 216.277 96.111 215.437 95.6378C214.599 95.1487 213.828 94.6994 213.134 94.2953C211.77 93.4313 210.748 92.655 210.017 92.1632C209.286 91.6714 208.929 91.363 208.929 91.363C208.929 91.363 209.208 91.7432 209.815 92.3812C210.432 93.0033 211.24 94.0454 212.477 95.1566C213.11 95.7016 213.809 96.3024 214.573 96.9591C215.341 97.6184 216.288 98.1634 217.245 98.8439C219.203 100.128 221.57 101.369 224.303 102.39C225.665 102.917 227.141 103.297 228.66 103.743C229.085 103.815 229.511 103.9 229.942 103.985V100.194Z" fill="#DAE2F3"/>
<path id="Vector_5" d="M229.941 91.4428C228.678 91.5624 227.428 91.6129 226.202 91.5571C224.673 91.6342 223.218 91.3232 221.777 91.2567C220.365 91.0121 218.971 90.8314 217.671 90.4991C215.072 89.8318 212.711 89.0289 210.692 88.1118C209.703 87.6226 208.735 87.2159 207.892 86.74C207.054 86.2535 206.283 85.8042 205.586 85.3975C204.225 84.5335 203.203 83.7572 202.469 83.2681C201.738 82.7736 201.384 82.4652 201.384 82.4652C201.384 82.4652 201.664 82.8454 202.27 83.4834C202.884 84.1081 203.695 85.1502 204.932 86.2588C205.565 86.8038 206.264 87.4046 207.028 88.0612C207.796 88.7205 208.74 89.2655 209.7 89.9461C211.658 91.2301 214.025 92.4716 216.759 93.4925C218.118 94.0188 219.596 94.399 221.115 94.8456C222.668 95.1088 224.269 95.5395 225.955 95.6219C227.25 95.7894 228.583 95.8611 229.941 95.8532V91.4428Z" fill="#DAE2F3"/>
<path id="Vector_6" d="M229.941 81.1652C229.324 81.3487 228.702 81.5108 228.074 81.6464C224.878 82.2924 221.697 82.8002 218.657 82.6619C217.128 82.7364 215.671 82.428 214.232 82.3589C212.82 82.1143 211.426 81.9335 210.126 81.6012C207.528 80.934 205.166 80.1311 203.147 79.2166C202.158 78.7248 201.187 78.318 200.347 77.8448C199.509 77.3557 198.738 76.9064 198.041 76.4997C196.677 75.6383 195.658 74.862 194.924 74.3702C194.193 73.8784 193.839 73.5674 193.839 73.5674C193.839 73.5674 194.119 73.9502 194.722 74.5882C195.339 75.2103 196.15 76.2524 197.387 77.3637C198.02 77.906 198.719 78.5094 199.483 79.1634C200.249 79.8254 201.195 80.3704 202.153 81.0483C204.113 82.335 206.48 83.5738 209.214 84.5973C210.573 85.1237 212.051 85.5038 213.57 85.9478C215.123 86.2136 216.724 86.6416 218.41 86.7241C221.766 87.16 225.375 86.958 229.035 86.3519C229.338 86.2987 229.641 86.2429 229.941 86.1791V81.1652Z" fill="#DAE2F3"/>
</g>
<g id="Group_3">
<path id="Vector_7" d="M130.965 20.4595C132.263 19.9757 133.664 19.6141 135.1 19.1914C135.877 19.0426 136.667 18.8937 137.47 18.7421C138.273 18.5693 139.098 18.4683 139.941 18.4152C143.297 17.9845 146.903 18.1812 150.562 18.7847C154.222 19.4333 157.916 20.6589 161.421 22.4294C164.923 24.2079 168.144 26.6803 171.051 29.3414L171.282 29.5647L171.333 29.6099L171.463 29.7269L171.987 30.1921L173.032 31.1226L174.077 32.0504L175.093 32.7788C175.782 33.252 176.402 33.7837 177.141 34.2197L179.359 35.525C182.401 37.0615 185.516 38.4253 188.728 39.1245C191.93 39.7705 195.108 40.2783 198.148 40.1374C199.677 40.2145 201.132 39.9061 202.573 39.8396C203.985 39.5924 205.379 39.4116 206.679 39.0793C209.278 38.412 211.639 37.6092 213.658 36.6947C214.647 36.2029 215.618 35.7961 216.458 35.3229C217.296 34.8338 218.067 34.3845 218.764 33.9804C220.126 33.1164 221.147 32.3401 221.881 31.8483C222.612 31.3565 222.966 31.0455 222.966 31.0455C222.966 31.0455 222.687 31.4283 222.08 32.0663C221.466 32.6884 220.655 33.7305 219.418 34.8417C218.785 35.3841 218.086 35.9875 217.323 36.6415C216.557 37.3035 215.61 37.8484 214.65 38.5264C212.692 39.813 210.326 41.0519 207.592 42.0754C206.233 42.5991 204.754 42.9793 203.235 43.4285C201.682 43.6917 200.081 44.1224 198.395 44.2048C195.039 44.6355 191.43 44.4361 187.771 43.83C184.111 43.184 180.412 41.9611 176.912 40.1826C176.056 39.7014 175.197 39.2149 174.338 38.7284C173.479 38.2366 172.654 37.5826 171.811 37.0084L170.553 36.1125L169.492 35.2033L168.431 34.2888L167.899 33.8315L167.535 33.5125L167.285 33.2706C164.721 30.8567 162.017 28.6954 158.977 27.0844C155.94 25.5372 152.82 24.1813 149.608 23.4795C146.406 22.8362 143.228 22.3204 140.185 22.464C138.656 22.3869 137.201 22.7006 135.757 22.7644C134.348 23.009 132.954 23.1897 131.654 23.522L130.991 23.6975V23.7055C128.664 24.3355 126.54 25.0746 124.702 25.912C123.715 26.4011 122.739 26.8132 121.907 27.2811C121.074 27.7676 120.306 28.2142 119.617 28.6156C118.245 29.485 117.208 30.2772 116.479 30.7637C115.747 31.2581 115.396 31.5639 115.396 31.5639C115.396 31.5639 115.681 31.181 116.285 30.543C116.907 29.9156 117.7 28.8921 118.928 27.7862C119.564 27.2386 120.271 26.6324 121.04 25.9758C121.814 25.3085 122.755 24.7662 123.715 24.0883C125.673 22.8043 128.039 21.5628 130.773 20.5419L130.965 20.4701V20.4595Z" fill="#DAE2F3"/>
<path id="Vector_8" d="M215.137 33.1776C213.778 33.704 212.299 34.0841 210.78 34.5307C209.227 34.7939 207.626 35.2246 205.94 35.307C202.584 35.7403 198.975 35.5383 195.316 34.9348C191.656 34.2862 187.96 33.0659 184.457 31.2874C183.603 30.8036 182.744 30.3198 181.883 29.8333C181.024 29.3415 180.199 28.6875 179.356 28.1132L178.098 27.2173L177.037 26.3055L175.976 25.391L175.444 24.9364L175.08 24.6174L174.83 24.3728C172.266 21.9589 169.562 19.7976 166.525 18.1866C163.485 16.6394 160.365 15.2862 157.153 14.5817C153.953 13.9384 150.773 13.4226 147.73 13.5662C146.204 13.4918 144.746 13.8055 143.305 13.8666C141.893 14.1112 140.499 14.292 139.199 14.6269C136.6 15.2968 134.236 16.097 132.22 17.0169C131.805 17.2216 131.393 17.413 130.992 17.5991V17.6124C130.449 17.8676 129.928 18.1175 129.452 18.386C128.619 18.8698 127.853 19.3138 127.162 19.7179C125.792 20.5872 124.753 21.3794 124.024 21.8659C123.292 22.3604 122.941 22.6661 122.941 22.6661C122.941 22.6661 123.226 22.2833 123.832 21.6452C124.452 21.0178 125.244 19.9943 126.473 18.8884C127.111 18.3434 127.816 17.7373 128.585 17.078C129.282 16.4799 130.109 15.9827 130.965 15.3979V15.3793L131.231 15.1905C133.191 13.9065 135.558 12.665 138.292 11.6441C139.651 11.1204 141.127 10.7403 142.645 10.2936C143.425 10.1474 144.214 9.99855 145.015 9.84436C145.818 9.67422 146.642 9.57054 147.485 9.51737C150.842 9.08936 154.448 9.28343 158.107 9.88955C161.767 10.5356 165.463 11.7638 168.966 13.5316C172.468 15.3101 175.689 17.7825 178.596 20.4436L178.827 20.6669L178.878 20.7148L179.011 20.8291L179.532 21.297L180.58 22.2274L181.622 23.1552L182.638 23.881C183.33 24.3542 183.947 24.8859 184.686 25.3219L186.904 26.6272C189.946 28.1664 193.06 29.5275 196.276 30.2294C199.472 30.8727 202.653 31.3805 205.693 31.2422C207.222 31.3193 208.679 31.0083 210.121 30.9418C211.53 30.6973 212.927 30.5165 214.224 30.1842C216.823 29.5142 219.184 28.7114 221.203 27.7969C222.195 27.3077 223.163 26.901 224.003 26.4251C224.841 25.936 225.612 25.4867 226.309 25.0826C227.673 24.2186 228.692 23.4423 229.426 22.9532C229.625 22.8176 229.798 22.6953 229.942 22.5916V22.8282C229.849 22.9319 229.745 23.0462 229.628 23.1685C229.011 23.7906 228.2 24.8354 226.966 25.9439C226.333 26.4889 225.631 27.0897 224.867 27.7464C224.102 28.4057 223.155 28.9507 222.195 29.6312C220.24 30.9153 217.871 32.1568 215.137 33.1776Z" fill="#DAE2F3"/>
<path id="Vector_9" d="M222.681 24.2798C221.322 24.8061 219.844 25.1863 218.325 25.6329C216.775 25.8988 215.174 26.3294 213.488 26.4092C210.129 26.8425 206.523 26.6405 202.861 26.037C199.201 25.3883 195.505 24.1681 192.002 22.3896C191.148 21.9058 190.289 21.4219 189.428 20.9354C188.569 20.4436 187.744 19.7896 186.901 19.2154L185.643 18.3195L184.582 17.4077L183.521 16.4958L182.989 16.0386L182.628 15.7195L182.375 15.475C179.811 13.0637 177.106 10.9024 174.067 9.2914C171.03 7.74418 167.91 6.38837 164.697 5.68654C161.498 5.0432 158.317 4.52746 155.278 4.67101C153.749 4.59392 152.291 4.90761 150.85 4.96876C149.438 5.216 148.044 5.39677 146.744 5.72908C144.145 6.39901 141.781 7.1992 139.765 8.11903C138.776 8.60818 137.802 9.01758 136.97 9.48813C136.135 9.97197 135.369 10.4186 134.678 10.8227C133.308 11.6893 132.268 12.4842 131.542 12.9707C131.324 13.1169 131.143 13.2445 130.992 13.3562V13.3774C130.654 13.6273 130.486 13.7709 130.486 13.7709C130.486 13.7709 130.641 13.5635 130.965 13.1967V13.1648C131.074 13.0425 131.202 12.9042 131.348 12.75C131.97 12.1227 132.76 11.0965 133.989 9.99058C134.627 9.44559 135.332 8.83947 136.1 8.18017C136.877 7.51556 137.816 6.97323 138.776 6.29533C140.736 5.01129 143.103 3.7698 145.837 2.74895C147.196 2.22524 148.672 1.84242 150.193 1.39846C150.969 1.24958 151.759 1.10071 152.562 0.949179C153.366 0.77638 154.187 0.6727 155.03 0.622189C158.387 0.19152 161.995 0.388246 165.652 0.991714C169.314 1.63772 173.008 2.86592 176.513 4.63645C180.013 6.4123 183.234 8.88466 186.141 11.5484L186.375 11.7717L186.425 11.8169L186.555 11.9339L187.077 12.3991L188.125 13.3296L189.167 14.2574L190.183 14.9831C190.874 15.459 191.491 15.988 192.231 16.4267L194.449 17.732C197.491 19.2686 200.605 20.6297 203.821 21.3315C207.02 21.9749 210.198 22.4826 213.238 22.3444C214.767 22.4215 216.224 22.1105 217.666 22.044C219.075 21.7994 220.471 21.6186 221.769 21.2863C224.368 20.6191 226.732 19.8162 228.748 18.899C229.152 18.6997 229.553 18.5136 229.942 18.3301V20.5925L229.742 20.7334C227.785 22.0201 225.418 23.2589 222.681 24.2798Z" fill="#DAE2F3"/>
<path id="Vector_10" d="M130.965 4.75077C131.303 4.50086 131.467 4.3573 131.467 4.3573C131.467 4.3573 131.308 4.5753 130.965 4.9608V4.75077Z" fill="#DAE2F3"/>
<path id="Vector_11" d="M229.942 15.4935C228.662 15.9641 227.285 16.323 225.87 16.7377C224.319 17.0009 222.718 17.4315 221.032 17.5139C217.674 17.9473 214.067 17.7452 210.405 17.1418C206.749 16.4931 203.049 15.2702 199.547 13.4944C198.693 13.0105 197.834 12.524 196.972 12.0375C196.113 11.5457 195.289 10.8917 194.446 10.3202L193.191 9.42161L192.127 8.50976L191.066 7.59791L190.537 7.14332L190.172 6.82164L189.92 6.57972C187.356 4.16585 184.651 2.00453 181.614 0.393505C181.359 0.263241 181.101 0.132977 180.843 0.00537109H190.595C191.661 0.853417 192.693 1.74134 193.688 2.65053L193.919 2.87384L193.97 2.91903L194.1 3.03601L194.624 3.50124L195.669 4.43169L196.714 5.35949L197.728 6.08791C198.419 6.56111 199.036 7.0928 199.775 7.52879L201.993 8.83409C205.036 10.3707 208.153 11.7345 211.365 12.4363C214.565 13.0796 217.745 13.5874 220.785 13.4492C222.312 13.5236 223.769 13.2152 225.21 13.1488C226.62 12.9042 228.016 12.7234 229.314 12.3911C229.527 12.3353 229.734 12.2794 229.942 12.2236V15.4935ZM145.658 0.00537109C145.257 0.19678 144.874 0.388188 144.515 0.590231C143.68 1.07673 142.916 1.52069 142.222 1.92477C140.853 2.79143 139.813 3.58631 139.087 4.0728C138.355 4.56728 138.004 4.873 138.004 4.873C138.004 4.873 138.286 4.49018 138.893 3.85215C139.515 3.22476 140.307 2.19859 141.536 1.09534L142.805 0.00537109H145.658Z" fill="#DAE2F3"/>
<path id="Vector_12" d="M229.942 8.48052C229.492 8.54432 229.038 8.59217 228.578 8.6161C225.221 9.04943 221.612 8.84738 217.953 8.24391C214.294 7.59525 210.594 6.37502 207.092 4.59652C206.238 4.11268 205.379 3.62618 204.52 3.13969C203.658 2.64787 202.834 1.99655 201.991 1.42233L200.736 0.526428L200.129 0.00537109H209.68C212.677 1.51537 215.746 2.84726 218.91 3.53845C222.11 4.1818 225.29 4.68956 228.33 4.55132C228.875 4.57791 229.413 4.55664 229.942 4.51411V8.48052Z" fill="#DAE2F3"/>
</g>
<g id="Group_4">
<path id="Vector_13" d="M130.965 138.641C132.263 138.16 133.664 137.796 135.1 137.373C135.877 137.227 136.667 137.078 137.47 136.926C138.273 136.754 139.098 136.65 139.941 136.597C143.297 136.169 146.903 136.363 150.562 136.969C154.222 137.615 157.916 138.843 161.421 140.611C164.923 142.389 168.144 144.862 171.051 147.523L171.282 147.749L171.333 147.794L171.463 147.911L171.987 148.374L173.032 149.307L174.077 150.235L175.093 150.96C175.782 151.434 176.402 151.965 177.141 152.401L179.359 153.707C182.401 155.246 185.516 156.607 188.728 157.309C191.93 157.952 195.108 158.46 198.148 158.322C199.677 158.396 201.132 158.088 202.573 158.021C203.985 157.777 205.379 157.596 206.679 157.264C209.278 156.596 211.639 155.793 213.658 154.876C214.647 154.387 215.618 153.98 216.458 153.504C217.296 153.018 218.067 152.569 218.764 152.162C220.126 151.298 221.147 150.522 221.881 150.033C222.612 149.538 222.966 149.23 222.966 149.23C222.966 149.23 222.687 149.61 222.08 150.248C221.466 150.873 220.655 151.915 219.418 153.023C218.785 153.568 218.086 154.169 217.323 154.826C216.557 155.485 215.61 156.03 214.65 156.711C212.692 157.997 210.326 159.236 207.592 160.26C206.233 160.783 204.754 161.163 203.235 161.61C201.682 161.873 200.081 162.307 198.395 162.386C195.039 162.82 191.43 162.618 187.771 162.014C184.111 161.366 180.412 160.145 176.912 158.367C176.056 157.883 175.197 157.399 174.338 156.91C173.479 156.418 172.654 155.767 171.811 155.193L170.553 154.297L169.492 153.385L168.431 152.473L167.899 152.016L167.535 151.694L167.285 151.452C164.721 149.038 162.017 146.88 158.977 145.266C155.94 143.719 152.82 142.366 149.608 141.661C146.406 141.018 143.228 140.505 140.185 140.646C138.656 140.571 137.201 140.885 135.757 140.946C134.348 141.193 132.954 141.374 131.654 141.706L130.991 141.882V141.887C128.664 142.52 126.54 143.259 124.702 144.094C123.715 144.585 122.739 144.995 121.907 145.465C121.074 145.949 120.306 146.396 119.617 146.797C118.245 147.667 117.208 148.459 116.479 148.948C115.747 149.44 115.396 149.745 115.396 149.745C115.396 149.745 115.681 149.363 116.285 148.725C116.907 148.1 117.7 147.074 118.928 145.968C119.564 145.42 120.271 144.817 121.04 144.157C121.814 143.493 122.755 142.95 123.715 142.27C125.673 140.988 128.039 139.747 130.773 138.723L130.965 138.652V138.641Z" fill="#DAE2F3"/>
<path id="Vector_14" d="M215.137 151.362C213.778 151.885 212.299 152.266 210.78 152.712C209.227 152.978 207.626 153.409 205.94 153.489C202.584 153.922 198.975 153.72 195.316 153.116C191.656 152.468 187.96 151.247 184.457 149.469C183.603 148.988 182.744 148.501 181.883 148.015C181.024 147.523 180.199 146.869 179.356 146.295L178.098 145.399L177.037 144.487L175.976 143.575L175.444 143.118L175.08 142.799L174.83 142.554C172.266 140.143 169.562 137.982 166.525 136.371C163.485 134.824 160.365 133.468 157.153 132.766C153.953 132.123 150.773 131.607 147.73 131.75C146.204 131.673 144.746 131.987 143.305 132.048C141.893 132.295 140.499 132.476 139.199 132.808C136.6 133.478 134.236 134.281 132.22 135.198C131.805 135.406 131.393 135.594 130.992 135.783V135.797C130.449 136.052 129.928 136.299 129.452 136.567C128.619 137.054 127.853 137.498 127.162 137.899C125.792 138.769 124.753 139.564 124.024 140.05C123.292 140.545 122.941 140.85 122.941 140.85C122.941 140.85 123.226 140.467 123.832 139.829C124.452 139.202 125.244 138.176 126.473 137.07C127.111 136.525 127.816 135.919 128.585 135.26C129.282 134.664 130.109 134.167 130.965 133.579V133.561L131.231 133.375C133.191 132.091 135.558 130.849 138.292 129.828C139.651 129.305 141.127 128.924 142.645 128.478C143.425 128.329 144.214 128.18 145.015 128.029C145.818 127.856 146.642 127.752 147.485 127.702C150.842 127.271 154.448 127.468 158.107 128.071C161.767 128.717 165.463 129.945 168.966 131.716C172.468 133.494 175.689 135.964 178.596 138.628L178.827 138.851L178.878 138.896L179.011 139.013L179.532 139.478L180.58 140.409L181.622 141.337L182.638 142.065C183.33 142.538 183.947 143.07 184.686 143.506L186.904 144.811C189.946 146.348 193.06 147.712 196.276 148.411C199.472 149.057 202.653 149.562 205.693 149.426C207.222 149.501 208.679 149.19 210.121 149.123C211.53 148.879 212.927 148.698 214.224 148.366C216.823 147.698 219.184 146.896 221.203 145.978C222.195 145.489 223.163 145.083 224.003 144.609C224.841 144.12 225.612 143.671 226.309 143.267C227.673 142.403 228.692 141.624 229.426 141.135C229.625 140.999 229.798 140.879 229.942 140.773V141.01C229.849 141.113 229.745 141.228 229.628 141.353C229.011 141.975 228.2 143.017 226.966 144.128C226.333 144.67 225.631 145.274 224.867 145.928C224.102 146.59 223.155 147.135 222.195 147.813C220.24 149.099 217.871 150.338 215.137 151.362Z" fill="#DAE2F3"/>
<path id="Vector_15" d="M222.681 142.464C221.322 142.99 219.844 143.37 218.325 143.817C216.775 144.08 215.174 144.511 213.488 144.593C210.129 145.027 206.523 144.825 202.861 144.221C199.201 143.573 195.505 142.35 192.002 140.571C191.148 140.09 190.289 139.603 189.428 139.117C188.569 138.625 187.744 137.971 186.901 137.397L185.643 136.504L184.582 135.589L183.521 134.677L182.989 134.223L182.628 133.904L182.375 133.659C179.811 131.245 177.106 129.084 174.067 127.473C171.03 125.926 167.91 124.57 164.697 123.868C161.498 123.225 158.317 122.709 155.278 122.853C153.749 122.778 152.291 123.089 150.85 123.153C149.438 123.4 148.044 123.578 146.744 123.913C144.145 124.581 141.781 125.383 139.765 126.303C138.776 126.792 137.802 127.202 136.97 127.67C136.135 128.156 135.369 128.603 134.678 129.004C133.308 129.874 132.268 130.666 131.542 131.152C131.324 131.298 131.143 131.429 130.992 131.538V131.559C130.654 131.809 130.486 131.952 130.486 131.952C130.486 131.952 130.641 131.745 130.965 131.381V131.349C131.074 131.227 131.202 131.086 131.348 130.932C131.97 130.304 132.76 129.281 133.989 128.175C134.627 127.627 135.332 127.024 136.1 126.362C136.877 125.697 137.816 125.157 138.776 124.477C140.736 123.193 143.103 121.951 145.837 120.931C147.196 120.407 148.672 120.027 150.193 119.58C150.969 119.434 151.759 119.285 152.562 119.131C153.366 118.958 154.187 118.857 155.03 118.804C158.387 118.376 161.995 118.57 165.652 119.176C169.314 119.822 173.008 121.05 176.513 122.818C180.013 124.597 183.234 127.069 186.141 129.73L186.375 129.953L186.425 130.001L186.555 130.115L187.077 130.581L188.125 131.511L189.167 132.439L190.183 133.167C190.874 133.641 191.491 134.172 192.231 134.608L194.449 135.914C197.491 137.453 200.605 138.814 203.821 139.513C207.02 140.159 210.198 140.667 213.238 140.529C214.767 140.603 216.224 140.295 217.666 140.226C219.075 139.984 220.471 139.803 221.769 139.471C224.368 138.801 226.732 137.998 228.748 137.083C229.152 136.881 229.553 136.695 229.942 136.514V138.774L229.742 138.918C227.785 140.202 225.418 141.443 222.681 142.464Z" fill="#DAE2F3"/>
<path id="Vector_16" d="M130.965 122.932C131.303 122.682 131.467 122.539 131.467 122.539C131.467 122.539 131.308 122.759 130.965 123.145V122.932Z" fill="#DAE2F3"/>
<path id="Vector_17" d="M229.942 133.675C228.662 134.146 227.285 134.504 225.87 134.919C224.319 135.182 222.718 135.613 221.032 135.695C217.674 136.129 214.067 135.927 210.405 135.323C206.749 134.675 203.049 133.454 199.547 131.676C198.693 131.192 197.834 130.708 196.972 130.222C196.113 129.73 195.289 129.076 194.446 128.502L193.191 127.606L192.127 126.694L191.066 125.782L190.537 125.325L190.172 125.006L189.92 124.761C187.356 122.347 184.651 120.189 181.614 118.578C178.574 117.028 175.455 115.675 172.242 114.97C169.043 114.327 165.862 113.814 162.822 113.957C161.293 113.88 159.838 114.194 158.394 114.255C156.982 114.502 155.589 114.683 154.288 115.015C151.69 115.685 149.328 116.485 147.31 117.405C146.32 117.894 145.347 118.304 144.515 118.774C143.68 119.258 142.916 119.705 142.222 120.106C140.853 120.976 139.813 121.768 139.087 122.257C138.355 122.749 138.004 123.055 138.004 123.055C138.004 123.055 138.286 122.674 138.893 122.034C139.515 121.406 140.307 120.383 141.536 119.277C142.174 118.732 142.879 118.126 143.645 117.466C144.422 116.799 145.36 116.259 146.323 115.579C148.281 114.298 150.647 113.056 153.381 112.033C154.74 111.509 156.219 111.129 157.737 110.685C158.514 110.536 159.304 110.387 160.107 110.235C160.91 110.063 161.735 109.959 162.575 109.906C165.931 109.478 169.54 109.672 173.2 110.278C176.859 110.924 180.553 112.152 184.058 113.923C187.558 115.699 190.778 118.171 193.688 120.835L193.919 121.055L193.97 121.103L194.1 121.22L194.624 121.685L195.669 122.616L196.714 123.544L197.728 124.269C198.419 124.743 199.036 125.274 199.775 125.713L201.993 127.018C205.036 128.555 208.153 129.916 211.365 130.618C214.565 131.261 217.745 131.769 220.785 131.631C222.312 131.705 223.769 131.397 225.21 131.33C226.62 131.086 228.016 130.905 229.314 130.573C229.527 130.519 229.734 130.464 229.942 130.408V133.675Z" fill="#DAE2F3"/>
<path id="Vector_18" d="M229.942 126.665C229.492 126.728 229.037 126.776 228.577 126.8C225.221 127.231 221.612 127.032 217.953 126.425C214.293 125.777 210.594 124.557 207.092 122.781C206.238 122.297 205.379 121.81 204.52 121.324C203.658 120.832 202.834 120.178 201.991 119.604L200.736 118.708L199.674 117.796L198.611 116.884L198.081 116.427L197.717 116.108L197.464 115.863C194.903 113.452 192.199 111.291 189.159 109.68C186.119 108.133 183.002 106.777 179.787 106.075C176.588 105.429 173.41 104.916 170.367 105.059C168.841 104.982 167.383 105.296 165.939 105.36C164.53 105.604 163.134 105.785 161.836 106.12C159.235 106.787 156.873 107.588 154.855 108.507C153.868 108.997 152.892 109.409 152.06 109.877C151.227 110.363 150.461 110.807 149.77 111.211C148.398 112.078 147.36 112.873 146.632 113.359C145.9 113.854 145.549 114.159 145.549 114.159C145.549 114.159 145.834 113.777 146.438 113.136C147.06 112.511 147.852 111.485 149.081 110.382C149.719 109.834 150.424 109.228 151.193 108.569C151.967 107.904 152.908 107.362 153.868 106.684C155.825 105.4 158.192 104.158 160.926 103.137C162.285 102.614 163.764 102.234 165.282 101.787C166.059 101.638 166.849 101.489 167.652 101.338C168.455 101.165 169.28 101.064 170.12 101.011C173.476 100.58 177.085 100.777 180.744 101.38C184.404 102.026 188.098 103.257 191.603 105.025C195.106 106.803 198.326 109.276 201.233 111.937L201.464 112.16L201.515 112.205L201.645 112.322L202.169 112.788L203.214 113.718L204.259 114.646L205.273 115.374C205.964 115.847 206.581 116.376 207.32 116.815L209.541 118.12C212.581 119.657 215.698 121.021 218.91 121.72C222.11 122.366 225.29 122.874 228.33 122.735C228.875 122.762 229.412 122.738 229.942 122.696V126.665Z" fill="#DAE2F3"/>
<path id="Vector_19" d="M229.942 118.051C228.479 117.956 226.992 117.775 225.498 117.53C221.838 116.882 218.139 115.659 214.639 113.883C213.783 113.399 212.927 112.913 212.065 112.426C211.206 111.934 210.379 111.283 209.536 110.709L208.28 109.81L207.219 108.901L206.158 107.986L205.626 107.532L205.262 107.21L205.012 106.968C202.448 104.554 199.744 102.396 196.704 100.782C193.667 99.2348 190.547 97.8817 187.332 97.1772C184.133 96.5338 180.955 96.0208 177.912 96.1617C176.386 96.0846 174.928 96.3983 173.484 96.4621C172.075 96.7066 170.679 96.8874 169.381 97.2224C166.782 97.8923 164.418 98.6925 162.402 99.6097C161.413 100.101 160.437 100.511 159.605 100.981C158.772 101.465 158.006 101.912 157.315 102.313C155.945 103.183 154.905 103.975 154.177 104.461C153.445 104.956 153.094 105.262 153.094 105.262C153.094 105.262 153.379 104.879 153.985 104.241C154.605 103.616 155.397 102.59 156.626 101.484C157.264 100.936 157.969 100.333 158.738 99.6735C159.514 99.0089 160.453 98.4639 161.413 97.786C163.373 96.5019 165.737 95.2631 168.471 94.2422C169.833 93.7159 171.309 93.3357 172.827 92.8891C173.604 92.7429 174.396 92.5914 175.197 92.4398C176 92.2697 176.824 92.166 177.668 92.1128C181.024 91.6848 184.63 91.8789 188.289 92.485C191.949 93.131 195.643 94.3592 199.148 96.1271C202.65 97.9056 205.871 100.378 208.778 103.039L209.009 103.262L209.06 103.31L209.19 103.427L209.714 103.89L210.759 104.823L211.804 105.751L212.817 106.476C213.509 106.95 214.126 107.481 214.868 107.917L217.086 109.223C220.128 110.762 223.243 112.123 226.455 112.825C227.623 113.059 228.787 113.277 229.942 113.45V118.051Z" fill="#DAE2F3"/>
</g>
<g id="Group_5">
<path id="Vector_20" d="M129.449 39.3532L129.643 39.3106C132.842 38.6673 136.021 38.1515 139.063 38.2951C140.592 38.218 142.047 38.5317 143.491 38.5955C144.9 38.8401 146.297 39.0208 147.594 39.3558C150.193 40.0231 152.557 40.8259 154.573 41.7431C155.562 42.2349 156.538 42.6417 157.371 43.1122C158.203 43.596 158.969 44.0427 159.66 44.4467C161.033 45.3134 162.07 46.1083 162.799 46.5948C163.53 47.0892 163.881 47.395 163.881 47.395C163.881 47.395 163.596 47.0122 162.99 46.3741C162.37 45.7467 161.578 44.7206 160.349 43.6147C159.711 43.0697 159.006 42.4635 158.238 41.8042C157.461 41.1396 156.522 40.5973 155.562 39.9194C153.605 38.6354 151.238 37.3939 148.504 36.373C147.142 35.8493 145.666 35.4692 144.148 35.0225C143.371 34.8763 142.581 34.7248 141.778 34.5733C140.975 34.4005 140.151 34.2994 139.31 34.2463C136.185 33.8448 132.845 33.9884 129.449 34.4962C129.194 34.5334 128.941 34.5733 128.686 34.6158C125.026 35.2645 121.332 36.4927 117.827 38.2605C114.325 40.039 111.104 42.5087 108.197 45.1725L107.966 45.3958L107.915 45.441L107.785 45.558L107.261 46.0232L106.216 46.9537L105.171 47.8815L104.155 48.6099C103.466 49.0831 102.847 49.6121 102.11 50.0508L99.8892 51.3561C96.8468 52.8926 93.7326 54.2538 90.5173 54.9556C87.3207 55.6016 84.1399 56.1094 81.1002 55.9711C79.571 56.0456 78.1163 55.7372 76.6749 55.6681C75.2627 55.4235 73.8692 55.2454 72.5687 54.9131C69.9704 54.2431 67.6088 53.4403 65.5903 52.5258C64.601 52.034 63.6329 51.6272 62.7899 51.154C61.9522 50.6649 61.1809 50.2156 60.4868 49.8088C59.1225 48.9475 58.1013 48.1686 57.3699 47.6794C56.6359 47.185 56.2822 46.8766 56.2822 46.8766C56.2822 46.8766 56.5615 47.2567 57.1678 47.8974C57.7821 48.5195 58.5933 49.5616 59.8299 50.6728C60.4629 51.2152 61.1623 51.8186 61.9256 52.4726C62.6942 53.1346 63.6383 53.6795 64.5983 54.3575C66.5557 55.6441 68.9226 56.883 71.6565 57.9065C73.0181 58.4302 74.4941 58.8104 76.0127 59.2596C77.5658 59.5228 79.1668 59.9535 80.8529 60.0333C84.2091 60.4666 87.818 60.2645 91.4774 59.6637C95.1368 59.0124 98.8361 57.7922 102.336 56.0137C103.192 55.5325 104.051 55.046 104.91 54.5595C105.769 54.0677 106.594 53.4137 107.439 52.8395L108.695 51.9436L109.756 51.0317L110.817 50.1199L111.349 49.6653L111.713 49.3436L111.963 49.1017C114.529 46.6878 117.231 44.5265 120.271 42.9155C123.25 41.3975 126.306 40.0656 129.449 39.3532Z" fill="#DAE2F3"/>
<path id="Vector_21" d="M86.7463 75.6995C88.108 76.2259 89.584 76.6061 91.1052 77.0527C92.6556 77.3159 94.2566 77.7465 95.9454 77.8289C99.3016 78.2596 102.91 78.0602 106.57 77.4568C110.227 76.8081 113.926 75.5852 117.428 73.8094C118.282 73.3255 119.141 72.8417 120.003 72.3525C120.862 71.8607 121.686 71.2094 122.529 70.6352L123.787 69.7393L124.848 68.8274L125.625 68.1575L125.909 67.9129L126.441 67.4583L126.803 67.1366L127.056 66.8947C127.837 66.1557 128.635 65.4432 129.449 64.7626C131.303 63.2128 133.252 61.8277 135.361 60.7085C138.401 59.1613 141.518 57.8055 144.733 57.1036C147.932 56.4603 151.113 55.9472 154.153 56.0881C155.682 56.0137 157.137 56.3274 158.581 56.3885C159.993 56.6331 161.386 56.8139 162.684 57.1462C165.285 57.8161 167.649 58.619 169.665 59.5361C170.652 60.0279 171.628 60.4373 172.46 60.9052C173.295 61.3917 174.061 61.8383 174.753 62.2398C176.122 63.1091 177.162 63.9013 177.888 64.3878C178.62 64.8823 178.971 65.188 178.971 65.188C178.971 65.188 178.686 64.8052 178.082 64.1672C177.46 63.5398 176.67 62.5163 175.439 61.4103C174.803 60.8627 174.096 60.2592 173.33 59.5999C172.553 58.9327 171.612 58.393 170.652 57.7124C168.695 56.4284 166.328 55.1869 163.594 54.1661C162.235 53.6423 160.759 53.2622 159.238 52.8156C158.461 52.6693 157.671 52.5205 156.868 52.3663C156.065 52.1935 155.243 52.0925 154.4 52.0393C151.044 51.6086 147.435 51.8053 143.776 52.4115C140.116 53.0575 136.422 54.2857 132.917 56.0536C131.728 56.657 130.571 57.3403 129.449 58.0846C127.266 59.5308 125.207 61.2083 123.29 62.9655L123.058 63.1888L123.005 63.234L122.875 63.351L122.351 63.8162L121.306 64.7467L120.261 65.6745L119.247 66.4029C118.556 66.8761 117.939 67.4078 117.2 67.8438L116.665 68.1575L114.982 69.1491C111.939 70.6857 108.822 72.0495 105.61 72.7513C102.411 73.3946 99.2325 73.9024 96.19 73.7642C94.6635 73.8413 93.2061 73.5302 91.7647 73.4638C90.3552 73.2192 88.959 73.0384 87.6612 72.7061C85.0603 72.0388 82.6987 71.236 80.6828 70.3188C79.6908 69.827 78.7228 69.4229 77.8824 68.9471L76.5287 68.1575L75.5766 67.6045C74.2123 66.7405 73.1911 65.9643 72.4598 65.4751C71.7284 64.9806 71.3721 64.6723 71.3721 64.6723C71.3721 64.6723 71.654 65.0524 72.2577 65.6905C72.8161 66.2567 73.5342 67.1659 74.5847 68.1575C74.6937 68.2612 74.8054 68.3622 74.9198 68.4659C75.5527 69.0109 76.2522 69.6117 77.0154 70.2683C77.784 70.9276 78.7308 71.4752 79.6882 72.1531C81.6455 73.4372 84.0151 74.6787 86.7463 75.6995Z" fill="#DAE2F3"/>
<path id="Vector_22" d="M83.5736 68.1574C85.1214 68.4233 86.717 68.8513 88.3978 68.931C91.754 69.3644 95.3629 69.1623 99.0223 68.5589C99.6739 68.4445 100.325 68.309 100.98 68.1574C103.99 67.4583 107.003 66.3736 109.881 64.9115C110.737 64.4276 111.596 63.9438 112.455 63.4573C113.317 62.9628 114.141 62.3115 114.984 61.7373L116.24 60.8414L117.303 59.9295L118.364 59.0177L118.894 58.5604L119.258 58.2414L119.511 57.9968C122.074 55.583 124.779 53.4243 127.816 51.8133C128.359 51.5368 128.904 51.2656 129.449 51.0051C131.97 49.8008 134.547 48.7853 137.188 48.2057C140.387 47.5651 143.568 47.0493 146.608 47.1929C148.137 47.1158 149.592 47.4295 151.036 47.4906C152.445 47.7379 153.842 47.9186 155.139 48.2509C157.738 48.9209 160.102 49.7211 162.12 50.6409C163.107 51.13 164.083 51.5394 164.915 52.01C165.748 52.4938 166.516 52.9404 167.205 53.3419C168.578 54.2112 169.617 55.0061 170.343 55.4926C171.075 55.9844 171.426 56.2901 171.426 56.2901C171.426 56.2901 171.141 55.9073 170.538 55.2693C169.915 54.6445 169.125 53.6184 167.894 52.5151C167.256 51.9648 166.551 51.3613 165.782 50.702C165.009 50.0374 164.067 49.4951 163.107 48.8145C161.15 47.5332 158.783 46.2917 156.049 45.2682C154.687 44.7444 153.211 44.3669 151.693 43.9203C150.916 43.7714 150.126 43.6226 149.323 43.471C148.52 43.2982 147.696 43.1946 146.855 43.1414C143.499 42.7134 139.89 42.9074 136.231 43.5136C133.965 43.915 131.688 44.5371 129.449 45.3745C128.071 45.8876 126.707 46.4831 125.372 47.1557C121.872 48.9342 118.649 51.4065 115.742 54.0703L115.511 54.2936L115.46 54.3388L115.33 54.4531L114.806 54.921L113.761 55.8515L112.716 56.7793L111.703 57.505C111.011 57.9782 110.394 58.5099 109.655 58.9486L107.437 60.2512C104.392 61.7904 101.278 63.1542 98.0649 63.8534C94.8656 64.4967 91.6849 65.0045 88.6451 64.8663C87.1186 64.9434 85.6612 64.6323 84.2198 64.5659C82.8076 64.3213 81.4141 64.1405 80.1136 63.8082C77.5153 63.1409 75.1537 62.3381 73.1352 61.4209C72.1459 60.9318 71.1779 60.525 70.3348 60.0492C69.4971 59.56 68.7258 59.1134 68.0317 58.7066C66.6674 57.8453 65.6462 57.0664 64.9149 56.5772C64.1808 56.0827 63.8271 55.7744 63.8271 55.7744C63.8271 55.7744 64.1064 56.1545 64.7127 56.7952C65.3271 57.4173 66.1382 58.4594 67.3748 59.568C68.0078 60.113 68.7072 60.7164 69.4705 61.3704C70.2391 62.0324 71.1832 62.5773 72.1433 63.2552C74.1006 64.5393 76.4675 65.7808 79.2014 66.8016C80.563 67.328 82.039 67.7082 83.5576 68.1548L83.5762 68.1574H83.5736Z" fill="#DAE2F3"/>
<path id="Vector_23" d="M200.717 90.8581C200.097 90.2307 199.305 89.2072 198.076 88.1013C197.438 87.5536 196.733 86.9475 195.965 86.2909C195.188 85.6236 194.249 85.0813 193.289 84.4034C191.332 83.1193 188.965 81.8805 186.231 80.857C184.872 80.3333 183.393 79.9531 181.875 79.5065C181.098 79.3603 180.306 79.2087 179.505 79.0572C178.702 78.8871 177.878 78.7834 177.037 78.7302C173.678 78.2996 170.072 78.4963 166.413 79.0997C162.753 79.7484 159.059 80.9766 155.554 82.7445C152.052 84.523 148.831 86.9954 145.924 89.6565L145.693 89.8798L145.642 89.925L145.51 90.0419L144.988 90.5072L143.943 91.4403L142.898 92.3681L141.882 93.0938C141.193 93.567 140.576 94.0987 139.834 94.5347L137.616 95.84C134.954 97.1852 132.239 98.3975 129.449 99.1471C129.05 99.2535 128.649 99.3545 128.247 99.4396C125.048 100.086 121.867 100.593 118.827 100.455C117.301 100.53 115.843 100.221 114.399 100.155C112.99 99.9075 111.596 99.7293 110.298 99.3944C107.697 98.7271 105.336 97.9243 103.317 97.0097C102.325 96.5179 101.357 96.1112 100.517 95.638C99.6792 95.1488 98.908 94.6995 98.2112 94.2955C96.8469 93.4315 95.8283 92.6552 95.0943 92.1634C94.363 91.6716 94.0093 91.3632 94.0093 91.3632C94.0093 91.3632 94.2885 91.7433 94.8949 92.3814C95.5092 93.0035 96.3203 94.0456 97.557 95.1568C98.1899 95.7018 98.8894 96.3026 99.6526 96.9592C100.421 97.6185 101.365 98.1635 102.325 98.8441C104.283 100.128 106.65 101.37 109.384 102.39C110.745 102.917 112.221 103.297 113.74 103.744C115.293 104.007 116.894 104.437 118.58 104.52C121.936 104.953 125.545 104.751 129.204 104.148L129.449 104.102C133.029 103.443 136.64 102.239 140.063 100.5C140.919 100.016 141.776 99.53 142.637 99.0435C143.499 98.5516 144.323 97.8977 145.166 97.3234L146.422 96.4275L147.483 95.5183L148.544 94.6038L149.076 94.1492L149.44 93.8276L149.69 93.5857C152.254 91.1718 154.959 89.0105 157.998 87.3994C161.035 85.8522 164.155 84.4964 167.368 83.7946C170.57 83.1512 173.748 82.6355 176.79 82.779C178.316 82.702 179.774 83.0156 181.218 83.0795C182.627 83.324 184.021 83.5048 185.321 83.8398C187.92 84.507 190.284 85.3099 192.303 86.2271C193.289 86.7189 194.265 87.1283 195.098 87.5962C195.93 88.0827 196.696 88.5293 197.387 88.9307C198.757 89.7974 199.797 90.5922 200.526 91.0787C201.257 91.5732 201.608 91.8789 201.608 91.8789C201.608 91.8789 201.323 91.4961 200.717 90.8581Z" fill="#DAE2F3"/>
<path id="Vector_24" d="M129.449 92.9981C130.486 92.5807 131.51 92.1155 132.518 91.6024C133.374 91.1185 134.231 90.6347 135.092 90.1482C135.951 89.6564 136.776 89.0024 137.619 88.4282L138.877 87.5323L139.938 86.6204L140.999 85.7086L141.531 85.2513L141.893 84.9323L142.145 84.6877C144.709 82.2739 147.414 80.1152 150.453 78.5015C153.49 76.9543 156.61 75.6012 159.823 74.8967C163.025 74.2533 166.203 73.7402 169.242 73.8811C170.772 73.8067 172.229 74.1204 173.67 74.1815C175.083 74.4261 176.479 74.6096 177.777 74.9419C180.375 75.6118 182.739 76.412 184.755 77.3318C185.744 77.821 186.72 78.2304 187.553 78.6983C188.385 79.1847 189.151 79.6314 189.842 80.0328C191.212 80.9021 192.252 81.697 192.981 82.1835C193.709 82.6753 194.06 82.981 194.06 82.981C194.06 82.981 193.778 82.5982 193.172 81.9602C192.552 81.3354 191.76 80.3093 190.531 79.2034C189.893 78.6584 189.188 78.0522 188.42 77.393C187.643 76.7283 186.704 76.186 185.744 75.5054C183.784 74.2241 181.42 72.9826 178.686 71.9591C177.324 71.4354 175.848 71.0552 174.33 70.6086C173.551 70.4624 172.761 70.3135 171.96 70.162C171.157 69.9892 170.333 69.8855 169.49 69.8323C166.133 69.4043 162.527 69.5984 158.868 70.2045C155.208 70.8505 151.514 72.0787 148.009 73.8466C144.507 75.6251 141.286 78.0974 138.379 80.7586L138.148 80.9819L138.095 81.0297L137.965 81.1467L137.443 81.6119L136.398 82.5424L135.353 83.4702L134.34 84.1959C133.648 84.6691 133.029 85.2008 132.289 85.6368L130.071 86.9421L129.449 87.2558C126.603 88.6621 123.697 89.8903 120.702 90.5443C117.5 91.1877 114.322 91.6954 111.282 91.5572C109.753 91.6343 108.298 91.3232 106.854 91.2568C105.445 91.0122 104.051 90.8314 102.751 90.4991C100.153 89.8319 97.791 89.029 95.7724 88.1118C94.7805 87.6227 93.8124 87.2159 92.972 86.7401C92.1343 86.2536 91.363 85.8043 90.6663 85.3976C89.302 84.5336 88.2834 83.7573 87.5494 83.2681C86.8181 82.7737 86.4644 82.4653 86.4644 82.4653C86.4644 82.4653 86.7436 82.8454 87.3499 83.4835C87.9643 84.1082 88.7754 85.1503 90.0094 86.2589C90.6423 86.8039 91.3444 87.4047 92.1077 88.0613C92.8763 88.7206 93.8204 89.2656 94.7778 89.9462C96.7378 91.2302 99.1047 92.4717 101.839 93.4925C103.198 94.0189 104.676 94.3991 106.195 94.8457C107.745 95.1089 109.349 95.5395 111.035 95.622C114.391 96.0553 118 95.8532 121.66 95.2498C124.263 94.7872 126.888 94.0375 129.449 92.9981Z" fill="#DAE2F3"/>
<path id="Vector_25" d="M129.449 79.969C129.657 79.8201 129.864 79.6739 130.074 79.5303L131.332 78.6344L132.393 77.7226L133.454 76.8107L133.986 76.3535L134.348 76.0345L134.601 75.7899C137.164 73.3787 139.869 71.2174 142.906 69.6037C143.906 69.0959 144.911 68.6094 145.93 68.1575C148.004 67.2377 150.121 66.472 152.278 65.9988C155.477 65.3581 158.658 64.8424 161.698 64.986C163.227 64.9089 164.684 65.2226 166.126 65.2864C167.538 65.5309 168.931 65.7117 170.232 66.044C172.567 66.6448 174.713 67.3546 176.588 68.1575C176.798 68.2505 177.005 68.3409 177.21 68.434C178.2 68.9258 179.173 69.3325 180.005 69.8031C180.84 70.2896 181.606 70.7335 182.298 71.1376C183.667 72.0043 184.707 72.7991 185.433 73.2856C186.165 73.7775 186.516 74.0858 186.516 74.0858C186.516 74.0858 186.234 73.703 185.627 73.0623C185.005 72.4376 184.213 71.4114 182.987 70.3082C182.348 69.7605 181.641 69.1544 180.875 68.4951C180.739 68.3808 180.598 68.2691 180.455 68.1575C179.771 67.6391 178.992 67.1712 178.197 66.6103C176.24 65.3262 173.873 64.0847 171.139 63.0639C169.78 62.5375 168.304 62.16 166.783 61.7134C166.006 61.5645 165.216 61.4157 164.413 61.2641C163.612 61.0913 162.788 60.9903 161.945 60.9371C158.589 60.5065 154.98 60.7032 151.32 61.3067C147.664 61.9527 143.967 63.1809 140.462 64.9514C138.672 65.8606 136.951 66.9532 135.311 68.1575C133.747 69.3086 132.255 70.5634 130.835 71.8634L130.601 72.0867L130.55 72.1319L130.42 72.2488L129.896 72.7141L129.449 73.1128L128.851 73.6445L127.808 74.5723L126.792 75.3007C126.101 75.774 125.484 76.3056 124.745 76.7416L122.527 78.0469C119.484 79.5835 116.37 80.9446 113.155 81.6465C109.955 82.2925 106.777 82.8002 103.738 82.662C102.208 82.7364 100.751 82.4281 99.3096 82.3589C97.9001 82.1144 96.5066 81.9336 95.2061 81.6013C92.6078 80.934 90.2463 80.1312 88.2277 79.2167C87.2384 78.7248 86.2677 78.3181 85.4273 77.8449C84.5869 77.3557 83.8183 76.9065 83.1216 76.4997C81.7573 75.6384 80.7387 74.8621 80.0047 74.3703C79.2733 73.8785 78.917 73.5674 78.917 73.5674C78.917 73.5674 79.1989 73.9503 79.8026 74.5883C80.4196 75.2104 81.2307 76.2525 82.4647 77.3637C83.0976 77.906 83.7997 78.5095 84.563 79.1635C85.3289 79.8254 86.2757 80.3704 87.2331 81.0483C89.1905 82.335 91.56 83.5739 94.2939 84.5974C95.6529 85.1237 97.1315 85.5039 98.6501 85.9478C100.201 86.2137 101.804 86.6417 103.49 86.7241C106.847 87.1601 110.455 86.9581 114.115 86.3519C117.772 85.7033 121.474 84.483 124.973 82.7072C125.827 82.2234 126.686 81.7369 127.548 81.2504C128.194 80.8808 128.819 80.4209 129.449 79.969Z" fill="#DAE2F3"/>
</g>
<g id="Group_6">
<path id="Vector_26" d="M16.1722 20.4595C17.4727 19.9757 18.8716 19.6141 20.3103 19.1914C21.0869 19.0426 21.8767 18.8937 22.6799 18.7421C23.483 18.5693 24.3048 18.4683 25.1479 18.4152C28.5041 17.9845 32.113 18.1812 35.7724 18.7847C39.4318 19.4333 43.1257 20.6589 46.6309 22.4294C50.1307 24.2079 53.354 26.6803 56.2608 29.3414L56.4921 29.5647L56.5427 29.6099L56.673 29.7269L57.1969 30.1921L58.2421 31.1226L59.2872 32.0504L60.3005 32.7788C60.9919 33.252 61.6089 33.7837 62.3482 34.2197L64.5662 35.525C67.6086 37.0615 70.7255 38.4253 73.9381 39.1245C77.1375 39.7705 80.3181 40.2783 83.3579 40.1374C84.8844 40.2145 86.3418 39.9061 87.7832 39.8396C89.1954 39.5924 90.5889 39.4116 91.8868 39.0793C94.4877 38.412 96.8493 37.6092 98.8652 36.6947C99.8571 36.2029 100.825 35.7961 101.666 35.3229C102.506 34.8338 103.277 34.3845 103.971 33.9804C105.336 33.1164 106.357 32.3401 107.088 31.8483C107.82 31.3565 108.176 31.0455 108.176 31.0455C108.176 31.0455 107.894 31.4283 107.29 32.0663C106.673 32.6884 105.865 33.7305 104.628 34.8417C103.995 35.3841 103.293 35.9875 102.533 36.6415C101.764 37.3035 100.817 37.8484 99.8598 38.5264C97.9024 39.813 95.5329 41.0519 92.8016 42.0754C91.44 42.5991 89.964 42.9793 88.4454 43.4285C86.8923 43.6917 85.2913 44.1224 83.6052 44.2048C80.249 44.6355 76.6401 44.4361 72.9807 43.83C69.3213 43.184 65.622 41.9611 62.1195 40.1826C61.2658 39.7014 60.4069 39.2149 59.5452 38.7284C58.6862 38.2366 57.8618 37.5826 57.0187 37.0084L55.7634 36.1125L54.6997 35.2033L53.6385 34.2888L53.1093 33.8315L52.745 33.5125L52.4923 33.2706C49.9286 30.8567 47.2266 28.6954 44.1869 27.0844C41.1471 25.5372 38.0302 24.1813 34.8149 23.4795C31.6156 22.8362 28.4349 22.3204 25.3952 22.464C23.866 22.3869 22.4086 22.7006 20.9672 22.7644C19.555 23.009 18.1615 23.1897 16.8637 23.522L16.2015 23.6975V23.7055C13.8744 24.3355 11.7496 25.0746 9.91189 25.912C8.92257 26.4011 7.94655 26.8132 7.11681 27.2811C6.28174 27.7676 5.51582 28.2142 4.82436 28.6156C3.45474 29.485 2.41489 30.2772 1.6862 30.7637C0.957508 31.2581 0.606445 31.5639 0.606445 31.5639C0.606445 31.5639 0.88837 31.181 1.49472 30.543C2.11438 29.9156 2.90687 28.8921 4.13554 27.7862C4.77381 27.2386 5.47858 26.6324 6.24716 25.9758C7.02372 25.3085 7.96249 24.7662 8.92255 24.0883C10.8826 22.8043 13.2495 21.5628 15.9807 20.5419L16.1722 20.4701V20.4595Z" fill="#DAE2F3"/>
<path id="Vector_27" d="M100.346 33.1776C98.9848 33.704 97.5089 34.0841 95.9903 34.5307C94.4372 34.7939 92.8362 35.2246 91.1501 35.307C87.7939 35.7403 84.185 35.5383 80.5256 34.9348C76.8662 34.2862 73.1669 33.0659 69.6671 31.2874C68.8107 30.8036 67.9517 30.3198 67.0927 29.8333C66.2311 29.3415 65.4093 28.6875 64.5636 28.1132L63.3083 27.2173L62.2472 26.3055L61.1834 25.391L60.6542 24.9364L60.2899 24.6174L60.0399 24.3728C57.4735 21.9589 54.7715 19.7976 51.7318 18.1866C48.6947 16.6394 45.5751 15.2862 42.3598 14.5817C39.1605 13.9384 35.9825 13.4226 32.9401 13.5662C31.4109 13.4918 29.9562 13.8055 28.5121 13.8666C27.1026 14.1112 25.709 14.292 24.4086 14.6269C21.8076 15.2968 19.446 16.097 17.4302 17.0169C17.0126 17.2216 16.6004 17.413 16.2015 17.5991V17.6124C15.6563 17.8676 15.1351 18.1175 14.6617 18.386C13.8266 18.8698 13.0607 19.3138 12.3693 19.7179C10.9996 20.5872 9.95978 21.3794 9.23375 21.8659C8.5024 22.3604 8.15137 22.6661 8.15137 22.6661C8.15137 22.6661 8.43326 22.2833 9.03961 21.6452C9.66193 21.0178 10.4544 19.9943 11.6831 18.8884C12.3187 18.3434 13.0261 17.7373 13.792 17.078C14.4888 16.4799 15.3159 15.9827 16.1722 15.3979V15.3793L16.4409 15.1905C18.3982 13.9065 20.7651 12.665 23.499 11.6441C24.8607 11.1204 26.3367 10.7403 27.8552 10.2936C28.6318 10.1474 29.4216 9.99855 30.2248 9.84436C31.028 9.67422 31.8524 9.57054 32.6954 9.51737C36.049 9.08936 39.6579 9.28343 43.3173 9.88955C46.9767 10.5356 50.6706 11.7638 54.1758 13.5316C57.6783 15.3101 60.8989 17.7825 63.8056 20.4436L64.037 20.6669L64.0876 20.7148L64.2205 20.8291L64.7418 21.297L65.787 22.2274L66.8321 23.1552L67.848 23.881C68.5368 24.3542 69.1565 24.8859 69.8931 25.3219L72.1138 26.6272C75.1562 28.1664 78.2704 29.5275 81.483 30.2294C84.6823 30.8727 87.863 31.3805 90.9028 31.2422C92.4293 31.3193 93.8867 31.0083 95.3281 30.9418C96.7403 30.6973 98.1338 30.5165 99.4343 30.1842C102.033 29.5142 104.394 28.7114 106.413 27.7969C107.402 27.3077 108.37 26.901 109.213 26.4251C110.051 25.936 110.822 25.4867 111.516 25.0826C112.88 24.2186 113.902 23.4423 114.633 22.9532C115.364 22.4587 115.721 22.1503 115.721 22.1503C115.721 22.1503 115.442 22.5305 114.835 23.1685C114.221 23.7906 113.41 24.8354 112.173 25.9439C111.54 26.4889 110.841 27.0897 110.077 27.7464C109.309 28.4057 108.362 28.9507 107.405 29.6312C105.447 30.9153 103.08 32.1568 100.346 33.1776Z" fill="#DAE2F3"/>
<path id="Vector_28" d="M107.891 24.2798C106.532 24.8061 105.054 25.1863 103.535 25.6329C101.982 25.8988 100.381 26.3294 98.695 26.4092C95.3388 26.8425 91.7299 26.6405 88.0705 26.037C84.4111 25.3883 80.7118 24.1681 77.212 22.3896C76.3557 21.9058 75.4993 21.4219 74.6377 20.9354C73.7787 20.4436 72.9542 19.7896 72.1112 19.2154L70.8532 18.3195L69.7921 17.4077L68.731 16.4958L68.1991 16.0386L67.8348 15.7195L67.5848 15.475C65.0211 13.0637 62.3164 10.9024 59.2767 9.2914C56.2396 7.74418 53.1201 6.38837 49.9048 5.68654C46.7055 5.0432 43.5274 4.52746 40.485 4.67101C38.9585 4.59392 37.5011 4.90761 36.057 4.96876C34.6475 5.216 33.254 5.39677 31.9535 5.72908C29.3552 6.39901 26.9909 7.1992 24.9751 8.11903C23.9858 8.60818 23.0098 9.01758 22.1774 9.48813C21.345 9.97197 20.579 10.4186 19.8876 10.8227C18.5153 11.6893 17.4781 12.4842 16.7494 12.9707C16.534 13.1169 16.3505 13.2445 16.2016 13.3562V13.3774C15.8611 13.6273 15.6963 13.7709 15.6963 13.7709C15.6963 13.7709 15.8505 13.5635 16.1723 13.1967V13.1648C16.2813 13.0425 16.409 12.9042 16.5579 12.75C17.1776 12.1227 17.9701 11.0965 19.1988 9.99058C19.837 9.44559 20.5418 8.83947 21.3104 8.18017C22.0843 7.51556 23.0257 6.97323 23.9858 6.29533C25.9458 5.01129 28.31 3.7698 31.044 2.74895C32.4056 2.22524 33.8816 1.84242 35.4001 1.39846C36.1767 1.24958 36.9666 1.10071 37.7697 0.949179C38.5729 0.77638 39.3973 0.6727 40.2403 0.622189C43.5939 0.19152 47.2028 0.388246 50.8622 0.991714C54.5216 1.63772 58.2156 2.86592 61.7207 4.63645C65.2232 6.4123 68.4438 8.88466 71.3506 11.5484L71.5819 11.7717L71.6325 11.8169L71.7655 11.9339L72.2867 12.3991L73.3319 13.3296L74.377 14.2574L75.3929 14.9831C76.0817 15.459 76.7014 15.988 77.4407 16.4267L79.6587 17.732C82.7011 19.2686 85.8153 20.6297 89.0279 21.3315C92.2273 21.9749 95.4079 22.4826 98.4477 22.3444C99.9769 22.4215 101.432 22.1105 102.876 22.044C104.285 21.7994 105.679 21.6186 106.979 21.2863C109.577 20.6191 111.939 19.8162 113.958 18.899C114.947 18.4099 115.918 18.0032 116.758 17.5299C117.596 17.0408 118.367 16.5915 119.064 16.1848C120.425 15.3234 121.447 14.5445 122.181 14.0553C122.912 13.5609 123.266 13.2525 123.266 13.2525C123.266 13.2525 122.986 13.6327 122.383 14.2733C121.766 14.8954 120.955 15.9375 119.718 17.0488C119.085 17.5911 118.386 18.1946 117.622 18.8485C116.856 19.5105 115.91 20.0555 114.95 20.7334C112.992 22.0201 110.625 23.2589 107.891 24.2798Z" fill="#DAE2F3"/>
<path id="Vector_29" d="M16.1724 4.75077C16.5128 4.50086 16.6777 4.3573 16.6777 4.3573C16.6777 4.3573 16.5154 4.5753 16.1724 4.9608V4.75077Z" fill="#DAE2F3"/>
<path id="Vector_30" d="M130.308 4.75071C130.645 4.50081 130.81 4.35726 130.81 4.35726C130.81 4.35726 130.651 4.57525 130.308 4.96073C130.199 5.08302 130.071 5.22125 129.927 5.37544C129.31 5.99752 128.499 7.03964 127.265 8.15087C126.63 8.69585 125.93 9.29666 125.167 9.9533C124.401 10.6126 123.454 11.1576 122.497 11.8381C120.537 13.1222 118.17 14.3637 115.436 15.3845C114.077 15.9109 112.599 16.2911 111.08 16.7377C109.527 17.0009 107.926 17.4315 106.24 17.5139C102.883 17.9473 99.2746 17.7452 95.6152 17.1418C91.9558 16.4931 88.2565 15.2702 84.7567 13.4944C83.903 13.0105 83.044 12.524 82.1824 12.0375C81.3234 11.5457 80.4989 10.8917 79.6559 10.3202L78.3979 9.42161L77.3368 8.50976L76.2757 7.59791L75.7438 7.14332L75.3821 6.82164L75.1295 6.57972C72.5658 4.16585 69.8611 2.00453 66.8214 0.393505C66.5661 0.263241 66.3108 0.132977 66.0528 0.00537109H75.805C76.8714 0.853417 77.9006 1.74134 78.8953 2.65053L79.1266 2.87384L79.1772 2.91903L79.3101 3.03601L79.8314 3.50124L80.8792 4.43169L81.9217 5.35949L82.9376 6.08791C83.6264 6.56111 84.2461 7.0928 84.9854 7.52879L87.2034 8.83409C90.2458 10.3707 93.36 11.7345 96.5753 12.4363C99.7746 13.0796 102.953 13.5874 105.992 13.4492C107.522 13.5236 108.979 13.2152 110.418 13.1488C111.83 12.9042 113.223 12.7234 114.524 12.3911C117.122 11.7212 119.484 10.9183 121.502 10.0038C122.492 9.512 123.462 9.10525 124.303 8.63205C125.14 8.14289 125.912 7.69362 126.608 7.28953C127.973 6.42553 128.994 5.64927 129.725 5.16011C129.957 5.00326 130.151 4.86502 130.308 4.75071ZM30.8683 0.00537109C30.4667 0.19678 30.0811 0.388188 29.7221 0.590231C28.8896 1.07673 28.1237 1.52069 27.4323 1.92477C26.0627 2.79143 25.0228 3.58631 24.2941 4.0728C23.5654 4.56728 23.2144 4.873 23.2144 4.873C23.2144 4.873 23.4963 4.49018 24.1026 3.85215C24.7249 3.22476 25.5148 2.19859 26.7435 1.09534L28.012 0.00537109H30.8683Z" fill="#DAE2F3"/>
<path id="Vector_31" d="M130.308 0.507819C130.662 0.340336 131.01 0.175512 131.343 0.00537109H133.935L132.712 1.05546C132.015 1.65361 131.172 2.15872 130.308 2.75421L130.042 2.9403C128.085 4.22434 125.715 5.46583 122.981 6.48934C121.622 7.01305 120.144 7.39321 118.625 7.83983C117.075 8.10302 115.474 8.53369 113.787 8.6161C110.429 9.04943 106.82 8.84738 103.16 8.24391C99.5009 7.59525 95.8043 6.37502 92.3018 4.59652C91.4481 4.11268 90.5891 3.62618 89.7274 3.13969C88.8684 2.64787 88.044 1.99655 87.201 1.42233L85.943 0.526428L85.3394 0.00537109H94.8868C97.8866 1.51537 100.956 2.84726 104.12 3.53845C107.32 4.1818 110.498 4.68956 113.538 4.55132C115.067 4.62576 116.524 4.31738 117.965 4.25092C119.375 4.00634 120.771 3.82557 122.069 3.49326C124.667 2.82599 127.029 2.02314 129.047 1.10597C129.473 0.895953 129.896 0.699227 130.308 0.507819Z" fill="#DAE2F3"/>
</g>
<g id="Group_7">
<path id="Vector_32" d="M16.1722 138.641C17.4727 138.16 18.8716 137.796 20.3103 137.373C21.0869 137.227 21.8767 137.078 22.6799 136.926C23.483 136.754 24.3048 136.65 25.1479 136.597C28.5041 136.169 32.113 136.363 35.7724 136.969C39.4318 137.615 43.1257 138.843 46.6309 140.611C50.1307 142.389 53.354 144.862 56.2608 147.523L56.4921 147.749L56.5427 147.794L56.673 147.911L57.1969 148.374L58.2421 149.307L59.2872 150.235L60.3005 150.96C60.9919 151.434 61.6089 151.965 62.3482 152.401L64.5662 153.707C67.6086 155.246 70.7255 156.607 73.9381 157.309C77.1375 157.952 80.3181 158.46 83.3579 158.322C84.8844 158.396 86.3418 158.088 87.7832 158.021C89.1954 157.777 90.5889 157.596 91.8868 157.264C94.4877 156.596 96.8493 155.793 98.8652 154.876C99.8571 154.387 100.825 153.98 101.666 153.504C102.506 153.018 103.277 152.569 103.971 152.162C105.336 151.298 106.357 150.522 107.088 150.033C107.82 149.538 108.176 149.23 108.176 149.23C108.176 149.23 107.894 149.61 107.29 150.248C106.673 150.873 105.865 151.915 104.628 153.023C103.995 153.568 103.293 154.169 102.533 154.826C101.764 155.485 100.817 156.03 99.8598 156.711C97.9024 157.997 95.5329 159.236 92.8016 160.26C91.44 160.783 89.964 161.163 88.4454 161.61C86.8923 161.873 85.2913 162.307 83.6052 162.386C80.249 162.82 76.6401 162.618 72.9807 162.014C69.3213 161.366 65.622 160.145 62.1195 158.367C61.2658 157.883 60.4069 157.399 59.5452 156.91C58.6862 156.418 57.8618 155.767 57.0187 155.193L55.7634 154.297L54.6997 153.385L53.6385 152.473L53.1093 152.016L52.745 151.694L52.4923 151.452C49.9286 149.038 47.2266 146.88 44.1869 145.266C41.1471 143.719 38.0302 142.366 34.8149 141.661C31.6156 141.018 28.4349 140.505 25.3952 140.646C23.866 140.571 22.4086 140.885 20.9672 140.946C19.555 141.193 18.1615 141.374 16.8637 141.706L16.2015 141.882V141.887C13.8744 142.52 11.7496 143.259 9.91189 144.094C8.92257 144.585 7.94655 144.995 7.11681 145.465C6.28174 145.949 5.51582 146.396 4.82436 146.797C3.45474 147.667 2.41489 148.459 1.6862 148.948C0.957508 149.44 0.606445 149.745 0.606445 149.745C0.606445 149.745 0.88837 149.363 1.49472 148.725C2.11438 148.1 2.90687 147.074 4.13554 145.968C4.77381 145.42 5.47858 144.817 6.24716 144.157C7.02372 143.493 7.96249 142.95 8.92255 142.27C10.8826 140.988 13.2495 139.747 15.9807 138.723L16.1722 138.652V138.641Z" fill="#DAE2F3"/>
<path id="Vector_33" d="M100.346 151.362C98.9848 151.885 97.5089 152.266 95.9903 152.712C94.4372 152.978 92.8362 153.409 91.1501 153.489C87.7939 153.922 84.185 153.72 80.5256 153.116C76.8662 152.468 73.1669 151.247 69.6671 149.469C68.8107 148.988 67.9517 148.501 67.0927 148.015C66.2311 147.523 65.4093 146.869 64.5636 146.295L63.3083 145.399L62.2472 144.487L61.1834 143.575L60.6542 143.118L60.2899 142.799L60.0399 142.554C57.4735 140.143 54.7715 137.982 51.7318 136.371C48.6947 134.824 45.5751 133.468 42.3598 132.766C39.1605 132.123 35.9825 131.607 32.9401 131.75C31.4109 131.673 29.9562 131.987 28.5121 132.048C27.1026 132.295 25.709 132.476 24.4086 132.808C21.8076 133.478 19.446 134.281 17.4302 135.198C17.0126 135.406 16.6004 135.594 16.2015 135.783V135.797C15.6563 136.052 15.1351 136.299 14.6617 136.567C13.8266 137.054 13.0607 137.498 12.3693 137.899C10.9996 138.769 9.95978 139.564 9.23375 140.05C8.5024 140.545 8.15137 140.85 8.15137 140.85C8.15137 140.85 8.43326 140.467 9.03961 139.829C9.66193 139.202 10.4544 138.176 11.6831 137.07C12.3187 136.525 13.0261 135.919 13.792 135.26C14.4888 134.664 15.3159 134.167 16.1722 133.579V133.561L16.4409 133.375C18.3982 132.091 20.7651 130.849 23.499 129.828C24.8607 129.305 26.3367 128.924 27.8552 128.478C28.6318 128.329 29.4216 128.18 30.2248 128.029C31.028 127.856 31.8524 127.752 32.6954 127.702C36.049 127.271 39.6579 127.468 43.3173 128.071C46.9767 128.717 50.6706 129.945 54.1758 131.716C57.6783 133.494 60.8989 135.964 63.8056 138.628L64.037 138.851L64.0876 138.896L64.2205 139.013L64.7418 139.478L65.787 140.409L66.8321 141.337L67.848 142.065C68.5368 142.538 69.1565 143.07 69.8931 143.506L72.1138 144.811C75.1562 146.348 78.2704 147.712 81.483 148.411C84.6823 149.057 87.863 149.562 90.9028 149.426C92.4293 149.501 93.8867 149.19 95.3281 149.123C96.7403 148.879 98.1338 148.698 99.4343 148.366C102.033 147.698 104.394 146.896 106.413 145.978C107.402 145.489 108.37 145.083 109.213 144.609C110.051 144.12 110.822 143.671 111.516 143.267C112.88 142.403 113.902 141.624 114.633 141.135C115.364 140.64 115.721 140.332 115.721 140.332C115.721 140.332 115.442 140.715 114.835 141.353C114.221 141.975 113.41 143.017 112.173 144.128C111.54 144.67 110.841 145.274 110.077 145.928C109.309 146.59 108.362 147.135 107.405 147.813C105.447 149.099 103.08 150.338 100.346 151.362Z" fill="#DAE2F3"/>
<path id="Vector_34" d="M107.891 142.464C106.532 142.99 105.054 143.37 103.535 143.817C101.982 144.08 100.381 144.511 98.695 144.593C95.3388 145.027 91.7299 144.825 88.0705 144.221C84.4111 143.573 80.7118 142.35 77.212 140.571C76.3557 140.09 75.4993 139.603 74.6377 139.117C73.7787 138.625 72.9542 137.971 72.1112 137.397L70.8532 136.504L69.7921 135.589L68.731 134.677L68.1991 134.223L67.8348 133.904L67.5848 133.659C65.0211 131.245 62.3164 129.084 59.2767 127.473C56.2396 125.926 53.1201 124.57 49.9048 123.868C46.7055 123.225 43.5274 122.709 40.485 122.853C38.9585 122.778 37.5011 123.089 36.057 123.153C34.6475 123.4 33.254 123.578 31.9535 123.913C29.3552 124.581 26.9909 125.383 24.9751 126.303C23.9858 126.792 23.0098 127.202 22.1774 127.67C21.345 128.156 20.579 128.603 19.8876 129.004C18.5153 129.874 17.4781 130.666 16.7494 131.152C16.534 131.298 16.3505 131.429 16.2016 131.538V131.559C15.8611 131.809 15.6963 131.952 15.6963 131.952C15.6963 131.952 15.8505 131.745 16.1723 131.381V131.349C16.2813 131.227 16.409 131.086 16.5579 130.932C17.1776 130.304 17.9701 129.281 19.1988 128.175C19.837 127.627 20.5418 127.024 21.3104 126.362C22.0843 125.697 23.0257 125.157 23.9858 124.477C25.9458 123.193 28.31 121.951 31.044 120.931C32.4056 120.407 33.8816 120.027 35.4001 119.58C36.1767 119.434 36.9666 119.285 37.7697 119.131C38.5729 118.958 39.3973 118.857 40.2403 118.804C43.5939 118.376 47.2028 118.57 50.8622 119.176C54.5216 119.822 58.2156 121.05 61.7207 122.818C65.2232 124.597 68.4438 127.069 71.3506 129.73L71.5819 129.953L71.6325 130.001L71.7655 130.115L72.2867 130.581L73.3319 131.511L74.377 132.439L75.3929 133.167C76.0817 133.641 76.7014 134.172 77.4407 134.608L79.6587 135.914C82.7011 137.453 85.8153 138.814 89.0279 139.513C92.2273 140.159 95.4079 140.667 98.4477 140.529C99.9769 140.603 101.432 140.295 102.876 140.226C104.285 139.984 105.679 139.803 106.979 139.471C109.577 138.801 111.939 137.998 113.958 137.083C114.947 136.591 115.918 136.185 116.758 135.711C117.596 135.222 118.367 134.773 119.064 134.366C120.425 133.505 121.447 132.729 122.181 132.24C122.912 131.745 123.266 131.437 123.266 131.437C123.266 131.437 122.986 131.814 122.383 132.455C121.766 133.077 120.955 134.122 119.718 135.23C119.085 135.773 118.386 136.376 117.622 137.033C116.856 137.692 115.91 138.237 114.95 138.918C112.992 140.202 110.625 141.443 107.891 142.464Z" fill="#DAE2F3"/>
<path id="Vector_35" d="M16.1724 122.932C16.5128 122.682 16.6777 122.539 16.6777 122.539C16.6777 122.539 16.5154 122.759 16.1724 123.145V122.932Z" fill="#DAE2F3"/>
<path id="Vector_36" d="M130.308 122.932C130.645 122.682 130.81 122.539 130.81 122.539C130.81 122.539 130.651 122.759 130.308 123.145C130.199 123.267 130.071 123.405 129.927 123.557C129.31 124.182 128.499 125.224 127.265 126.332C126.63 126.877 125.93 127.481 125.167 128.135C124.401 128.797 123.454 129.342 122.497 130.02C120.537 131.304 118.17 132.545 115.436 133.569C114.077 134.092 112.599 134.473 111.08 134.919C109.527 135.182 107.926 135.613 106.24 135.695C102.883 136.129 99.2746 135.927 95.6152 135.323C91.9558 134.675 88.2565 133.454 84.7567 131.676C83.903 131.192 83.044 130.708 82.1824 130.222C81.3234 129.73 80.4989 129.076 79.6559 128.502L78.3979 127.606L77.3368 126.694L76.2757 125.782L75.7438 125.325L75.3821 125.006L75.1295 124.761C72.5658 122.347 69.8611 120.189 66.8214 118.578C63.7843 117.028 60.6647 115.675 57.4521 114.97C54.2528 114.327 51.0721 113.814 48.0297 113.957C46.5032 113.88 45.0458 114.194 43.6044 114.255C42.1922 114.502 40.7987 114.683 39.4982 115.015C36.8999 115.685 34.5356 116.485 32.5198 117.405C31.5305 117.894 30.5571 118.304 29.7221 118.774C28.8896 119.258 28.1237 119.705 27.4323 120.106C26.0627 120.976 25.0228 121.768 24.2941 122.257C23.5654 122.749 23.2144 123.055 23.2144 123.055C23.2144 123.055 23.4963 122.674 24.1026 122.034C24.7249 121.406 25.5148 120.383 26.7435 119.277C27.3817 118.732 28.0865 118.126 28.8551 117.466C29.6316 116.799 30.5704 116.259 31.5305 115.579C33.4905 114.298 35.8574 113.056 38.5913 112.033C39.9503 111.509 41.4263 111.129 42.9448 110.685C43.724 110.536 44.5139 110.387 45.3144 110.235C46.1202 110.063 46.942 109.959 47.785 109.906C51.1412 109.478 54.7501 109.672 58.4095 110.278C62.0663 110.924 65.7629 112.152 69.2654 113.923C72.7679 115.699 75.9885 118.171 78.8953 120.835L79.1266 121.055L79.1772 121.103L79.3101 121.22L79.8314 121.685L80.8792 122.616L81.9217 123.544L82.9376 124.269C83.6264 124.743 84.2461 125.274 84.9854 125.713L87.2034 127.018C90.2458 128.555 93.36 129.916 96.5753 130.618C99.7746 131.261 102.953 131.769 105.992 131.631C107.522 131.705 108.979 131.397 110.418 131.33C111.83 131.086 113.223 130.905 114.524 130.573C117.122 129.905 119.484 129.102 121.502 128.185C122.492 127.696 123.462 127.289 124.303 126.816C125.14 126.324 125.912 125.878 126.608 125.471C127.973 124.607 128.994 123.831 129.725 123.342C129.957 123.185 130.151 123.047 130.308 122.932Z" fill="#DAE2F3"/>
<path id="Vector_37" d="M130.308 118.689C130.85 118.437 131.369 118.187 131.848 117.918C132.688 117.429 133.457 116.98 134.153 116.576C135.518 115.712 136.539 114.933 137.27 114.444C138.002 113.952 138.358 113.641 138.358 113.641C138.358 113.641 138.076 114.021 137.472 114.662C136.855 115.284 136.047 116.326 134.81 117.437C134.177 117.98 133.475 118.583 132.712 119.237C132.015 119.838 131.172 120.343 130.308 120.938L130.042 121.122C128.084 122.408 125.715 123.647 122.981 124.671C121.622 125.195 120.143 125.575 118.625 126.024C117.074 126.287 115.473 126.718 113.787 126.8C110.428 127.231 106.82 127.032 103.16 126.425C99.5008 125.777 95.8041 124.557 92.3016 122.781C91.4479 122.297 90.5889 121.81 89.7273 121.324C88.8683 120.832 88.0438 120.178 87.2008 119.604L85.9429 118.708L84.8817 117.796L83.8206 116.884L83.2887 116.427L82.927 116.108L82.6744 115.863C80.1107 113.452 77.4061 111.291 74.369 109.68C71.3292 108.133 68.2097 106.777 64.9971 106.075C61.7977 105.429 58.617 104.916 55.5773 105.059C54.0481 104.982 52.5907 105.296 51.1493 105.36C49.7371 105.604 48.3436 105.785 47.0431 106.12C44.4448 106.787 42.0806 107.588 40.0647 108.507C39.0754 108.997 38.102 109.409 37.2696 109.877C36.4346 110.363 35.6686 110.807 34.9772 111.211C33.6076 112.078 32.5677 112.873 31.839 113.359C31.1103 113.854 30.7593 114.159 30.7593 114.159C30.7593 114.159 31.0412 113.777 31.6476 113.136C32.2699 112.511 33.0597 111.485 34.291 110.382C34.9266 109.834 35.6314 109.228 36.4027 108.569C37.1766 107.904 38.1153 107.362 39.0754 106.684C41.0354 105.4 43.4023 104.158 46.1362 103.137C47.4952 102.614 48.9712 102.234 50.4924 101.787C51.269 101.638 52.0588 101.489 52.862 101.338C53.6651 101.165 54.4869 101.064 55.3299 101.011C58.6862 100.58 62.2924 100.777 65.9545 101.38C69.6112 102.026 73.3078 103.257 76.813 105.025C80.3128 106.803 83.5334 109.276 86.4402 111.937L86.6742 112.16L86.7248 112.205L86.8551 112.322L87.3763 112.788L88.4241 113.718L89.4666 114.646L90.4826 115.374C91.174 115.847 91.791 116.376 92.5303 116.815L94.7483 118.12C97.7907 119.657 100.905 121.021 104.12 121.72C107.32 122.366 110.498 122.874 113.537 122.735C115.067 122.81 116.524 122.502 117.965 122.432C119.375 122.188 120.771 122.01 122.069 121.675C124.667 121.007 127.029 120.205 129.047 119.287C129.473 119.077 129.896 118.883 130.308 118.689Z" fill="#DAE2F3"/>
<path id="Vector_38" d="M130.529 115.773L130.308 115.858C129.007 116.339 127.609 116.704 126.172 117.126C124.619 117.389 123.018 117.82 121.33 117.902C117.976 118.336 114.367 118.134 110.705 117.53C107.048 116.882 103.349 115.659 99.8466 113.883C98.9929 113.399 98.1339 112.913 97.2722 112.426C96.4132 111.934 95.5888 111.283 94.7457 110.709L93.4878 109.81L92.4267 108.901L91.3655 107.986L90.8363 107.532L90.472 107.21L90.2193 106.968C87.6556 104.554 84.951 102.396 81.9139 100.782C78.8741 99.2348 75.7573 97.8817 72.542 97.1772C69.3427 96.5338 66.162 96.0208 63.1222 96.1617C61.593 96.0846 60.1356 96.3983 58.6942 96.4621C57.282 96.7066 55.8885 96.8874 54.588 97.2224C51.9898 97.8923 49.6282 98.6925 47.6096 99.6097C46.623 100.101 45.647 100.511 44.8146 100.981C43.9795 101.465 43.2162 101.912 42.5221 102.313C41.1525 103.183 40.1126 103.975 39.3866 104.461C38.6553 104.956 38.3042 105.262 38.3042 105.262C38.3042 105.262 38.5888 104.879 39.1925 104.241C39.8148 103.616 40.6046 102.59 41.836 101.484C42.4716 100.936 43.179 100.333 43.9449 99.6735C44.7215 99.0089 45.6602 98.4639 46.623 97.786C48.5803 96.5019 50.9472 95.2631 53.6812 94.2422C55.0401 93.7159 56.5188 93.3357 58.0373 92.8891C58.8139 92.7429 59.6038 92.5914 60.4069 92.4398C61.2101 92.2697 62.0345 92.166 62.8749 92.1128C66.2311 91.6848 69.84 91.8789 73.4994 92.485C77.1588 93.131 80.8527 94.3592 84.3579 96.1271C87.8577 97.9056 91.081 100.378 93.9851 103.039L94.2191 103.262L94.2697 103.31L94.4 103.427L94.9239 103.89L95.9691 104.823L97.0116 105.751L98.0275 106.476C98.7189 106.95 99.3359 107.481 100.075 107.917L102.293 109.223C105.336 110.762 108.45 112.123 111.665 112.825C114.864 113.468 118.045 113.976 121.085 113.838C122.611 113.912 124.069 113.604 125.51 113.537C126.92 113.293 128.316 113.112 129.614 112.78L130.308 112.596C132.632 111.966 134.757 111.227 136.595 110.392C137.584 109.901 138.552 109.494 139.393 109.021C140.233 108.531 141.002 108.082 141.698 107.678C143.063 106.814 144.084 106.038 144.815 105.549C145.547 105.054 145.903 104.746 145.903 104.746C145.903 104.746 145.621 105.126 145.017 105.764C144.4 106.389 143.592 107.431 142.355 108.539C141.722 109.084 141.02 109.685 140.26 110.342C139.491 111.001 138.544 111.546 137.587 112.227C135.629 113.511 133.263 114.752 130.529 115.773Z" fill="#DAE2F3"/>
</g>
</g>
</svg>
