<svg width="82" height="52" viewBox="0 0 82 52" xmlns="http://www.w3.org/2000/svg">
<path id="Vector" d="M42.7162 19.2379H39.1314C38.7174 19.2379 38.3594 19.011 38.2606 18.6853L36.2972 12.1264C36.1609 11.6726 36.5883 11.2348 37.168 11.2348H40.7529C41.1669 11.2348 41.5249 11.4617 41.6237 11.7874L43.5844 18.3436C43.7206 18.8001 43.2959 19.2379 42.7162 19.2379ZM32.4399 19.2379H28.8577C28.4436 19.2379 28.083 19.011 27.9842 18.6827L26.0235 12.1318C25.8872 11.6726 26.3146 11.2348 26.897 11.2348H30.4765C30.8905 11.2348 31.2511 11.4644 31.35 11.7874L33.3107 18.341C33.4496 18.8001 33.0222 19.2379 32.4399 19.2379ZM22.3719 19.2379H18.8084C18.3917 19.2379 18.0284 19.0084 17.9269 18.68L15.9715 12.1344C15.8353 11.6779 16.2627 11.2348 16.8477 11.2348H20.4138C20.8332 11.2348 21.1965 11.4671 21.298 11.7954L23.2534 18.333C23.3923 18.7948 22.9595 19.2379 22.3719 19.2379ZM48.9537 19.1739L46.066 9.52901C45.7294 8.40783 44.343 7.70842 42.9593 7.94334C42.954 7.94334 42.9513 7.94334 42.946 7.94334H31C30.4418 6.25355 29.8861 4.56377 29.3305 2.87399C29.3305 1.69942 28.1445 0.738403 26.694 0.738403H14.8122C13.3643 0.738403 12.1756 1.69942 12.1756 2.87399V8.1836C11.3288 8.53864 10.7465 9.25672 10.7465 10.0789V19.593C10.7465 20.7675 11.9325 21.7285 13.3857 21.7285C24.5943 21.7366 35.803 21.7419 47.0116 21.7499C48.4221 21.475 49.2956 20.3137 48.9537 19.1739ZM13.8558 36.2185H13.8665C15.106 36.2212 16.9599 36.6243 18.7683 38.5436C19.2144 39.0161 19.5243 39.3018 19.738 39.4699C19.917 39.502 20.1013 39.5287 20.2856 39.5554C20.4993 39.4112 20.8385 39.1469 21.3594 38.6531C22.5108 37.5613 24.3165 36.1144 26.6165 36.1731C28.9271 36.2292 30.6287 37.7748 31.7106 38.9307C32.3811 39.6515 32.6963 39.7075 32.7043 39.7102C32.699 39.7075 33.0356 39.6648 33.7995 38.92C34.2884 38.4449 34.8867 37.8923 35.616 37.4198C38.3354 35.6526 40.8357 35.8047 43.2532 37.8843C43.5417 38.1352 43.7848 38.3861 44.0198 38.629C44.2228 38.8373 44.4152 39.0375 44.6102 39.203C45.0696 39.5981 45.3715 39.6942 45.4837 39.6915C45.5879 39.6888 45.8737 39.5714 46.277 39.1496C46.3652 39.0615 46.448 38.9681 46.5308 38.872C46.6884 38.6958 46.8647 38.4929 47.0811 38.2927C48.9991 36.5255 50.8556 36.1945 52.1111 36.2479C53.3639 36.1972 55.2205 36.5228 57.1411 38.2927C57.3548 38.4929 57.5338 38.6958 57.6914 38.872C57.7715 38.9681 57.8543 39.0615 57.9398 39.1496C58.3458 39.5714 58.6317 39.6888 58.7385 39.6915C58.848 39.6942 59.1526 39.5981 59.612 39.203C59.8044 39.0375 59.9994 38.8373 60.2024 38.629C60.4374 38.3861 60.6805 38.1352 60.969 37.8843C63.3865 35.8047 65.8868 35.6526 68.6062 37.4198C68.6329 37.4385 68.6596 37.4571 68.6863 37.4758C73.0565 32.4118 77.8194 25.9757 75.5782 23.9576C75.2096 23.6266 74.6272 23.3863 73.7163 23.3302H7.8909C7.02006 23.389 6.4217 23.6159 6.02902 23.9576C4.7575 25.0547 4.79223 28.0552 11.5452 36.6883C12.4187 36.328 13.2174 36.2185 13.8558 36.2185ZM81.3802 40.2868C81.3081 39.7476 80.9448 39.3899 80.7044 39.1576C80.5948 39.0508 79.2993 37.8442 77.6538 37.951C76.6227 38.0151 75.3298 38.5089 73.7377 40.2147C72.1616 41.9072 70.9435 41.9072 69.2393 40.2494C68.7531 39.7769 68.2349 39.3098 67.6419 38.9227C65.5609 37.5719 63.9368 37.6814 62.0883 39.2724C61.6048 39.6888 61.2148 40.1774 60.7313 40.5911C59.3075 41.8138 57.9932 41.7577 56.7297 40.4496C56.4733 40.1854 56.2542 39.8997 55.9818 39.6515C54.7263 38.4876 53.404 37.951 52.1111 38.0284C50.8182 37.951 49.4959 38.4876 48.2378 39.6515C47.968 39.8997 47.7462 40.1854 47.4925 40.4496C46.229 41.7577 44.912 41.8138 43.4909 40.5911C43.0074 40.1774 42.6147 39.6888 42.1312 39.2724C40.2854 37.6814 38.6613 37.5719 36.5777 38.9227C35.9873 39.3098 35.4664 39.7769 34.9802 40.2494C33.2786 41.9072 32.0605 41.9072 30.4818 40.2147C27.7277 37.2623 25.4785 37.2009 22.5268 39.9958C20.3844 42.0273 19.5884 42.0006 17.5449 39.8303C15.2342 37.3824 12.4721 37.3877 10.1455 39.8383C9.85695 40.14 9.53373 40.4256 9.1918 40.6899C7.80542 41.7684 6.89986 41.7497 5.60162 40.6125C5.04066 40.1186 4.55715 39.5714 3.98817 39.0855C3.28563 38.4822 2.35336 37.8015 1.44512 38.5276C0.627715 39.1843 0.836077 40.1186 1.7363 40.8367C2.49494 41.44 3.25892 42.046 3.94276 42.7027C5.7619 44.4459 8.33433 45.2013 10.7785 42.9002C13.6288 40.2121 13.733 40.2841 16.7702 42.9109C19.0354 44.8703 21.6025 44.7795 23.6834 42.6573C23.9746 42.3583 24.2124 42.022 24.5276 41.739C25.9086 40.511 27.1721 40.5858 28.449 41.9018C29.026 42.4971 29.6671 43.0684 30.3776 43.5516C32.0926 44.7181 34.1869 44.558 35.7042 43.2125C36.2972 42.684 36.8501 42.1261 37.4859 41.6376C38.907 40.5457 39.7565 40.5965 40.9906 41.7977C41.1776 41.9819 41.3486 42.1768 41.5382 42.3583C42.9193 43.6797 44.2789 44.3231 45.6146 44.2964C47.5272 44.251 49.2795 42.4544 49.6108 42.1154C50.0328 41.6856 50.6953 40.8981 51.7852 40.7566C52.1164 40.7139 52.3836 40.7433 52.4824 40.7566C53.5563 40.8981 54.1947 41.6856 54.6087 42.1154C54.8572 42.3743 56.6469 44.251 58.6076 44.2964C59.9433 44.3231 61.3029 43.6797 62.684 42.3583C62.8736 42.1768 63.0446 41.9819 63.2289 41.7977C64.463 40.5965 65.3125 40.5457 66.7309 41.6376C67.3694 42.1261 67.9223 42.684 68.5154 43.2125C70.0353 44.558 72.1296 44.7181 73.8419 43.5516C74.5551 43.0684 75.1935 42.4971 75.7705 41.9018C77.0234 40.6125 78.2628 40.5164 79.6145 41.6723C79.7294 41.771 79.9537 41.9552 80.2449 41.9472C80.3197 41.9472 80.5174 41.9259 80.7845 41.6936C81.1157 41.4053 81.4603 40.8954 81.3802 40.2868ZM81.2413 47.1127C81.1398 45.9701 79.2806 44.7422 77.6538 44.8543C76.5772 44.9264 75.3164 45.4282 73.7377 47.118C72.1616 48.8078 70.9435 48.8105 69.2393 47.1527C68.7531 46.6775 68.2349 46.2104 67.6419 45.826C67.5243 45.7486 67.4095 45.6791 67.2919 45.6124C67.2759 45.6017 67.2545 45.5884 67.2358 45.5804C67.1316 45.5163 67.0221 45.4602 66.9179 45.4069C66.8939 45.3935 66.8699 45.3829 66.8458 45.3695C66.7416 45.3188 66.6428 45.2761 66.5413 45.2307C66.5173 45.22 66.4932 45.2093 66.4665 45.2013C66.3757 45.1666 66.2849 45.1319 66.1967 45.0999C66.17 45.0919 66.1406 45.0812 66.1112 45.0732C66.0311 45.0465 65.9483 45.0251 65.8655 45.0038C65.8334 44.9985 65.8014 44.9878 65.7693 44.9797C65.6838 44.9611 65.601 44.9451 65.5155 44.9344C65.4781 44.9264 65.4381 44.9237 65.4007 44.9184C65.3205 44.9077 65.2404 44.8997 65.1576 44.897C65.1175 44.8943 65.0774 44.8917 65.04 44.8917C64.9813 44.8917 64.9225 44.8917 64.8611 44.897C64.805 44.897 64.7462 44.9024 64.6901 44.905C64.6367 44.9104 64.5806 44.9184 64.5245 44.9264C63.7178 45.0412 62.9271 45.4523 62.0883 46.173C61.7357 46.48 61.4285 46.8217 61.1026 47.1474C61.0892 47.158 61.0759 47.1714 61.0598 47.1874C60.953 47.2888 60.8435 47.3956 60.7313 47.4944C59.3075 48.7144 57.9932 48.661 56.7297 47.3529C56.4733 47.086 56.2569 46.803 55.9818 46.5494C54.7263 45.3908 53.404 44.8516 52.1111 44.9317C50.8182 44.8516 49.4959 45.3908 48.2378 46.5494C47.968 46.803 47.7462 47.086 47.4925 47.3529C46.229 48.661 44.912 48.7144 43.4909 47.4944C43.0074 47.078 42.6147 46.5895 42.1312 46.173C42.0297 46.0849 41.9255 46.0022 41.824 45.9221C41.7947 45.9007 41.7626 45.874 41.7305 45.8527C41.6584 45.7966 41.5836 45.7432 41.5115 45.6925C41.4794 45.6712 41.4474 45.6471 41.418 45.6258C41.3218 45.5617 41.223 45.5003 41.1295 45.4469C41.1001 45.4282 41.0707 45.4149 41.0387 45.3962C40.9719 45.3588 40.9051 45.3241 40.8357 45.2894C40.7956 45.2681 40.7502 45.2494 40.7074 45.228C40.654 45.204 40.5979 45.18 40.5418 45.1559C40.4964 45.1399 40.451 45.1212 40.4083 45.1026C40.3228 45.0732 40.24 45.0465 40.1545 45.0225C40.1011 45.0064 40.045 44.9931 39.9889 44.9824C39.9515 44.9717 39.9087 44.9611 39.8713 44.9557C39.8126 44.9424 39.7538 44.9344 39.6924 44.9264C39.663 44.921 39.6309 44.9183 39.6015 44.9157C39.3905 44.8917 39.1768 44.8863 38.9604 44.905C38.9391 44.9077 38.9177 44.9077 38.8963 44.9103C38.8242 44.9183 38.7494 44.9264 38.6746 44.9371C38.0148 45.0465 37.3283 45.3428 36.5777 45.826C35.9873 46.2104 35.4664 46.6775 34.9802 47.1527C33.2786 48.8105 32.0605 48.8078 30.4818 47.118C27.7277 44.1656 25.4785 44.1015 22.5268 46.8964C20.3844 48.9279 19.5884 48.9012 17.5449 46.7336C17.4567 46.6402 17.3686 46.5521 17.2804 46.4693C17.2564 46.4426 17.2297 46.4186 17.2056 46.3946C17.1388 46.3332 17.0721 46.2718 17.0053 46.213C16.9812 46.1917 16.9545 46.1703 16.9278 46.149C16.7488 45.9941 16.5672 45.858 16.3829 45.7326C16.3588 45.7165 16.3348 45.7005 16.3134 45.6845C16.2386 45.6364 16.1665 45.5911 16.089 45.5483C16.0677 45.535 16.0463 45.5216 16.0249 45.5083C15.8353 45.3988 15.6429 45.3054 15.4479 45.2253C15.4319 45.2173 15.4159 45.2093 15.3972 45.204C15.3144 45.1693 15.2289 45.1399 15.1434 45.1132C15.13 45.1079 15.114 45.1026 15.1007 45.0972C14.8976 45.0331 14.6973 44.9851 14.4969 44.9504C14.4863 44.9504 14.4756 44.9477 14.4676 44.9477C14.3741 44.9344 14.2752 44.9237 14.1791 44.9157C14.1737 44.9157 14.1684 44.913 14.1604 44.913C13.9547 44.897 13.7437 44.897 13.5353 44.9157C13.5326 44.9157 13.5299 44.9157 13.5273 44.9157C13.4231 44.9237 13.3189 44.937 13.2147 44.9531C13.0037 44.9878 12.7927 45.0385 12.5816 45.1079C11.8177 45.3561 11.0617 45.834 10.3458 46.5361C10.279 46.6001 10.2122 46.6695 10.1455 46.739C9.85695 47.0433 9.53373 47.3262 9.1918 47.5905C7.80542 48.669 6.89986 48.6529 5.60162 47.5131C5.04066 47.0219 4.55715 46.472 3.98817 45.9861C3.28563 45.3855 2.35336 44.7021 1.44512 45.4309C0.627715 46.0849 0.836077 47.0166 1.7363 47.7373C2.49494 48.3406 3.25892 48.9466 3.94276 49.6033C5.7619 51.3491 8.33433 52.1019 10.7785 49.8008C13.6288 47.1127 13.733 47.1847 16.7702 49.8142C19.0354 51.7709 21.6025 51.6775 23.6834 49.5606C23.9746 49.2589 24.2124 48.9226 24.5276 48.6423C25.9086 47.4117 27.1721 47.4891 28.449 48.8025C29.026 49.3978 29.6644 49.969 30.3803 50.4549C32.0926 51.6187 34.1869 51.4586 35.7042 50.1132C36.2972 49.5873 36.8501 49.0267 37.4859 48.5382C38.907 47.4464 39.7591 47.4971 40.9906 48.6983C41.1776 48.8825 41.3486 49.0774 41.5382 49.2589C42.9193 50.5803 44.2789 51.2263 45.6146 51.1943C47.5272 51.1543 49.2795 49.355 49.6108 49.0187C50.0328 48.5916 50.6953 47.7987 51.7852 47.6599C52.1164 47.6172 52.3836 47.6466 52.4824 47.6599C53.5563 47.8014 54.1947 48.5889 54.6087 49.0187C54.8572 49.2749 56.6469 51.1516 58.6076 51.1943C59.9433 51.2263 61.3029 50.5803 62.684 49.2589C62.8736 49.0774 63.0446 48.8825 63.2316 48.6983C64.463 47.4971 65.3125 47.4464 66.7309 48.5382C67.3694 49.0267 67.9223 49.5873 68.5154 50.1132C70.0353 51.4586 72.1296 51.6187 73.8419 50.4549C74.5551 49.969 75.1935 49.3978 75.7732 48.8025C76.9325 47.6065 78.0838 47.4383 79.3233 48.3433C79.3687 48.3967 79.4168 48.4501 79.4756 48.4981C79.5931 48.5969 79.8148 48.7838 80.1087 48.7731C80.1835 48.7704 80.3811 48.7544 80.6483 48.5195C81.0703 48.1538 81.284 47.5638 81.2413 47.1127Z"/>
</svg>
