<svg width="150" height="47" viewBox="0 0 150 47" xmlns="http://www.w3.org/2000/svg">
<g id="Group">
<path id="Vector" d="M148.35 44.1254H95.723C94.8254 44.1254 94.0908 43.3913 94.0908 42.4944C94.0908 41.5974 94.8254 40.8633 95.723 40.8633H148.35C149.245 40.8633 149.979 41.5974 149.979 42.4944C149.979 43.3913 149.245 44.1254 148.35 44.1254Z" />
<path id="Vector_2" d="M90.386 39.4485H83.617C83.0934 39.4485 82.666 39.0134 82.666 38.4822V29.8197C82.666 29.2885 83.0934 28.856 83.617 28.856H90.386C90.9069 28.856 91.3343 29.2885 91.3343 29.8197V38.4822C91.3343 39.0134 90.9069 39.4485 90.386 39.4485Z" />
<path id="Vector_3" d="M96.14 29.0242H95.3306V39.6167H96.14C96.6609 39.6167 97.0883 39.1843 97.0883 38.6531V29.9879C97.0883 29.4567 96.6609 29.0242 96.14 29.0242Z" />
<path id="Vector_4" d="M95.6964 29.0242H93.9281C93.4072 29.0242 92.9824 29.4567 92.9824 29.9879V38.6531C92.9824 39.1843 93.4072 39.6167 93.9281 39.6167H95.6964V29.0242Z" />
<path id="Vector_5" d="M118.659 36.6216C117.945 36.6216 117.371 36.0984 117.371 35.455C117.371 34.8117 117.945 34.2885 118.659 34.2885C119.366 34.2885 119.943 34.8117 119.943 35.455C119.943 36.0984 119.366 36.6216 118.659 36.6216ZM118.659 31.8245C116.554 31.8245 114.852 33.4502 114.852 35.455C114.852 37.4571 116.554 39.0828 118.659 39.0828C120.758 39.0828 122.462 37.4571 122.462 35.455C122.462 33.4502 120.758 31.8245 118.659 31.8245Z" />
<path id="Vector_6" d="M146.122 24.027C146.122 24.4568 145.687 24.8065 145.158 24.8065H138.779C138.282 24.8065 137.87 24.4995 137.822 24.1097V24.1071C137.822 23.9976 137.822 23.8214 137.82 23.6105C137.796 21.2534 137.817 20.7355 137.817 19.9667C137.817 19.1125 138.682 18.413 139.746 18.413H140.924C141.64 18.413 142.267 18.7307 142.599 19.2005C143.71 20.5433 144.821 21.8807 145.932 23.2235C146.05 23.3516 146.122 23.5118 146.122 23.6826V24.027ZM149.795 25.1401C149.723 25.0173 149.629 24.9026 149.52 24.7984C147.637 22.4279 145.753 20.0575 143.87 17.6843C143.523 17.2652 142.932 16.9875 142.265 16.9875H138.298C137.235 16.9875 136.369 17.6869 136.369 18.5438V33.6611C136.369 34.518 137.235 35.2174 138.298 35.2174H138.512C138.512 35.2041 138.512 35.1881 138.512 35.1747C138.512 32.588 140.651 30.4871 143.28 30.4871C145.911 30.4871 148.051 32.588 148.051 35.1747C148.051 35.1881 148.051 35.2041 148.051 35.2174C149.111 35.2174 149.979 34.518 149.979 33.6611V25.7995C149.979 25.5646 149.912 25.343 149.795 25.1401Z" />
<path id="Vector_7" d="M143.279 36.6216C142.572 36.6216 141.997 36.0984 141.997 35.455C141.997 34.8117 142.572 34.2885 143.279 34.2885C143.993 34.2885 144.567 34.8117 144.567 35.455C144.567 36.0984 143.993 36.6216 143.279 36.6216ZM143.279 31.8245C141.18 31.8245 139.476 33.4502 139.476 35.455C139.476 37.4571 141.18 39.0828 143.279 39.0828C145.384 39.0828 147.086 37.4571 147.086 35.455C147.086 33.4502 145.384 31.8245 143.279 31.8245Z" />
<path id="Vector_8" d="M127.364 23.2741C127.049 23.6319 126.605 23.8641 126.122 24.0456C125.206 24.39 124.233 24.5555 123.231 24.5902C123.09 24.5955 122.946 24.5982 122.812 24.5688C122.673 24.5395 122.588 24.5635 122.492 24.6463C122.358 24.7584 122.208 24.8572 122.064 24.9639C121.952 25.0467 121.866 25.0467 121.802 24.9372C121.703 24.7717 121.629 24.5955 121.543 24.422C121.533 24.4033 121.522 24.382 121.517 24.358C121.447 24.123 121.252 23.9949 120.993 23.8828C120.691 23.7493 120.429 23.5598 120.151 23.3969C119.908 23.2528 119.639 23.2528 119.417 23.4263C119.225 23.5758 119.054 23.7466 118.888 23.9148C118.605 24.2031 118.33 24.4994 118.049 24.7904C118.009 24.8278 117.937 24.8491 117.884 24.8758C117.865 24.8251 117.833 24.7771 117.827 24.7263C117.819 24.5502 117.811 24.374 117.811 24.1978C117.814 23.8561 117.857 23.5171 118.014 23.1914C118.073 23.0739 118.063 22.9698 117.958 22.8684C117.566 22.492 117.325 22.0569 117.242 21.5657C117.226 21.4696 117.194 21.3761 117.157 21.232C117.242 21.2373 117.368 21.2533 117.504 21.3014C117.659 21.3548 117.763 21.4269 117.948 21.579C118.226 21.8086 118.669 22.2037 118.84 22.3505C118.851 22.3585 118.888 22.3906 118.941 22.4279C119.23 22.6415 119.428 22.6361 119.668 22.3825C120.037 21.9875 120.472 21.6538 120.99 21.3948C121.119 21.3281 121.255 21.2667 121.396 21.2213C121.565 21.1679 121.573 21.0825 121.533 20.9624C121.455 20.7328 121.41 20.4925 121.322 20.263C121.292 20.1936 121.244 20.0681 121.18 19.9079C121.338 19.8999 121.57 19.8973 121.845 19.94C122.019 19.9667 122.617 20.0788 123.133 20.4765C123.424 20.7008 123.386 20.7862 123.646 20.9143C123.889 21.0344 124.027 21.0131 124.476 21.0958C124.679 21.1305 125.109 21.2213 125.542 21.3815C125.871 21.5043 126.071 21.6191 126.464 21.8433C126.685 21.9714 127.035 22.1877 127.359 22.516C127.628 22.7856 127.62 22.9832 127.364 23.2741ZM132.939 12.4067H112.146C111.085 12.4067 110.214 13.1088 110.214 13.963V33.6611C110.214 34.518 111.085 35.2174 112.146 35.2174H113.887C113.887 35.2041 113.887 35.1881 113.887 35.1747C113.887 32.588 116.027 30.4871 118.658 30.4871C121.287 30.4871 123.426 32.588 123.426 35.1747C123.426 35.1881 123.426 35.2041 123.426 35.2174H132.939C133.999 35.2174 134.868 34.518 134.868 33.6611V13.963C134.868 13.1088 133.999 12.4067 132.939 12.4067Z" />
<path id="Vector_9" d="M92.1891 18.5705H87.9524L90.0334 16.5337L92.1891 18.5705ZM92.3814 22.556C92.515 22.7215 92.5096 22.8417 92.3841 23.0179C92.2291 23.2368 92.0128 23.3756 91.775 23.4877C91.3263 23.6959 90.8481 23.7973 90.3566 23.8187C90.2871 23.8214 90.2177 23.8214 90.1509 23.8054C90.0841 23.7867 90.0414 23.8 89.9933 23.8507C89.9292 23.9201 89.8544 23.9789 89.7849 24.0456C89.7288 24.0963 89.6888 24.0963 89.6567 24.0296C89.6086 23.9282 89.5686 23.8214 89.5285 23.7173C89.5231 23.7039 89.5178 23.6906 89.5151 23.6772C89.4804 23.5331 89.3869 23.4583 89.256 23.3889C89.1091 23.3062 88.9809 23.1914 88.8446 23.0926C88.7244 23.0072 88.5935 23.0072 88.484 23.1113C88.3905 23.2021 88.3077 23.3062 88.2249 23.4076C88.086 23.5838 87.9524 23.7626 87.8109 23.9388C87.7948 23.9629 87.7601 23.9735 87.7334 23.9922C87.7227 23.9629 87.7067 23.9308 87.7067 23.9015C87.7013 23.7947 87.696 23.6852 87.696 23.5785C87.6987 23.3702 87.72 23.1673 87.7975 22.9671C87.8242 22.8977 87.8189 22.8337 87.7681 22.7723C87.5785 22.5427 87.4583 22.2784 87.4182 21.9768C87.4102 21.918 87.3941 21.862 87.3754 21.7766C87.4182 21.7792 87.4796 21.7899 87.5464 21.8166C87.6239 21.8486 87.6746 21.894 87.7655 21.9874C87.9017 22.1263 88.1181 22.3665 88.2009 22.4573C88.2062 22.4626 88.2276 22.4786 88.2516 22.5026C88.3932 22.6335 88.492 22.6281 88.6096 22.4733C88.7885 22.2357 89.0022 22.0328 89.256 21.8727C89.3201 21.8353 89.3869 21.7952 89.4564 21.7712C89.5365 21.7365 89.5418 21.6831 89.5231 21.611C89.4831 21.4696 89.4644 21.3254 89.419 21.1839C89.4056 21.1439 89.3816 21.0691 89.3522 20.9704C89.427 20.965 89.5418 20.9624 89.6781 20.9917C89.7609 21.0077 90.0547 21.0745 90.3085 21.3147C90.4528 21.4535 90.4314 21.5043 90.5596 21.5817C90.6798 21.6537 90.7466 21.6404 90.9683 21.6911C91.0671 21.7152 91.2782 21.7685 91.4919 21.8673C91.6495 21.9421 91.751 22.0115 91.9433 22.1476C92.0529 22.2277 92.2238 22.3585 92.3814 22.556ZM108.185 35.2174H106.416V14.4915C106.697 14.2006 106.993 13.8348 107.258 13.381C107.57 12.8445 107.747 12.3426 107.853 11.9502V7.986C107.853 6.87282 106.94 5.96252 105.826 5.96252H103.294C102.642 5.96252 102.059 6.27487 101.688 6.76071L91.0351 1.68335C90.792 1.26424 90.3406 0.983948 89.8277 0.983948C89.0637 0.983948 88.436 1.61127 88.436 2.37741V5.03889C88.436 5.63953 88.8206 6.15206 89.3549 6.34693L89.5178 15.6181L85.8849 19.1791L85.8902 19.1845C85.5323 19.5502 85.3105 20.0467 85.3105 20.5966V24.9399C85.3105 26.0531 86.2241 26.966 87.3381 26.966H92.9103C94.0242 26.966 94.9351 26.0531 94.9351 24.9399V20.5966C94.9351 20.1829 94.8123 19.8011 94.5986 19.4808L94.6093 19.4701L94.5478 19.4114C94.4009 19.2085 94.2139 19.0323 94.0029 18.8962L90.5302 15.6074L90.3673 6.32291C90.6852 6.18944 90.9389 5.9385 91.0858 5.63151L101.269 10.4846V11.9502C101.344 12.3106 101.504 12.8365 101.862 13.381C102.196 13.8829 102.594 14.2379 102.957 14.4889V35.2174H101.063C100.363 35.2174 99.7915 35.6392 99.7915 36.1571V38.5062C99.7915 39.0268 100.363 39.4485 101.063 39.4485H108.185C108.884 39.4485 109.456 39.0268 109.456 38.5062V36.1571C109.456 35.6392 108.884 35.2174 108.185 35.2174Z" />
<g id="Group_2">
<path id="Vector_10" d="M80.9537 32.8682C80.5503 31.9953 80.155 31.4774 79.2921 31.1064C79.033 30.9943 78.2824 30.6846 77.3341 30.8074C77.1151 30.8341 76.8853 30.8848 76.6636 30.9542C76.108 31.0316 75.5791 31.4134 75.1357 31.7658C74.5613 32.2276 74.0698 32.7454 73.5035 33.2126C72.1919 34.2937 71.273 34.3098 69.8706 33.2874C69.526 33.0364 69.1974 32.7668 68.9063 32.4812C66.5502 30.156 63.7534 30.1507 61.4187 32.4758C59.3485 34.5313 58.5444 34.5554 56.3753 32.6307C53.3862 29.9799 51.1129 30.0386 48.3268 32.8362C47.5414 33.6237 46.8469 34.0241 46.139 34.0402C46.0802 34.1336 46.0081 34.2297 45.9173 34.3258C45.3991 34.881 44.6965 35.172 44.2157 35.3402C43.8364 35.4763 43.441 35.5858 43.035 35.6739C43.035 35.6765 43.0377 35.6765 43.0403 35.6792C44.5763 36.9552 46.6973 37.1074 48.431 36.0022C49.1522 35.5431 49.8013 35.0012 50.3837 34.4352C51.6739 33.1913 52.9534 33.1165 54.3505 34.2831C54.671 34.55 54.9115 34.8704 55.208 35.1533C57.3103 37.1661 59.9094 37.2542 62.2014 35.3962C65.2733 32.9029 65.3775 32.8335 68.2678 35.3829C70.7414 37.5665 73.3406 36.8511 75.1811 35.196C75.8115 34.6301 76.5033 34.1069 77.2005 33.589C77.4917 33.4422 77.7669 33.3541 78.1034 33.3594C78.5736 33.3621 78.9262 33.5036 78.9262 33.5036C79.3482 33.6744 79.399 33.8853 79.8157 33.9814C79.9146 34.0054 80.2004 34.0695 80.5103 33.9761C80.7801 33.8933 81.0151 33.7198 81.0685 33.5169C81.122 33.3007 81.0499 33.0765 80.9537 32.8682ZM8.2257 31.8805C8.27112 31.8832 8.32721 31.8885 8.38865 31.9019H8.394H8.39665H8.402L8.40467 31.9046H8.40735H8.41002H8.41535L8.42338 31.9072H8.42871L8.43138 31.9099H8.43405H8.43673H8.4394L8.44741 31.9126H8.45276L8.45543 31.9152H8.4581H8.46078H8.46344L8.46611 31.9179H8.47146H8.47413H8.4768L8.47946 31.9206H8.48481H8.49016L8.49549 31.9232H8.49816H8.50084L8.50351 31.9259H8.50886H8.51152V31.9286H8.51686H8.51954L8.52221 31.9313H8.52489L8.52756 31.9339H8.53022H8.53556H8.53824L8.54091 31.9366H8.54624H8.54892V31.9393H8.55427H8.55694L8.55961 31.9419H8.56227H8.56494L8.56762 31.9446H8.57297L8.57564 31.9473H8.5783H8.58097L8.58899 31.9499H8.59167L8.597 31.9526L8.60502 31.9553L8.61037 31.9579L8.61837 31.9606L8.62372 31.9633L8.63173 31.966H8.6344L8.63975 31.9686L8.64508 31.9713L8.6531 31.974L8.65845 31.9766L8.66645 31.9793L8.6718 31.982L8.67981 31.9846L8.68783 31.9873L8.69318 31.9927L8.70118 31.9953L8.70653 31.998L8.71453 32.0007L8.71988 32.0033L8.72523 32.006L8.73324 32.0113L8.73858 32.014L8.74659 32.0167L8.75194 32.022L8.75996 32.0247L8.76529 32.0274L8.77064 32.0327L8.77864 32.0354L8.78399 32.038L8.79201 32.0434L8.79734 32.046L8.80536 32.0514L8.81071 32.0541L8.81604 32.0594L8.82407 32.0621L8.8294 32.0674L8.83742 32.0727L8.84277 32.0754H8.84542L8.85077 32.0807L8.85612 32.0861L8.86413 32.0888L8.86947 32.0941H8.87215L8.88015 32.0994L8.8855 32.1048L8.89352 32.1101L8.89885 32.1155L8.90687 32.1208L8.91488 32.1261L8.9229 32.1315L8.93091 32.1368L8.93626 32.1421L8.94428 32.1475L8.95228 32.1528L8.9603 32.1582L8.96564 32.1635H8.96831L8.97633 32.1715L8.98434 32.1768L8.99236 32.1849L9.00036 32.1902L9.00838 32.1955L9.01639 32.2009H9.01906L9.02709 32.2089L9.03509 32.2142L9.04577 32.2249C9.32625 32.4438 9.76969 32.8122 9.94065 32.9537C9.95134 32.9644 9.99141 32.991 10.0422 33.0284C10.336 33.234 10.5417 33.226 10.7848 32.983C11.1587 32.6066 11.6022 32.289 12.1311 32.0354C12.262 31.9766 12.3982 31.9152 12.5425 31.8725C12.7134 31.8191 12.7214 31.739 12.6814 31.6243C12.6039 31.4027 12.5585 31.1731 12.465 30.9542C12.4383 30.8875 12.3902 30.77 12.3261 30.6152C12.4837 30.6045 12.7214 30.6045 12.9993 30.6446C13.1756 30.6713 13.7873 30.778 14.3082 31.1571C14.6074 31.3733 14.5673 31.4561 14.8344 31.5789C15.0775 31.6937 15.2217 31.6723 15.6785 31.7524C15.8816 31.7871 16.3196 31.8699 16.7631 32.0274C17.0943 32.1421 17.3027 32.2543 17.698 32.4705C17.9277 32.5906 18.283 32.7988 18.6143 33.1112C18.8867 33.3674 18.8787 33.5596 18.6196 33.8373C18.2964 34.1816 17.8449 34.4032 17.3534 34.5767C16.4185 34.9077 15.4328 35.0652 14.4097 35.0973C14.2681 35.1026 14.1185 35.1053 13.985 35.0786C13.8434 35.0492 13.7552 35.0732 13.6591 35.1507C13.5228 35.2601 13.3679 35.3562 13.2236 35.455C13.1088 35.5377 13.0206 35.5377 12.9538 35.4309C12.855 35.2734 12.7802 35.1053 12.6921 34.9398C12.6814 34.9211 12.6707 34.8997 12.6654 34.8757C12.5959 34.6515 12.3982 34.5313 12.1338 34.4219C11.8266 34.2938 11.5594 34.1122 11.2763 33.9547C11.0279 33.8186 10.7554 33.8186 10.5283 33.9814C10.3307 34.1282 10.1624 34.2911 9.98874 34.4539C9.70024 34.7289 9.42242 35.0118 9.13393 35.2895C9.10989 35.3108 9.07783 35.3242 9.04577 35.3402H9.04311H9.04044V35.3428H9.03776H9.03509L9.03242 35.3455H9.02974H9.02709V35.3482H9.02441H9.02174L9.01906 35.3509H9.01639L9.00838 35.3535V35.3562H9.00571H9.00304L8.99503 35.3589V35.3615H8.99236L8.98701 35.3642L8.98166 35.3669H8.97899L8.96564 35.3722V35.3696L8.96296 35.3642L8.9603 35.3535L8.95763 35.3509V35.3482L8.95496 35.3455V35.3402H8.95228V35.3375L8.94961 35.3349V35.3322L8.94693 35.3295V35.3268V35.3242H8.94428V35.3215L8.9416 35.3188V35.3162L8.93893 35.3135V35.3108L8.93626 35.3082V35.3028V35.3001H8.93358V35.2975V35.2948H8.93091V35.2921V35.2895V35.2868H8.92825V35.2841V35.2815H8.92558V35.2788V35.2761V35.2735H8.9229V35.2708V35.2681L8.92023 35.2654V35.2628V35.2601L8.91755 35.2574V35.2548L8.91488 35.2521V35.2467V35.2441V35.2414V35.2281H8.91221V35.204V35.1987L8.90955 35.1907V35.1747V35.1667V35.148H8.90687V35.1266V35.1026H8.9042V35.0786V35.0546H8.90153V35.0332V35.0252V34.9985H8.89885V34.9611V34.9531V34.9211H8.89618V34.865V34.857V34.7235V34.6461V34.6301L8.89885 34.6034V34.5901L8.90153 34.526V34.5233L8.9042 34.4966V34.4913V34.4833L8.90687 34.4806V34.4726V34.4646L8.91221 34.4165V34.4032L8.91488 34.3712L8.91755 34.3658L8.92023 34.3552V34.3525V34.3418L8.9229 34.3391V34.3258L8.92558 34.3151V34.3098L8.92825 34.2991L8.93358 34.2724V34.2671L8.93893 34.235V34.2324L8.94428 34.2057L8.95228 34.1683L8.95496 34.1603L8.95763 34.1549L8.96296 34.1309V34.1282L8.96564 34.1149L8.97633 34.0775L8.97899 34.0695L8.98166 34.0642L8.98434 34.0562V34.0508L8.98968 34.0402V34.0375L8.99236 34.0268L8.99769 34.0135V34.0108L9.00036 34.0001L9.00304 33.9948L9.00571 33.9868L9.00838 33.9814L9.01106 33.9734V33.9654L9.01372 33.9601L9.01906 33.9521V33.9467L9.02441 33.936L9.02974 33.9227L9.03509 33.9093V33.9067L9.04044 33.896V33.8933L9.04577 33.8826C9.0618 33.8426 9.0805 33.8026 9.10187 33.7598C9.16064 33.6451 9.15262 33.5463 9.04577 33.4502L9.02974 33.4368L9.02709 33.4342L9.01639 33.4235L9.00838 33.4182L9.00036 33.4101L8.98968 33.3995L8.98701 33.3968L8.97366 33.3835L8.97098 33.3808L8.95763 33.3701L8.95228 33.3648L8.94428 33.3568L8.93626 33.3488L8.93091 33.3434L8.92023 33.3301L8.91755 33.3274L8.9042 33.314L8.90153 33.3114L8.89085 33.3007L8.8855 33.2954L8.87749 33.2874L8.86947 33.2767L8.86413 33.2713L8.85077 33.258L8.84009 33.2446L8.83475 33.242L8.82674 33.2313L8.81872 33.2233L8.81337 33.2153L8.77864 33.1752V33.1726L8.77331 33.1699L8.76529 33.1592L8.75996 33.1512L8.75461 33.1459L8.74393 33.1325V33.1299L8.73056 33.1165V33.1138L8.7092 33.0871L8.70118 33.0765L8.69583 33.0711L8.68783 33.0578L8.67448 33.0418L8.6718 33.0391L8.66378 33.0284L8.65845 33.0204L8.65578 33.0124L8.64775 33.0017L8.64508 32.9991L8.6344 32.983L8.62372 32.967L8.62105 32.9643L8.61302 32.9537L8.60769 32.9457L8.60502 32.9377L8.59967 32.9243L8.59434 32.9216L8.58632 32.9083V32.9056L8.57564 32.8923L8.57297 32.8869L8.56762 32.8762L8.54892 32.8469L8.54091 32.8309V32.8282L8.53289 32.8149L8.52756 32.8095L8.51686 32.7882L8.51419 32.7828L8.49816 32.7535L8.49549 32.7481L8.49016 32.7374L8.48748 32.7294L8.48481 32.7214L8.4768 32.7081V32.7054L8.46878 32.6894L8.46078 32.6734L8.4581 32.668L8.43405 32.6093V32.6066C8.41803 32.5719 8.40468 32.5372 8.394 32.5025L8.38865 32.4945C8.35926 32.3984 8.33255 32.3023 8.31652 32.2009C8.29782 32.1101 8.26577 32.0194 8.2257 31.8805ZM8.44741 36.117L8.39933 36.0956H8.39665L8.394 36.093H8.38865C8.15625 35.9862 7.98528 35.818 7.90247 35.6151C7.87576 35.5591 7.81432 35.4336 7.80364 35.2735C7.78761 35.0732 7.78226 34.8944 7.78226 34.7209C7.78494 34.3498 7.8357 34.0321 7.93988 33.7412C7.93988 33.7412 7.93987 33.7412 7.9372 33.7412C6.91144 34.2697 6.09936 34.0989 5.02551 33.2126C4.4592 32.7454 3.96769 32.2276 3.39337 31.7658C2.68014 31.1972 1.73718 30.5485 0.818263 31.2399C-0.00715938 31.8592 0.201212 32.7454 1.11479 33.4262C1.87877 34.0001 2.65343 34.5714 3.34796 35.196C4.88661 36.5815 6.95951 37.3076 9.04577 36.2291V36.2131L9.03509 36.2158L9.03776 36.2131C8.9229 36.2184 8.80537 36.2104 8.6905 36.1891H8.68783L8.67981 36.1864H8.67448L8.66378 36.1837H8.66112L8.65043 36.1811L8.64775 36.1784H8.64508H8.63975L8.6344 36.1757H8.62905H8.62372V36.1731H8.61837H8.6157L8.61037 36.1704H8.60769H8.60502H8.60235L8.59967 36.1677H8.597L8.59167 36.1651H8.58899H8.58364H8.58097L8.5783 36.1624H8.57564L8.57297 36.1597H8.56762L8.56494 36.1571H8.56227H8.55961L8.55694 36.1544H8.55427H8.54892V36.1517H8.54624H8.54359L8.53824 36.149H8.53556H8.53289H8.52756L8.52489 36.1464H8.52221L8.51686 36.1437H8.51419L8.50886 36.141L8.50351 36.1384H8.50084H8.49816L8.49549 36.1357H8.49283H8.49016V36.133H8.48748H8.48481L8.47946 36.1303H8.4768L8.47413 36.1277H8.47146L8.46878 36.125L8.45543 36.1223L8.45276 36.1197H8.45008L8.44741 36.117ZM3.34796 29.8304C4.88661 31.2158 6.95951 31.9419 9.04577 30.8661V30.8501C9.32091 30.7006 9.58537 30.5244 9.83647 30.3136C10.4375 29.8144 10.9985 29.2858 11.6423 28.8213C13.0767 27.7855 13.9369 27.8363 15.1844 28.9735C15.3767 29.147 15.5477 29.3338 15.74 29.5047C17.1371 30.7593 18.5127 31.3707 19.8644 31.3413C21.8038 31.3039 23.5748 29.5955 23.9114 29.2778C24.3388 28.8694 25.0066 28.1219 26.1098 27.9858C26.4437 27.9484 26.7162 27.9751 26.8151 27.9858C27.9023 28.1219 28.5487 28.8694 28.9681 29.2778C29.2192 29.5207 31.0277 31.3013 33.0124 31.3413C34.3641 31.3707 35.7398 30.7593 37.1368 29.5047C37.3319 29.3338 37.5028 29.147 37.6925 28.9735C38.9399 27.8363 39.8001 27.7855 41.2372 28.8213C41.8783 29.2858 42.442 29.8144 43.0403 30.3136C44.5763 31.5922 46.6973 31.7444 48.431 30.6392C49.1522 30.1801 49.8013 29.6355 50.3837 29.0749C51.6739 27.8256 52.9507 27.7535 54.3532 28.9201C54.671 29.187 54.9115 29.5074 55.208 29.7903C57.3103 31.8004 59.9067 31.8885 62.2014 30.0306C65.2733 27.5373 65.3775 27.4706 68.2678 30.0199C70.7414 32.2009 73.3406 31.4855 75.1811 29.8304C75.8302 29.2484 76.5514 28.7092 77.27 28.1699C77.5371 28.0445 77.7909 27.9724 78.1034 27.9751C78.5736 27.9804 78.9262 28.1246 78.9262 28.1246C79.3482 28.2954 79.399 28.5036 79.8157 28.5997C79.9146 28.6264 80.2004 28.6905 80.5103 28.5944C80.7801 28.5143 81.0178 28.3408 81.0685 28.1379C81.122 27.919 81.0499 27.6948 80.9537 27.4839C80.5503 26.6137 80.155 26.0984 79.2921 25.7247C79.033 25.6126 78.2824 25.3003 77.3341 25.4231C77.0777 25.4578 76.8052 25.5218 76.5461 25.6126C76.0332 25.722 75.547 26.0744 75.1357 26.4028C74.5613 26.8619 74.0698 27.3825 73.5035 27.8496C72.1919 28.9308 71.273 28.9468 69.8706 27.9217C69.526 27.6708 69.1974 27.4038 68.9063 27.1155C66.5502 24.7931 63.7534 24.7877 61.4187 27.1102C59.3485 29.1683 58.5471 29.1924 56.3753 27.265C53.3862 24.6142 51.1129 24.6756 48.3268 27.4732C46.7294 29.0776 45.4979 29.0802 43.7749 27.5079C43.2808 27.0594 42.7545 26.6137 42.1562 26.2479C40.0485 24.9666 38.4057 25.0707 36.5358 26.5789C36.047 26.974 35.6516 27.4359 35.1628 27.8309C33.723 28.9895 32.3873 28.9388 31.1131 27.6948C30.854 27.4465 30.6323 27.1742 30.3572 26.9366C29.083 25.8368 27.75 25.3243 26.4384 25.399C25.1295 25.3243 23.7938 25.8368 22.5197 26.9366C22.2445 27.1742 22.0228 27.4465 21.7664 27.6948C20.4868 28.9388 19.1539 28.9895 17.7167 27.8309C17.2252 27.4359 16.8299 26.974 16.341 26.5789C14.4711 25.0707 12.8283 24.9666 10.7207 26.2479C10.125 26.6137 9.59873 27.0594 9.10455 27.5079C8.85612 27.7322 8.61838 27.9244 8.38865 28.0845V28.1086C7.13582 28.9388 6.2543 28.8614 5.02551 27.8496C4.4592 27.3825 3.96769 26.8619 3.39337 26.4028C2.68014 25.8315 1.73718 25.1828 0.818263 25.8742C-0.00715938 26.4962 0.201212 27.3798 1.11479 28.0605C1.87877 28.6371 2.65343 29.2084 3.34796 29.8304ZM8.38865 38.8372C7.13582 39.6674 6.2543 39.59 5.02551 38.5783C4.4592 38.1111 3.96769 37.5906 3.39337 37.1314C2.68014 36.5601 1.73718 35.9115 0.818263 36.6029C-0.00715938 37.2222 0.201212 38.1084 1.11479 38.7918C1.87877 39.3631 2.65343 39.937 3.34796 40.5617C4.88661 41.9445 6.95951 42.6706 9.04577 41.5948V41.5761C9.32091 41.4293 9.58537 41.2531 9.83647 41.0449C10.4375 40.5457 10.9985 40.0144 11.6423 39.55C13.0767 38.5142 13.9369 38.5623 15.1844 39.7021C15.3767 39.8757 15.5477 40.0598 15.74 40.2334C17.1371 41.488 18.5154 42.0993 19.8644 42.07C21.8038 42.0299 23.5748 40.3241 23.9114 40.0038C24.3388 39.598 25.0066 38.8506 26.1098 38.7171C26.4437 38.677 26.7162 38.7064 26.8151 38.7171C27.9023 38.8506 28.5487 39.598 28.9681 40.0038C29.2192 40.2494 31.0277 42.0299 33.0124 42.07C34.3641 42.0993 35.7398 41.488 37.1368 40.2334C37.3319 40.0598 37.5028 39.8757 37.6925 39.7021C38.9399 38.5623 39.8001 38.5142 41.2372 39.55C41.8783 40.0144 42.442 40.5457 43.0403 41.0449C44.5763 42.3209 46.6973 42.4704 48.431 41.3679C49.1522 40.9087 49.8013 40.3642 50.3837 39.8009C51.6739 38.5543 52.9534 38.4822 54.3505 39.6487C54.671 39.9157 54.9115 40.2333 55.208 40.519C57.3103 42.5291 59.9094 42.6172 62.1987 40.7592C65.276 38.2659 65.3775 38.1992 68.2678 40.7486C70.7414 42.9322 73.3406 42.2141 75.1811 40.5617C75.7901 40.0145 76.4553 39.5073 77.1284 39.0054C77.4463 38.8372 77.7375 38.7358 78.1034 38.7384C78.5736 38.7438 78.9262 38.8853 78.9262 38.8853C79.3482 39.0561 79.399 39.267 79.8157 39.3658C79.9146 39.3871 80.2004 39.4512 80.5103 39.3578C80.7801 39.275 81.0178 39.1015 81.0685 38.8986C81.122 38.6797 81.0499 38.4581 80.9537 38.2472C80.5503 37.377 80.155 36.8591 79.2921 36.4854C79.033 36.3759 78.2824 36.0636 77.3341 36.1864C77.1418 36.2104 76.9414 36.2531 76.7438 36.3119C76.1588 36.3599 75.6005 36.7603 75.1357 37.1314C74.5613 37.5906 74.0698 38.1111 73.5035 38.5783C72.1919 39.6594 71.273 39.6728 69.8706 38.653C69.526 38.4021 69.1974 38.1298 68.9063 37.8442C66.5502 35.5217 63.7534 35.5164 61.4187 37.8388C59.3485 39.8943 58.5444 39.921 56.3753 37.9937C53.3862 35.3429 51.1129 35.4016 48.3268 38.2019C46.7294 39.8062 45.4979 39.8062 43.7749 38.2366C43.2808 37.7854 42.7545 37.3423 42.1562 36.9792C40.0485 35.6952 38.4057 35.7993 36.5358 37.3076C36.047 37.7027 35.6516 38.1645 35.1628 38.5569C33.723 39.7181 32.3873 39.6674 31.1131 38.4261C30.854 38.1752 30.6323 37.9029 30.3572 37.6653C29.083 36.5655 27.75 36.0529 26.4384 36.1277C25.1295 36.0529 23.7938 36.5655 22.5197 37.6653C22.2445 37.9029 22.0228 38.1752 21.7664 38.4261C20.4868 39.6674 19.1539 39.7181 17.7167 38.5569C17.2252 38.1645 16.8299 37.7027 16.341 37.3076C14.4711 35.7993 12.8283 35.6952 10.7207 36.9792C10.125 37.3423 9.59873 37.7854 9.10455 38.2366C8.85612 38.4608 8.61838 38.6557 8.38865 38.8158V38.8372ZM51.9918 13.3517C51.9918 13.1434 52.1868 12.9726 52.4218 12.9726H54.6924C54.9275 12.9726 55.1198 13.1434 55.1198 13.3517V14.8733C55.1198 15.0815 54.9275 15.2523 54.6924 15.2523H52.4218C52.1868 15.2523 51.9918 15.0815 51.9918 14.8733V13.3517ZM56.8134 42.9295C56.7279 43.3994 56.4849 43.8158 56.0842 44.1762C55.9773 44.275 55.9666 44.371 56.0254 44.4885C56.1883 44.7982 56.2311 45.1212 56.2337 45.4495C56.2337 45.6177 56.2284 45.7859 56.2151 45.954C56.2124 46.0021 56.1803 46.0502 56.1616 46.0982C56.1055 46.0715 56.0334 46.0528 55.996 46.0154C55.7075 45.7378 55.4297 45.4548 55.1385 45.1799C54.9676 45.017 54.7966 44.8542 54.5989 44.7101C54.3745 44.5472 54.1021 44.5472 53.8536 44.6834C53.5705 44.8382 53.3034 45.0224 52.9962 45.1479C52.729 45.2573 52.5314 45.3775 52.4646 45.6044C52.4566 45.6257 52.4459 45.6444 52.4352 45.6658C52.3497 45.8313 52.2723 45.9994 52.1708 46.1596C52.1067 46.2637 52.0212 46.261 51.9036 46.1809C51.7594 46.0795 51.6045 45.9861 51.4709 45.8793C51.3721 45.7992 51.2839 45.7779 51.1423 45.8046C51.0088 45.8339 50.8591 45.8313 50.7176 45.8259C49.6971 45.7912 48.7088 45.6311 47.7738 45.3027C47.2823 45.1292 46.8309 44.9076 46.5103 44.5633C46.2512 44.2856 46.2432 44.0961 46.5157 43.8372C46.8469 43.5248 47.2022 43.3193 47.4293 43.1965C47.8273 42.9803 48.033 42.8681 48.3669 42.7533C48.8076 42.5985 49.2457 42.5131 49.4487 42.4784C49.9082 42.3983 50.0471 42.417 50.2955 42.3049C50.56 42.1821 50.5226 42.102 50.8191 41.8831C51.34 41.504 51.9517 41.3973 52.128 41.3732C52.4085 41.3305 52.6462 41.3332 52.8038 41.3412C52.7397 41.4933 52.689 41.6135 52.6623 41.6802C52.5714 41.8991 52.526 42.1287 52.4459 42.3502C52.4058 42.465 52.4165 42.5478 52.5875 42.5985C52.729 42.6439 52.8653 42.7026 52.9962 42.764C53.5278 43.0123 53.9685 43.3326 54.3425 43.709C54.5883 43.952 54.7913 43.9573 55.0851 43.7544C55.1385 43.717 55.1759 43.6903 55.1866 43.6796C55.3629 43.5382 55.8117 43.1618 56.0922 42.9429C56.2818 42.796 56.3887 42.7267 56.5463 42.6733C56.6879 42.6279 56.8134 42.6119 56.9016 42.6065C56.8615 42.7453 56.8295 42.8361 56.8134 42.9295ZM30.4934 42.9295C30.4106 43.3994 30.1648 43.8158 29.7668 44.1762C29.6573 44.275 29.6493 44.371 29.708 44.4885C29.8683 44.7982 29.9137 45.1212 29.9164 45.4495C29.9164 45.6177 29.9084 45.7859 29.8977 45.954C29.8924 46.0021 29.863 46.0502 29.8416 46.0982C29.7855 46.0715 29.7161 46.0528 29.676 46.0154C29.3875 45.7378 29.1097 45.4548 28.8212 45.1799C28.6502 45.017 28.4793 44.8542 28.2816 44.7101C28.0545 44.5472 27.7821 44.5472 27.5336 44.6834C27.2505 44.8382 26.9833 45.0224 26.6788 45.1479C26.4117 45.2573 26.2114 45.3775 26.1472 45.6044C26.1392 45.6257 26.1285 45.6444 26.1152 45.6658C26.0324 45.8313 25.9549 45.9994 25.8534 46.1596C25.7866 46.2637 25.7011 46.261 25.5863 46.1809C25.4394 46.0795 25.2871 45.9861 25.1509 45.8793C25.0547 45.7992 24.9665 45.7779 24.825 45.8046C24.6914 45.8339 24.5391 45.8313 24.4002 45.8259C23.3771 45.7912 22.3914 45.6311 21.4565 45.3027C20.965 45.1292 20.5135 44.9076 20.193 44.5633C19.9312 44.2856 19.9259 44.0961 20.1957 43.8372C20.5269 43.5248 20.8822 43.3193 21.1092 43.1965C21.5072 42.9803 21.7156 42.8681 22.0469 42.7533C22.4876 42.5985 22.9284 42.5131 23.1314 42.4784C23.5882 42.3983 23.7297 42.417 23.9755 42.3049C24.24 42.1821 24.2026 42.102 24.4991 41.8831C25.0226 41.504 25.6344 41.3973 25.8107 41.3732C26.0911 41.3305 26.3262 41.3332 26.4838 41.3412C26.4224 41.4933 26.3716 41.6135 26.3449 41.6802C26.2514 41.8991 26.206 42.1287 26.1285 42.3502C26.0885 42.465 26.0965 42.5478 26.2675 42.5985C26.4117 42.6439 26.5479 42.7026 26.6788 42.764C27.2077 43.0123 27.6512 43.3326 28.0252 43.709C28.2682 43.952 28.4712 43.9573 28.7651 43.7544C28.8185 43.717 28.8586 43.6903 28.8693 43.6796C29.0429 43.5382 29.4943 43.1618 29.7748 42.9429C29.9645 42.796 30.0687 42.7267 30.2263 42.6733C30.3679 42.6279 30.4934 42.6119 30.5842 42.6065C30.5441 42.7453 30.5094 42.8361 30.4934 42.9295ZM34.6205 31.8805C34.7087 31.8859 34.8342 31.9019 34.9731 31.9473C35.1334 32.0007 35.2376 32.0701 35.4272 32.2142C35.7104 32.4358 36.1592 32.8122 36.3328 32.9537C36.3435 32.9644 36.3836 32.991 36.437 33.0284C36.7308 33.234 36.9338 33.226 37.1769 32.983C37.5536 32.6066 37.9943 32.289 38.5232 32.0354C38.6568 31.9766 38.793 31.9152 38.9346 31.8725C39.1056 31.8191 39.1136 31.739 39.0735 31.6243C38.9961 31.4027 38.9506 31.1731 38.8571 30.9542C38.8304 30.8875 38.7797 30.77 38.7183 30.6152C38.8759 30.6045 39.1136 30.6045 39.3941 30.6446C39.5704 30.6713 40.1794 30.778 40.703 31.1571C40.9995 31.3733 40.9621 31.4561 41.2265 31.5789C41.4723 31.6937 41.6139 31.6723 42.0733 31.7524C42.2764 31.7871 42.7145 31.8699 43.1552 32.0274C43.4865 32.1421 43.6922 32.2543 44.0928 32.4705C44.3199 32.5906 44.6752 32.7988 45.0037 33.1112C45.2762 33.3674 45.2709 33.5596 45.0091 33.8373C44.6885 34.1816 44.2371 34.4032 43.7456 34.5767C42.8106 34.9077 41.8249 35.0652 40.8045 35.0973C40.6629 35.1026 40.5133 35.1053 40.3771 35.0786C40.2355 35.0492 40.1474 35.0732 40.0485 35.1507C39.915 35.2601 39.76 35.3562 39.6185 35.455C39.5009 35.5377 39.4154 35.5377 39.3487 35.4309C39.2472 35.2734 39.1724 35.1053 39.0842 34.9398C39.0735 34.9211 39.0628 34.8997 39.0575 34.8757C38.9907 34.6515 38.793 34.5313 38.5232 34.4219C38.2187 34.2938 37.9516 34.1122 37.6684 33.9547C37.42 33.8186 37.1475 33.8186 36.9205 33.9814C36.7255 34.1282 36.5545 34.2911 36.3835 34.4539C36.0924 34.7289 35.8146 35.0118 35.5261 35.2895C35.486 35.3268 35.4165 35.3455 35.3604 35.3722C35.3391 35.3242 35.3097 35.2761 35.3044 35.2281C35.2937 35.0599 35.2857 34.8917 35.2857 34.7235C35.2883 34.3952 35.3337 34.0722 35.494 33.7598C35.5528 33.6451 35.5448 33.5463 35.4379 33.4502C35.0372 33.0898 34.7915 32.6734 34.7087 32.2009C34.6926 32.1101 34.6579 32.0194 34.6205 31.8805ZM34.9758 36.1651C34.6499 36.0716 34.3961 35.8687 34.2946 35.6151C34.2679 35.5591 34.2065 35.4336 34.1958 35.2735C34.1824 35.0732 34.1744 34.8944 34.1771 34.7209C34.1771 34.3498 34.2278 34.0321 34.3347 33.7412C34.332 33.7412 34.3293 33.7385 34.3293 33.7358C33.2021 34.2857 32.1389 34.0588 31.1131 33.0604C30.854 32.8122 30.6323 32.5399 30.3572 32.3023C29.083 31.1998 27.75 30.6899 26.4384 30.7647C25.1295 30.6899 23.7938 31.1998 22.5197 32.3023C22.2445 32.5399 22.0228 32.8122 21.7664 33.0604C21.1119 33.6958 20.4441 34.0161 19.7549 34.0268C19.6935 34.1229 19.6213 34.2243 19.5252 34.3258C19.0069 34.881 18.3044 35.172 17.8209 35.3402C17.471 35.4657 17.1103 35.5698 16.7364 35.6525C17.7915 36.3759 18.836 36.7257 19.8644 36.707C21.8038 36.6669 23.5748 34.9611 23.9114 34.6408C24.3361 34.235 25.0066 33.4849 26.1098 33.3514C26.4437 33.3114 26.7162 33.3407 26.8151 33.3514C27.9023 33.4849 28.5487 34.235 28.9681 34.6408C29.2192 34.8864 31.0277 36.6669 33.0124 36.707C33.731 36.723 34.4602 36.5548 35.1922 36.2051C35.1174 36.1971 35.0479 36.1837 34.9758 36.1651ZM55.7796 13.3517C55.7796 13.1434 55.9693 12.9726 56.207 12.9726H58.4776C58.7127 12.9726 58.905 13.1434 58.905 13.3517V14.8733C58.905 15.0815 58.7127 15.2523 58.4776 15.2523H56.207C55.9693 15.2523 55.7796 15.0815 55.7796 14.8733V13.3517ZM59.5542 18.4904C59.5542 18.3383 59.7011 18.2128 59.88 18.2128H62.1747C62.3536 18.2128 62.5005 18.3383 62.5005 18.4904V19.8252C62.5005 19.9773 62.3536 20.1001 62.1747 20.1001H59.88C59.7011 20.1001 59.5542 19.9773 59.5542 19.8252V18.4904ZM63.2512 18.4904C63.2512 18.3383 63.3981 18.2128 63.5771 18.2128H65.8717C66.0507 18.2128 66.1949 18.3383 66.1949 18.4904V19.8252C66.1949 19.9773 66.0507 20.1001 65.8717 20.1001H63.5771C63.3981 20.1001 63.2512 19.9773 63.2512 19.8252V18.4904ZM66.9455 18.4904C66.9455 18.3383 67.0924 18.2128 67.2714 18.2128H69.5661C69.745 18.2128 69.892 18.3383 69.892 18.4904V19.8252C69.892 19.9773 69.745 20.1001 69.5661 20.1001H67.2714C67.0924 20.1001 66.9455 19.9773 66.9455 19.8252V18.4904ZM70.6426 18.4904C70.6426 18.3383 70.7895 18.2128 70.9685 18.2128H73.2631C73.4394 18.2128 73.589 18.3383 73.589 18.4904V19.8252C73.589 19.9773 73.4394 20.1001 73.2631 20.1001H70.9685C70.7895 20.1001 70.6426 19.9773 70.6426 19.8252V18.4904ZM34.1904 27.1369C34.3934 26.9714 34.5938 26.7818 34.8022 26.5789C35.0372 26.352 35.2803 26.1144 35.5661 25.8849C37.9169 23.9869 40.3477 23.8481 42.9896 25.4604C43.7108 25.8982 44.3092 26.4134 44.7981 26.8592C45.6689 27.6521 46.0482 27.6627 46.0883 27.6681C46.1283 27.6681 46.489 27.6387 47.261 26.8646C48.9546 25.1641 50.5386 24.3526 52.2455 24.3126C53.9498 24.2752 55.582 25.0039 57.3904 26.6083C58.3948 27.4999 58.7741 27.6441 58.8837 27.6681C58.9932 27.6387 59.3752 27.4732 60.3582 26.4962C62.1293 24.7343 63.9377 24.3579 65.1398 24.3579H65.1505C66.3605 24.3579 68.1717 24.7317 69.9641 26.4989C70.0576 26.5923 70.1618 26.6857 70.2713 26.7818C71.9114 25.2309 72.8517 23.7733 73.4554 22.831C73.8534 22.209 74.198 21.5737 74.4197 20.7781C74.4518 20.666 74.4785 20.5539 74.5026 20.4471V18.1914C74.5026 18.1914 74.4999 18.1914 74.4999 18.1888C74.7109 18.1354 74.8632 17.9859 74.8632 17.807C74.8632 17.5855 74.6228 17.4013 74.3289 17.4013H59.5542V12.4547C59.5542 11.8968 58.9531 11.4403 58.2212 11.4403H56.6451C56.6104 11.2481 56.3913 11.0959 56.1242 11.0959V7.99133C56.6692 7.42807 57.2115 6.86481 57.7537 6.30155C57.7884 6.28286 57.9647 6.18676 57.9808 6.0346C57.9995 5.85574 57.7751 5.65553 57.4251 5.61282H56.1242V5.55677C56.4795 5.18838 56.8348 4.81999 57.1874 4.45427C57.2168 4.43825 57.3503 4.36617 57.3637 4.25139C57.377 4.1099 57.2061 3.95774 56.939 3.92837H56.1242V3.39982C56.1242 3.21296 55.9239 3.06079 55.6808 3.06079C55.4351 3.06079 55.2347 3.21296 55.2347 3.39982V3.92837H54.4707C54.2036 3.95774 54.0326 4.1099 54.046 4.25139C54.0567 4.36617 54.1929 4.43825 54.2196 4.45427C54.5589 4.80397 54.8981 5.15367 55.2347 5.50605V5.61282H53.9845C53.6346 5.65553 53.4102 5.85574 53.4289 6.0346C53.4423 6.18676 53.6212 6.28286 53.6586 6.30155L55.2347 7.94061V11.1013C54.997 11.12 54.8046 11.2614 54.7726 11.4403H49.3232C48.5886 11.4403 47.9875 11.8968 47.9875 12.4547V17.4013H40.7377C40.4439 17.4013 40.2035 17.5855 40.2035 17.807C40.2035 17.9859 40.3584 18.138 40.5748 18.1914V20.1001H31.9733C31.6848 20.1135 31.2654 20.1668 31.033 20.3991C30.8727 20.5593 30.862 20.7381 30.8567 20.8075C30.822 21.4375 31.8557 25.3083 33.3116 27.6307C33.5493 27.5747 33.8619 27.4011 34.1904 27.1369Z"/>
</g>
</g>
</svg>
