<svg width="87" height="62" viewBox="0 0 87 62" xmlns="http://www.w3.org/2000/svg">
<path d="M82.2779 24.7094C82.1472 24.5359 82.0192 24.3704 81.8965 24.2102C80.3788 22.2054 79.1491 19.9497 78.0662 17.9583C77.0046 16.0069 75.999 14.1623 74.9028 12.8862C72.4595 10.0432 70.1602 8.66046 67.8717 8.66046H56.5781C56.5675 8.66046 55.4872 8.67381 54.1882 8.67381H52.3478C51.0301 8.67381 49.8832 9.56809 49.5551 10.8494L49.5391 10.9108V35.8812L49.5417 35.9319C49.5444 35.9452 49.5711 36.3029 49.291 36.6126C48.9789 36.9516 48.3841 37.1305 47.5653 37.1305H3.57287C2.02582 37.1305 0.76416 38.3184 0.76416 39.776V48.8682C0.76416 50.3258 2.02582 51.5137 3.57287 51.5137H13.2339C13.7407 57.3038 18.6086 61.8633 24.5221 61.8633C30.4356 61.8633 35.3062 57.3038 35.8103 51.5137H51.9823C52.4864 57.3038 57.3544 61.8633 63.2705 61.8633C69.184 61.8633 74.0519 57.3038 74.5587 51.5137H81.9072C84.6919 51.5137 86.9591 49.2446 86.9591 46.455V37.7738C86.9591 30.7878 84.1424 27.1279 82.2779 24.7094ZM67.4956 50.5153C67.4956 52.8484 65.5991 54.7464 63.2705 54.7464C60.9392 54.7464 59.0454 52.8484 59.0454 50.5153C59.0454 48.1848 60.9392 46.2868 63.2705 46.2868C65.5991 46.2868 67.4956 48.1848 67.4956 50.5153ZM77.2127 28.492C77.1246 28.6389 76.8739 28.7003 76.4898 28.6762H57.0716V12.8168H65.4684C67.7249 12.8168 69.3253 13.8019 70.9924 16.2151C72.0994 17.8195 75.0307 22.8728 75.1801 23.1317C75.2868 23.3319 75.3936 23.5375 75.5003 23.743C76.3458 25.3634 77.6261 27.8087 77.2127 28.492ZM24.5221 46.2868C26.8534 46.2868 28.7499 48.1848 28.7499 50.5153C28.7499 52.8484 26.8534 54.7464 24.5221 54.7464C22.1935 54.7464 20.297 52.8484 20.297 50.5153C20.297 48.1848 22.1935 46.2868 24.5221 46.2868Z" />
<path d="M6.86145 33.3639H20.1714C21.5211 33.3639 22.6201 32.264 22.6201 30.9133V21.1136C22.6201 19.7629 21.5211 18.663 20.1714 18.663H6.86145C5.51178 18.663 4.41553 19.7629 4.41553 21.1136V30.9133C4.41553 32.264 5.51178 33.3639 6.86145 33.3639Z" />
<path d="M28.9816 33.3639H42.2916C43.6413 33.3639 44.7375 32.264 44.7375 30.9133V21.1136C44.7375 19.7629 43.6413 18.663 42.2916 18.663H28.9816C27.6319 18.663 26.5356 19.7629 26.5356 21.1136V30.9133C26.5356 32.264 27.6319 33.3639 28.9816 33.3639Z" />
<path d="M6.86145 14.9391H20.1714C21.5211 14.9391 22.6201 13.8419 22.6201 12.4912V2.69149C22.6201 1.33806 21.5211 0.240906 20.1714 0.240906H6.86145C5.51178 0.240906 4.41553 1.33806 4.41553 2.69149V12.4912C4.41553 13.8419 5.51178 14.9391 6.86145 14.9391Z" />
<path d="M28.9816 14.9391H42.2916C43.6413 14.9391 44.7375 13.8419 44.7375 12.4912V2.69149C44.7375 1.33806 43.6413 0.240906 42.2916 0.240906H28.9816C27.6319 0.240906 26.5356 1.33806 26.5356 2.69149V12.4912C26.5356 13.8419 27.6319 14.9391 28.9816 14.9391Z" />
</svg>
