<svg width="124" height="62" viewBox="0 0 124 62" xmlns="http://www.w3.org/2000/svg">
<path d="M121.788 7.94975H81.4493V6.95938C81.4493 6.72447 81.4413 6.49221 81.4359 6.24395C81.4172 5.66734 81.4039 5.07205 81.4733 4.46341C81.6309 3.10998 82.8891 2.0849 84.4037 2.0849C87.0643 2.07957 89.765 2.07956 92.3801 2.07956H94.8029C102.697 2.07956 110.596 2.07956 118.492 2.08223C120.712 2.08223 121.788 3.18473 121.788 5.45646V7.94975ZM121.163 18.6624C121.534 19.0575 121.764 19.6528 121.777 20.184C121.777 27.0446 121.788 33.9719 121.788 40.8485C118.954 40.7977 116.838 42.1218 115.278 43.3257C114.49 43.9451 113.173 44.1132 112.642 43.6701C112.027 43.1709 111.52 42.5996 111.172 42.0177C110.467 40.8698 110.537 40.5682 111.683 39.5564C111.958 39.3055 112.27 39.0599 112.562 38.8223C113.093 38.3872 113.635 37.9387 114.132 37.4262C115.07 36.4625 115.428 35.635 115.22 34.8902C115.046 34.2255 114.445 33.745 113.44 33.4567L113.243 33.3979C110.686 32.6718 108.05 31.919 105.184 32.2768C104.777 32.3275 104.361 32.4102 103.968 32.4903C103.252 32.6318 102.571 32.7679 101.933 32.7225C101.401 32.6825 100.869 32.5918 100.338 32.4823C100.987 32.0739 101.633 31.6868 102.293 31.3398C102.79 31.0862 103.495 31.1476 104.096 31.3024C106.351 31.8924 108.512 31.7268 110.596 31.1209C111.162 30.9554 111.589 30.3227 112.075 29.9036C111.693 29.4311 111.322 28.9159 110.895 28.4968C110.144 27.7627 109.345 27.0953 108.581 26.3825C107.508 25.3815 107.425 24.3484 108.362 23.4114C108.824 22.9389 109.3 22.6639 109.808 22.5785C111.034 22.3756 112.041 23.318 112.954 23.9133C114.041 24.6287 115.81 25.3334 118.689 25.1519C118.537 24.287 118.214 23.1284 117.509 21.9245C117.012 21.0809 116.526 20.2641 115.567 19.6261C115 19.2523 114.781 19.2764 114.48 18.9347C113.705 18.0564 114.167 16.6122 114.146 15.9876C114.087 14.0762 113.601 12.1248 113.232 9.97857C114.306 9.97857 115.393 9.97856 116.47 9.97055C116.643 9.96788 117.161 9.96255 117.567 10.363C117.96 10.7661 117.95 11.2946 117.95 11.4708C117.936 12.0474 117.936 12.6427 117.95 13.2167C117.95 13.8627 117.95 14.53 117.936 15.1921C117.925 15.2962 117.926 15.3175 118.03 15.4216C118.909 16.2972 120.055 17.4585 121.163 18.6624ZM121.788 55.1916V56.1553C121.788 58.2161 120.631 59.3987 118.62 59.3987C115.994 59.3987 113.371 59.3987 110.745 59.3987C109.647 59.3987 108.547 59.3987 107.449 59.3987C109.022 58.6886 109.404 57.9251 109.068 56.0218C109.033 55.8163 108.987 55.6027 108.942 55.3972H108.987L108.998 54.7618C108.998 54.5883 109.011 54.4148 109.022 54.2332C109.033 53.8115 109.057 53.3764 109.022 52.9386C108.963 52.3192 108.873 51.7026 108.79 51.1046C108.734 50.7175 108.675 50.3171 108.629 49.9247C108.595 49.551 108.595 49.0465 108.848 48.7528C109.033 48.5366 109.369 48.4218 109.832 48.4111C110.398 48.4004 110.839 48.5045 111.183 48.7261C111.52 48.9477 111.6 49.1639 111.808 49.8126C111.947 50.2397 112.121 50.7736 112.457 51.4623C113.104 52.7891 113.868 53.7074 114.677 54.679C115.139 55.245 115.647 55.7922 116.168 56.3074L116.758 56.8734L117.14 56.1606C117.578 55.3491 117.96 54.5029 118.273 53.646C118.794 52.1991 119.106 51.3262 118.85 50.3225C118.711 49.7565 118.47 49.4228 118.297 49.1772C118.145 48.9584 118.088 48.8836 118.088 48.7234C118.075 48.2936 118.551 47.8852 119.013 47.4901C119.232 47.3033 119.44 47.1271 119.614 46.9322C120.423 46.0219 121.094 44.9942 121.788 43.9077C121.788 47.6957 121.788 51.465 121.788 55.1916ZM84.5693 59.3987C83.052 59.3987 82.0797 58.7607 81.5935 57.4526C81.4493 57.0576 81.4279 56.6545 81.4252 56.3101C81.4226 53.977 81.4226 51.6065 81.4226 49.3107V48.6407C82.3548 48.2696 83.2844 47.8906 84.2034 47.4901C85.2932 47.0176 86.0038 47.322 86.49 48.2963C87.1952 49.7085 87.9004 51.1233 88.5522 52.5595C88.7338 52.9546 88.6537 53.2482 88.6003 53.6113C88.4186 54.8766 87.4062 55.6801 86.9654 55.9871C87.7214 56.1499 88.9128 56.3902 90.3953 56.6251C91.2421 56.7559 91.8138 56.7746 92.0168 56.8574C94.0684 57.6822 96.0291 58.7927 98.142 59.3987C93.6142 59.3987 89.0918 59.3987 84.5693 59.3987ZM99.0423 33.4567C99.9452 33.6595 100.88 33.8731 101.842 33.9425C102.638 34.0012 103.436 33.8437 104.211 33.6916C104.604 33.6142 104.975 33.5394 105.344 33.494C107.959 33.1684 110.467 33.8838 112.906 34.5778L113.104 34.6339C113.635 34.7887 113.983 34.9996 114.041 35.2078C114.063 35.3093 114.087 35.7097 113.253 36.572C112.802 37.0364 112.305 37.4422 111.787 37.872C111.485 38.1176 111.173 38.3712 110.873 38.6355C109.276 40.0396 109.102 40.9793 110.12 42.653C110.537 43.3498 111.138 44.0305 111.854 44.6178C112.941 45.5147 114.896 45.1757 116.029 44.2948C117.971 42.7919 119.659 42.0951 121.5 42.0711C121.326 42.33 121.163 42.589 121 42.8426C120.249 44.0385 119.544 45.1677 118.7 46.1154C118.572 46.2488 118.401 46.3983 118.214 46.5585C117.637 47.0577 116.838 47.7437 116.862 48.7528C116.873 49.3001 117.116 49.6311 117.3 49.8953C117.453 50.1009 117.578 50.2797 117.658 50.6134C117.811 51.2354 117.613 51.8307 117.116 53.2322C116.918 53.7714 116.699 54.3053 116.446 54.8312C116.157 54.5269 115.879 54.2146 115.612 53.8969C114.862 52.9813 114.132 52.1217 113.555 50.9284C113.267 50.3144 113.104 49.8473 112.976 49.4335C112.757 48.7555 112.562 48.1682 111.854 47.701C111.322 47.354 110.686 47.1858 109.912 47.1858C109.877 47.1858 109.842 47.1858 109.797 47.1858C108.977 47.2045 108.338 47.4608 107.924 47.9466C107.473 48.4565 107.31 49.1719 107.414 50.0689C107.459 50.4773 107.518 50.8857 107.577 51.2781C107.657 51.8574 107.737 52.4607 107.796 53.0507C107.796 53.072 107.796 53.0934 107.796 53.1147C106.143 50.496 104.687 48.4618 104.687 48.4618C101.783 45.2932 100.824 45.5468 99.8517 43.3952C99.3655 42.3087 99.3441 41.6546 98.5802 40.424C97.6773 38.9718 96.558 38.0268 95.7459 37.4529C95.6845 38.1763 95.5429 39.2174 95.1796 40.424C94.835 41.5612 94.6614 42.1298 94.3168 42.4769C93.2697 43.534 91.9687 42.4235 88.9101 43.2056C87.8416 41.9857 86.9334 40.5228 86.1641 38.7796C85.5657 37.4315 85.2478 35.6029 87.1097 34.5698C87.3555 34.431 87.6066 34.3029 87.8577 34.1828C89.6341 34.7514 91.4185 34.9996 93.251 34.8395C93.7158 34.7994 94.2927 35.384 94.811 35.6964C96.0451 36.4438 97.2579 37.2634 98.5214 37.9227C98.9515 38.1496 99.4937 37.9868 100.279 38.0135C99.4349 36.4492 98.7885 35.2319 98.0833 33.9131C98.3477 33.7476 98.6042 33.5821 98.8686 33.4166C98.9274 33.43 98.9862 33.4433 99.0423 33.4567ZM103.079 9.9759C104.315 9.9759 105.552 9.9759 106.768 9.9759H111.266C111.728 9.9759 112.18 9.9759 112.628 9.97857C112.676 9.97857 112.733 9.97857 112.781 9.97857C110.895 11.5936 110.155 13.7772 109.808 16.2332C109.634 17.4531 108.675 18.8119 107.598 18.8412C106.824 18.8626 106.004 18.7692 105.229 18.5076C103.634 17.9683 103.322 17.365 103.471 15.5044C103.565 14.3939 103.76 13.3021 103.76 12.1782C103.773 11.025 103.541 10.2829 103.079 9.9759ZM82.0824 18.585C83.2017 17.4691 84.2221 16.4147 85.2051 15.3656C85.2211 15.3416 85.2452 15.2828 85.2478 15.2561C85.2826 13.916 85.2826 12.7361 85.2478 11.655C85.2372 11.308 85.2692 10.7981 85.6512 10.403C86.0332 10.0133 86.5327 9.96521 86.8773 9.96521H86.8853C91.8352 9.97589 96.8492 9.9759 101.783 9.9759C101.679 10.0186 101.564 10.0693 101.449 10.1307C99.101 11.3186 96.7209 12.4932 94.9552 14.7009C94.2473 15.5898 93.6891 16.687 92.853 17.373C91.6749 18.342 90.2752 18.9694 89.0223 19.8316C86.124 21.8311 83.7359 24.4018 82.5899 28.2779C81.9835 30.3254 82.9879 32.0125 85.133 33.0696C85.5283 33.2645 85.9237 33.4433 86.319 33.6088C84.4251 34.7727 83.9576 36.8282 85.0421 39.2761C85.7661 40.9152 86.6102 42.3274 87.5879 43.5366C85.8035 43.9477 85.6939 43.6034 84.8365 41.1074C84.2114 39.2788 83.5222 37.4742 82.8597 35.659C82.63 35.6777 82.3976 35.699 82.1679 35.7204C81.9221 37.4449 81.5187 39.1693 81.4226 40.8965V38.3392C81.4226 36.7962 81.4226 35.2559 81.4226 33.7156C81.4226 29.3003 81.4226 24.7355 81.4146 20.2454C81.4119 19.57 81.6256 19.0441 82.0824 18.585ZM122.309 1.50296C121.371 0.544614 120.076 -0.00530045 118.77 3.85184e-05C110.721 0.0240639 102.547 0.0213937 94.6454 0.0160548C91.2288 0.0160548 87.8096 0.0133853 84.393 0.0160548C81.6443 0.0160548 79.4806 2.23706 79.4672 5.06938C79.4619 5.8729 79.4645 6.68975 79.4645 7.47992C79.4645 7.8403 79.4645 8.20335 79.4645 8.56373V9.9759C79.5794 9.9759 79.6943 9.97857 79.8118 9.97857C80.4502 9.98391 81.1127 9.98924 81.7538 9.97055C81.9408 9.96254 82.5178 9.94386 82.9399 10.3736C83.3619 10.8034 83.3325 11.3667 83.3245 11.5536C83.3111 11.8632 83.3138 12.1835 83.3165 12.5199C83.3192 12.899 83.3245 13.2914 83.3005 13.6918C83.2711 14.1857 83.052 14.7089 82.7261 15.0586C82.2239 15.5952 81.7031 16.1291 81.2035 16.6469C80.6586 17.2075 80.0976 17.7841 79.5607 18.3634C79.5286 18.3981 79.4859 18.4915 79.4779 18.5396C79.4619 31.3131 79.4645 44.196 79.4672 56.2968C79.4672 59.2893 81.5588 61.4622 84.4411 61.4622C88.245 61.4622 92.0489 61.4622 95.8528 61.4622C98.5214 61.4595 101.227 61.4595 103.947 61.4595C108.883 61.4595 113.879 61.4622 118.804 61.4702H118.815C120.121 61.4702 121.361 60.947 122.296 59.994C123.244 59.0223 123.765 57.7409 123.73 56.3848C123.695 54.4735 123.695 52.5328 123.695 50.6535V49.6978C123.695 46.6226 123.706 43.55 123.706 40.4747C123.706 33.2591 123.719 25.7979 123.719 18.4595C123.706 18.4355 123.685 18.4008 123.674 18.3874C123.313 17.9843 122.945 17.6026 122.539 17.1942C122.33 16.9806 122.111 16.7671 121.903 16.5508C121.764 16.3987 121.59 16.2465 121.417 16.0863C120.909 15.6352 120.343 15.1253 120.065 14.4019C119.777 13.6811 119.822 12.915 119.867 12.2369C119.881 11.9807 119.902 11.7378 119.892 11.5135C119.892 11.5109 119.892 11.5082 119.892 11.5055C119.846 10.9689 120.03 10.6219 120.215 10.4217C120.621 9.9572 121.198 9.96788 121.395 9.97055C122.17 9.9839 122.955 9.97589 123.719 9.97055C123.719 9.67691 123.719 9.3886 123.719 9.1003C123.706 7.80293 123.695 6.46285 123.73 5.14679C123.765 3.77201 123.268 2.47999 122.309 1.50296Z" />
<path fill-rule="evenodd" clip-rule="evenodd" d="M10.7617 46.9989C9.81872 46.7293 8.1545 45.8377 7.33709 45.2344C6.77613 44.8206 6.10833 44.4843 6.05223 43.7315C5.9988 43.0561 6.43953 42.8132 6.79214 42.5222C7.60154 41.8522 9.70384 40.6242 10.6815 40.432C11.3974 40.9899 11.8328 42.5676 11.8034 43.6754C11.7687 44.9835 11.2398 46.0352 10.7617 46.9989ZM11.6138 40.1517C12.2816 39.794 14.5949 39.5884 15.4791 39.5911C16.7854 39.5938 18.1691 39.802 19.3364 40.1544C19.8841 40.3199 20.4744 40.5201 20.9579 40.739C21.2117 40.8538 21.4441 40.9525 21.6818 41.0807L22.4111 41.4784C23.1644 41.9136 24.0886 42.6023 24.7351 43.2136C24.9167 43.3845 24.7511 43.267 24.9327 43.3791C25.3094 43.2163 27.9166 41.2862 28.4107 41.0513V46.3716C27.7777 45.9738 27.2194 45.5681 26.6424 45.165C26.1081 44.7913 25.3682 44.2333 24.866 43.9744C23.1777 45.3625 21.6177 46.5238 19.3017 47.1671C18.0596 47.5115 16.8602 47.7384 15.4871 47.7464C14.5175 47.7517 12.3778 47.5729 11.6111 47.2071C11.8061 46.3022 13.6039 44.0225 12.0252 40.8725C11.9611 40.7417 11.6806 40.2291 11.6138 40.1517ZM32.7649 32.4609C30.708 33.7316 28.3787 34.6606 25.5578 35.2559C20.5251 36.3183 16.6652 36.321 11.6218 35.9393L7.27833 35.2345C7.11806 35.2025 6.95779 35.1731 6.78683 35.1304L5.83317 34.8875C4.15561 34.439 2.57422 33.8224 1.0329 33.0269L0.0498609 32.4583C-0.0329484 33.9238 0.0418693 35.6002 0.039198 37.0925V46.409C0.039198 47.2392 0.105956 47.6289 0.482605 48.2776C1.80488 50.552 5.58743 51.8574 7.95684 52.4607C14.5763 54.1478 26.4847 53.6673 31.3037 49.5803C32.1024 48.9023 32.7729 48 32.7783 46.409V37.0925C32.7836 35.699 32.8825 33.7983 32.7649 32.4609Z" />
<path fill-rule="evenodd" clip-rule="evenodd" d="M5.57452 28.7076C5.41692 27.0899 8.57969 25.9714 9.77107 25.6003C10.7354 25.2987 11.8226 25.1172 12.7976 24.9703C16.1474 24.4631 22.1444 24.7221 25.3766 26.5347C26.0658 26.9217 27.113 27.5678 27.2358 28.398C27.4549 29.8555 24.4871 31.0648 23.0553 31.4866C18.8935 32.7092 14.2802 32.573 10.0916 31.5613C8.44614 31.1636 5.7161 30.1411 5.57452 28.7076ZM14.5153 22.8721C10.6392 23.0804 4.1534 24.044 1.22569 26.9778C0.867736 27.3382 0.541837 27.7146 0.320122 28.2031C0.119777 28.6436 -0.123291 30.1865 0.0717121 30.6617C0.285414 31.1742 2.89256 32.4155 3.62715 32.6932C4.97615 33.203 6.47742 33.6435 7.98936 33.9265C14.9801 35.2345 25.6625 35.2799 31.7583 31.4652C32.0548 31.2783 32.3246 31.0861 32.5837 30.8939C32.9817 30.6003 32.8909 28.6809 32.1056 27.5971C30.8127 25.8139 27.6926 24.4284 24.7569 23.7557C21.5247 23.0136 18.0119 22.6826 14.5153 22.8721Z" />
<path fill-rule="evenodd" clip-rule="evenodd" d="M45.3224 54.906C44.3794 54.6363 42.7152 53.7448 41.8978 53.1415C41.3369 52.7277 40.669 52.3913 40.6103 51.6385C40.5595 50.9632 40.9976 50.7202 41.3529 50.4266C42.1596 49.7592 44.2646 48.5312 45.2423 48.339C45.9555 48.897 46.3936 50.4746 46.3642 51.5825C46.3268 52.8905 45.7979 53.9423 45.3224 54.906ZM46.1745 48.0587C46.8423 47.701 49.153 47.4955 50.0398 47.4982C51.3461 47.5008 52.7272 47.709 53.8972 48.0614C54.4448 48.2269 55.0351 48.4271 55.5186 48.6434C55.7724 48.7582 56.0021 48.8596 56.2399 48.9877L56.9718 49.3855C57.7251 49.8206 58.6494 50.5093 59.2958 51.1207C59.4774 51.2915 59.3118 51.174 59.4935 51.2862C59.8701 51.1233 62.4773 49.1933 62.9715 48.9584V54.276C62.3384 53.8809 61.7801 53.4751 61.2031 53.072C60.6688 52.6983 59.9289 52.1404 59.4267 51.8814C57.7384 53.2696 56.1784 54.4281 53.8624 55.0741C52.6203 55.4185 51.4209 55.6454 50.0452 55.6534C49.0782 55.6588 46.9385 55.4799 46.1719 55.1115C46.3669 54.2092 48.1646 51.9295 46.5859 48.7795C46.5218 48.6487 46.2413 48.1362 46.1745 48.0587ZM67.323 40.368C65.2688 41.636 62.9394 42.5676 60.1159 43.1629C55.0832 44.2254 51.2259 44.228 46.1825 43.8463L41.8391 43.1389C41.6788 43.1069 41.5185 43.0802 41.3476 43.0348L40.3912 42.7945C38.7163 42.3434 37.135 41.7294 35.5936 40.9339L34.6106 40.3653C34.5278 41.8308 34.5999 43.5073 34.5999 44.9969V54.316C34.5973 55.1462 34.6667 55.536 35.0433 56.182C36.3656 58.4591 40.1481 59.7618 42.5175 60.3677C49.1343 62.0522 61.0455 61.5743 65.8644 57.4874C66.6605 56.8093 67.3336 55.9044 67.339 54.316V44.9969C67.3443 43.6034 67.4432 41.7054 67.323 40.368Z" />
<path fill-rule="evenodd" clip-rule="evenodd" d="M40.1351 36.6147C39.9748 34.997 43.1376 33.8785 44.3316 33.5047C45.2933 33.2057 46.3832 33.0215 47.3555 32.8747C50.7053 32.3702 56.705 32.6291 59.9372 34.4417C60.6264 34.8288 61.6735 35.4748 61.7964 36.305C62.0154 37.7626 59.0476 38.9718 57.6132 39.3936C53.454 40.6162 48.8407 40.4774 44.6522 39.4683C43.0067 39.0706 40.2766 38.0482 40.1351 36.6147ZM49.0758 30.7792C45.1998 30.9874 38.7139 31.9511 35.7862 34.8848C35.4256 35.2452 35.1024 35.6216 34.8807 36.1101C34.6803 36.5506 34.4373 38.0936 34.6323 38.5687C34.846 39.0813 37.4531 40.3226 38.1877 40.6002C39.5367 41.1074 41.038 41.5505 42.5499 41.8335C49.5406 43.1389 60.223 43.1843 66.3189 39.3723C66.6154 39.1854 66.8825 38.9932 67.1443 38.801C67.5423 38.5073 67.4515 36.588 66.6661 35.5042C65.3732 33.721 62.2532 32.3355 59.3174 31.6628C56.0825 30.9207 52.5725 30.5896 49.0758 30.7792Z" />
<path fill-rule="evenodd" clip-rule="evenodd" d="M83.0679 1.5083H120.367C121.572 1.5083 122.557 2.49334 122.557 3.69728V7.78693C122.557 8.99087 121.572 9.97591 120.367 9.97591H83.0679C81.8631 9.97591 80.8774 8.99087 80.8774 7.78693V3.69728C80.8774 2.49334 81.8631 1.5083 83.0679 1.5083Z" />
</svg>
