<svg width="113" height="62" viewBox="0 0 113 62" xmlns="http://www.w3.org/2000/svg">
<path d="M111.012 61.8633H2.7741C1.74451 61.8633 0.904297 61.1559 0.904297 60.2883V59.7464C0.904297 58.8815 1.74451 58.1714 2.7741 58.1714H111.012C112.041 58.1714 112.882 58.8815 112.882 59.7464V60.2883C112.882 61.1559 112.041 61.8633 111.012 61.8633ZM29.6715 22.6139H4.64657C3.36625 22.6139 2.32334 23.4948 2.32334 24.5706V49.3221C2.32334 50.3979 3.36625 51.2788 4.64657 51.2788H6.74046C6.74046 51.2601 6.74046 51.2414 6.74046 51.2227C6.74046 47.974 9.31711 45.3312 12.4806 45.3312C15.6467 45.3312 18.2233 47.974 18.2233 51.2227C18.2233 51.2414 18.2207 51.2601 18.2207 51.2788H29.6715C30.9492 51.2788 31.9948 50.3979 31.9948 49.3221V24.5706C31.9948 23.4948 30.9492 22.6139 29.6715 22.6139ZM12.4806 53.0433C11.627 53.0433 10.9335 52.384 10.9335 51.5751C10.9335 50.7663 11.627 50.1096 12.4806 50.1096C13.3368 50.1096 14.0303 50.7663 14.0303 51.5751C14.0303 52.384 13.3368 53.0433 12.4806 53.0433ZM12.4806 47.0156C9.95193 47.0156 7.90077 49.0578 7.90077 51.5751C7.90077 54.0951 9.95193 56.1373 12.4806 56.1373C15.0119 56.1373 17.0604 54.0951 17.0604 51.5751C17.0604 49.0578 15.0119 47.0156 12.4806 47.0156ZM45.5422 37.2186C45.5422 37.7525 45.0167 38.193 44.3792 38.193H36.7026C36.1052 38.193 35.609 37.8086 35.5477 37.3174C35.5503 37.1786 35.5503 36.9597 35.5477 36.6928C35.5183 33.7296 35.5423 33.0756 35.5423 32.1119C35.5423 31.0388 36.5852 30.1605 37.8656 30.1605H39.2846C40.1435 30.1605 40.8984 30.5609 41.3011 31.1509C42.6375 32.8353 43.9738 34.5198 45.3101 36.2042C45.4542 36.3644 45.5422 36.5673 45.5422 36.7835V37.2186ZM49.9619 38.6174C49.8739 38.4573 49.7646 38.3131 49.6312 38.1823C47.3666 35.2032 45.0994 32.2267 42.8322 29.2449H42.8295C42.4107 28.719 41.7012 28.3693 40.8957 28.3693H36.1238C34.8461 28.3693 33.8005 29.2476 33.8005 30.3234V49.3221C33.8005 50.3979 34.8461 51.2788 36.1238 51.2788H36.3825C36.3825 51.2601 36.3798 51.2414 36.3798 51.2227C36.3798 47.974 38.9538 45.3312 42.1199 45.3312C45.2861 45.3312 47.8627 47.974 47.8627 51.2227C47.8627 51.2414 47.8627 51.2601 47.8627 51.2788C49.1404 51.2788 50.186 50.3979 50.186 49.3221V39.4423C50.186 39.1487 50.1033 38.8684 49.9619 38.6174ZM42.1199 53.0433C41.2664 53.0433 40.5729 52.384 40.5729 51.5751C40.5729 50.7663 41.2664 50.1096 42.1199 50.1096C42.9762 50.1096 43.6697 50.7663 43.6697 51.5751C43.6697 52.384 42.9762 53.0433 42.1199 53.0433ZM42.1199 47.0156C39.594 47.0156 37.5428 49.0578 37.5428 51.5751C37.5428 54.0951 39.594 56.1373 42.1199 56.1373C44.6512 56.1373 46.7025 54.0951 46.7025 51.5751C46.7025 49.0578 44.6512 47.0156 42.1199 47.0156ZM10.6774 33.7029C10.7761 33.7083 10.9282 33.7296 11.0962 33.791C11.2829 33.8577 11.4083 33.9512 11.6297 34.1407C11.9631 34.4264 12.4966 34.9202 12.702 35.1097C12.718 35.1231 12.7633 35.1578 12.822 35.2032C13.1714 35.4755 13.4115 35.4674 13.6996 35.1471C14.1423 34.6533 14.6651 34.2342 15.2919 33.9058C15.4467 33.8257 15.6066 33.7483 15.7774 33.6896C15.9801 33.6202 15.9908 33.5134 15.9428 33.3639C15.8494 33.0756 15.7961 32.7739 15.6867 32.483C15.6547 32.3975 15.5987 32.24 15.5213 32.0398C15.708 32.0265 15.9908 32.0238 16.3215 32.0799C16.5269 32.1146 17.2497 32.2534 17.8686 32.7526C18.2207 33.0356 18.1727 33.1423 18.4874 33.3052C18.7781 33.452 18.9462 33.428 19.4877 33.5321C19.7277 33.5775 20.2479 33.6869 20.7707 33.8924C21.1628 34.0446 21.4081 34.1914 21.8776 34.4717C22.147 34.6319 22.5684 34.9069 22.9579 35.3153C23.2806 35.6543 23.2699 35.9026 22.9632 36.271C22.5844 36.7194 22.0483 37.0104 21.4668 37.2373C20.3625 37.6698 19.1969 37.8807 17.9859 37.9234C17.8205 37.9314 17.6419 37.934 17.4845 37.8967C17.3191 37.8593 17.2124 37.8887 17.0977 37.9928C16.9377 38.1343 16.7563 38.2597 16.5856 38.3905C16.4495 38.4973 16.3455 38.4973 16.2655 38.3612C16.1481 38.153 16.0575 37.9314 15.9561 37.7152C15.9428 37.6885 15.9294 37.6618 15.9214 37.6324C15.8414 37.3361 15.6067 37.1759 15.2919 37.0344C14.9292 36.8663 14.6144 36.6314 14.281 36.4231C13.9849 36.2443 13.6648 36.2443 13.3954 36.4605C13.1634 36.6474 12.9607 36.8636 12.7606 37.0745C12.4166 37.4375 12.0885 37.8086 11.747 38.1716C11.7017 38.2224 11.6164 38.2464 11.5523 38.2838C11.5283 38.2197 11.491 38.1583 11.4883 38.0942C11.4723 37.8727 11.4643 37.6511 11.4643 37.4322C11.467 36.9997 11.5203 36.5753 11.7097 36.1669C11.779 36.0174 11.7683 35.8892 11.6403 35.7611C11.1682 35.2859 10.8801 34.7387 10.7788 34.122C10.7601 33.9992 10.7201 33.8818 10.6774 33.7029ZM107.982 12.7795C107.982 13.2627 107.406 13.6578 106.704 13.6578H102.484C101.783 13.6578 101.207 13.2627 101.207 12.7795V7.30975C101.207 6.83191 101.783 6.43682 102.484 6.43682H106.704C107.406 6.43682 107.982 6.83191 107.982 7.30975V12.7795ZM107.982 23.9086C107.982 24.3918 107.406 24.7868 106.704 24.7868H102.484C101.783 24.7868 101.207 24.3918 101.207 23.9086V18.4415C101.207 17.9583 101.783 17.5659 102.484 17.5659H106.704C107.406 17.5659 107.982 17.9583 107.982 18.4415V23.9086ZM107.982 35.0403C107.982 35.5208 107.406 35.9159 106.704 35.9159H102.484C101.783 35.9159 101.207 35.5208 101.207 35.0403V29.5706C101.207 29.0874 101.783 28.695 102.484 28.695H106.704C107.406 28.695 107.982 29.0874 107.982 29.5706V35.0403ZM97.918 12.7795C97.918 13.2627 97.3445 13.6578 96.643 13.6578H92.4232C91.719 13.6578 91.1456 13.2627 91.1456 12.7795V7.30975C91.1456 6.83191 91.719 6.43682 92.4232 6.43682H96.643C97.3445 6.43682 97.918 6.83191 97.918 7.30975V12.7795ZM97.918 23.9086C97.918 24.3918 97.3445 24.7868 96.643 24.7868H92.4232C91.719 24.7868 91.1456 24.3918 91.1456 23.9086V18.4415C91.1456 17.9583 91.719 17.5659 92.4232 17.5659H96.643C97.3445 17.5659 97.918 17.9583 97.918 18.4415V23.9086ZM97.918 35.0403C97.918 35.5208 97.3445 35.9159 96.643 35.9159H92.4232C91.719 35.9159 91.1456 35.5208 91.1456 35.0403V29.5706C91.1456 29.0874 91.719 28.695 92.4232 28.695H96.643C97.3445 28.695 97.918 29.0874 97.918 29.5706V35.0403ZM87.7901 12.7795C87.7901 13.2627 87.2166 13.6578 86.5124 13.6578H82.2954C81.5939 13.6578 81.0177 13.2627 81.0177 12.7795V7.30975C81.0177 6.83191 81.5939 6.43682 82.2954 6.43682H86.5124C87.2166 6.43682 87.7901 6.83191 87.7901 7.30975V12.7795ZM87.7901 23.9086C87.7901 24.3918 87.2166 24.7868 86.5124 24.7868H82.2954C81.5939 24.7868 81.0177 24.3918 81.0177 23.9086V18.4415C81.0177 17.9583 81.5939 17.5659 82.2954 17.5659H86.5124C87.2166 17.5659 87.7901 17.9583 87.7901 18.4415V23.9086ZM87.7901 35.0403C87.7901 35.5208 87.2166 35.9159 86.5124 35.9159H82.2954C81.5939 35.9159 81.0177 35.5208 81.0177 35.0403V29.5706C81.0177 29.0874 81.5939 28.695 82.2954 28.695H86.5124C87.2166 28.695 87.7901 29.0874 87.7901 29.5706V35.0403ZM110.561 0.248962H78.4357C77.1608 0.248962 76.1152 1.12989 76.1152 2.20303V51.9275C76.1152 53.0033 77.1608 53.8842 78.4357 53.8842H86.179C87.4567 53.8842 88.5023 53.0033 88.5023 51.9275V44.218H88.5609C88.7983 43.3531 89.7239 42.6991 90.8228 42.6991H98.174C99.2756 42.6991 100.201 43.3531 100.439 44.218H100.497V51.9275C100.497 53.0033 101.546 53.8842 102.82 53.8842H110.561C111.839 53.8842 112.882 53.0033 112.882 51.9275V2.20303C112.882 1.12989 111.839 0.248962 110.561 0.248962Z"/>
</svg>
