<svg width="52" height="64" viewBox="0 0 52 64" xmlns="http://www.w3.org/2000/svg">
<path fill-rule="evenodd" clip-rule="evenodd" d="M42.2211 37.9186H45.1685V40.7456H42.2211V37.9186ZM23.7152 63.8633H23.2697C22.4534 63.7992 21.6533 63.3828 21.0985 62.5099C20.4797 61.5328 20.309 57.638 20.2423 56.2366C20.1463 54.3119 19.8048 51.5329 19.7461 49.723L19.4954 46.4102C19.3354 44.3227 19.01 42.1123 19.01 39.886C18.2765 39.902 17.6683 40.2383 16.6787 39.7632L16.1773 46.3942C15.8785 50.3397 15.2677 55.8175 15.0836 59.5627C15.0196 60.8227 15.0196 61.6716 14.5102 62.5552C14.0194 63.4068 13.2166 63.8072 12.379 63.8633H11.9629C10.5546 63.7698 9.18618 62.7501 9.18618 61.2819L11.0106 38.0227L11.0293 23.1617C10.7226 23.5167 10.6426 23.9198 10.4132 24.3923C9.11952 27.0671 7.84189 30.4253 6.5669 33.0815C5.28925 35.7429 4.53432 39.4856 1.75229 38.602C1.28817 38.4551 0.896087 38.2176 0.634688 37.8732C0.050542 37.099 0.0986166 36.8908 0.0986166 36.074C0.0986166 35.3932 1.13347 33.2897 1.49089 32.5476L7.44968 19.088C7.98314 17.7693 8.40194 17.0859 9.67693 16.5227C16.1932 13.6476 21.6533 14.5125 28.1749 16.6908L39.7671 20.5776C40.8181 21.0634 41.2395 21.7548 41.2395 22.9161C41.6983 23.0389 42.4665 23.6155 42.8053 23.9278C44.7658 25.7404 44.7497 27.3848 45.1685 29.1867C46.4782 29.1867 47.7878 29.192 49.0975 29.1867C50.3324 29.1813 51.6768 29.2107 51.6768 30.4173C51.6768 31.8081 51.4795 31.5599 50.6553 31.9763C50.1111 32.2539 49.9857 32.9266 49.863 33.5193L48.3319 41.2074C48.0545 42.6195 47.7799 43.4524 46.0274 43.4524H31.7812C29.6179 43.4524 29.6687 42.1577 29.3166 40.3878C29.0099 38.8582 28.7137 37.3687 28.3963 35.7776C28.263 35.1103 27.9161 32.9 27.5881 32.4034C27.1533 31.7414 25.5743 31.7307 26.1772 30.1023C26.4305 29.4109 27.0946 29.1867 27.9749 29.1867H32.6427C32.672 27.8786 33.3122 26.0661 34.0431 25.057C34.3178 24.6806 34.6325 24.3496 34.8539 24.0239C34.1311 23.9625 26.2677 21.1062 24.5366 20.7031C24.5366 25.0223 24.366 34.6645 24.6674 38.6473C24.7314 39.4695 24.8915 40.4706 24.9048 41.3622L26.009 55.1341C26.0223 56.0283 26.2358 57.0881 26.2571 57.9611C26.2811 58.9034 26.4012 59.8484 26.4892 60.6893C26.6733 62.4618 25.2409 63.7485 23.7152 63.8633ZM37.4306 37.9186H40.378V40.7456H37.4306V37.9186ZM32.6427 37.9186H35.5901V40.7456H32.6427V37.9186ZM42.2211 32.8759H45.1685V35.7056H42.2211V32.8759ZM37.4306 32.8759H40.378V35.7056H37.4306V32.8759ZM32.6427 32.8759H35.5901V35.7056H32.6427V32.8759ZM35.9582 24.5151C36.8918 24.5151 38.7109 25.9433 40.2286 24.8568C40.5993 24.5898 40.8661 24.379 40.9941 23.9011C41.5463 24.2695 41.6929 24.2855 42.1917 24.7901C43.3013 25.9086 44.0642 27.3875 44.0642 29.1867H33.747C33.747 28.1936 34.0537 27.0885 34.4004 26.3971C34.5845 26.0314 35.6408 24.5151 35.9582 24.5151Z"/>
<path fill-rule="evenodd" clip-rule="evenodd" d="M11.7651 6.31724C11.7651 7.90558 11.7038 8.37007 12.376 9.88633C12.7787 10.7966 12.9362 11.0742 13.5016 11.8324C13.9924 12.4944 14.3978 12.8762 15.0779 13.3273C17.6493 15.0278 20.4954 14.1308 22.2051 11.7283C24.1523 8.9974 24.7657 5.43364 22.1917 2.76148L21.8743 2.46517C21.7116 2.31568 21.6477 2.24361 21.4876 2.11547C20.5194 1.33598 19.2976 0.940892 18.0573 0.906189H17.6839C16.5156 0.940892 15.3527 1.2906 14.3951 1.94195C13.7603 2.37441 13.4563 2.72412 12.9628 3.33543C12.4027 4.02415 11.7651 5.44965 11.7651 6.31724Z"/>
</svg>
